<svg xmlns="http://www.w3.org/2000/svg" xmlns:xlink="http://www.w3.org/1999/xlink" viewBox="0 0 202.35 66.17"><defs><style>.cls-1{fill:none;}.cls-2{fill:#231815;}.cls-3{fill:#01252f;}.cls-4{fill:#71d6f3;}.cls-5{fill:#fff;}.cls-6{fill:url(#_10_dpi_30_2);}.cls-7{fill:#ed6f2a;}.cls-8{fill:#ea5706;}.cls-9{fill:url(#_10_dpi_40_3);}.cls-10{fill:#06b7ea;}</style><pattern id="_10_dpi_30_2" data-name="10 dpi 30% 2" width="28.8" height="28.8" patternTransform="translate(11.84 6.31) rotate(55.96) scale(0.12)" patternUnits="userSpaceOnUse" viewBox="0 0 28.8 28.8"><rect class="cls-1" width="28.8" height="28.8"/><path class="cls-2" d="M28.8,31a2.16,2.16,0,1,0-2.16-2.16A2.16,2.16,0,0,0,28.8,31Z"/><path class="cls-2" d="M14.4,31a2.16,2.16,0,1,0-2.16-2.16A2.16,2.16,0,0,0,14.4,31Z"/><path class="cls-2" d="M28.8,16.56a2.16,2.16,0,1,0-2.16-2.16A2.16,2.16,0,0,0,28.8,16.56Z"/><path class="cls-2" d="M14.4,16.56a2.16,2.16,0,1,0-2.16-2.16A2.16,2.16,0,0,0,14.4,16.56Z"/><path class="cls-2" d="M7.2,23.76A2.16,2.16,0,1,0,5,21.6,2.16,2.16,0,0,0,7.2,23.76Z"/><path class="cls-2" d="M21.6,23.76a2.16,2.16,0,1,0-2.16-2.16A2.16,2.16,0,0,0,21.6,23.76Z"/><path class="cls-2" d="M7.2,9.36A2.16,2.16,0,1,0,5,7.2,2.16,2.16,0,0,0,7.2,9.36Z"/><path class="cls-2" d="M21.6,9.36A2.16,2.16,0,1,0,19.44,7.2,2.16,2.16,0,0,0,21.6,9.36Z"/><path class="cls-2" d="M0,31A2.16,2.16,0,0,0,2.16,28.8,2.16,2.16,0,0,0,0,26.64,2.16,2.16,0,0,0,0,31Z"/><path class="cls-2" d="M0,16.56A2.16,2.16,0,0,0,2.16,14.4,2.16,2.16,0,0,0,0,12.24a2.16,2.16,0,1,0,0,4.32Z"/><path class="cls-2" d="M28.8,2.16A2.16,2.16,0,0,0,31,0a2.16,2.16,0,0,0-4.32,0A2.16,2.16,0,0,0,28.8,2.16Z"/><path class="cls-2" d="M14.4,2.16A2.16,2.16,0,0,0,16.56,0a2.16,2.16,0,1,0-4.32,0A2.16,2.16,0,0,0,14.4,2.16Z"/><path class="cls-2" d="M0,2.16A2.16,2.16,0,0,0,2.16,0,2.16,2.16,0,0,0,0-2.16,2.16,2.16,0,0,0-2.16,0,2.16,2.16,0,0,0,0,2.16Z"/></pattern><pattern id="_10_dpi_40_3" data-name="10 dpi 40% 3" width="28.8" height="28.8" patternTransform="matrix(0.07, -0.02, 0.02, 0.07, -4.47, -5.95)" patternUnits="userSpaceOnUse" viewBox="0 0 28.8 28.8"><rect class="cls-1" width="28.8" height="28.8"/><path class="cls-3" d="M28.8,31.68a2.88,2.88,0,1,0-2.88-2.88A2.88,2.88,0,0,0,28.8,31.68Z"/><path class="cls-3" d="M14.4,31.68a2.88,2.88,0,1,0-2.88-2.88A2.88,2.88,0,0,0,14.4,31.68Z"/><path class="cls-3" d="M28.8,17.28a2.88,2.88,0,1,0-2.88-2.88A2.88,2.88,0,0,0,28.8,17.28Z"/><path class="cls-3" d="M14.4,17.28a2.88,2.88,0,1,0-2.88-2.88A2.88,2.88,0,0,0,14.4,17.28Z"/><path class="cls-3" d="M7.2,24.48A2.88,2.88,0,1,0,4.32,21.6,2.88,2.88,0,0,0,7.2,24.48Z"/><path class="cls-3" d="M21.6,24.48a2.88,2.88,0,1,0-2.88-2.88A2.88,2.88,0,0,0,21.6,24.48Z"/><path class="cls-3" d="M7.2,10.08A2.88,2.88,0,1,0,4.32,7.2,2.88,2.88,0,0,0,7.2,10.08Z"/><path class="cls-3" d="M21.6,10.08A2.88,2.88,0,1,0,18.72,7.2,2.88,2.88,0,0,0,21.6,10.08Z"/><path class="cls-3" d="M0,31.68A2.88,2.88,0,0,0,2.88,28.8,2.88,2.88,0,0,0,0,25.92a2.88,2.88,0,0,0,0,5.76Z"/><path class="cls-3" d="M0,17.28A2.88,2.88,0,0,0,2.88,14.4,2.88,2.88,0,0,0,0,11.52a2.88,2.88,0,0,0,0,5.76Z"/><path class="cls-3" d="M28.8,2.88A2.88,2.88,0,0,0,31.68,0a2.88,2.88,0,0,0-5.76,0A2.88,2.88,0,0,0,28.8,2.88Z"/><path class="cls-3" d="M14.4,2.88A2.88,2.88,0,0,0,17.28,0a2.88,2.88,0,0,0-5.76,0A2.88,2.88,0,0,0,14.4,2.88Z"/><path class="cls-3" d="M0,2.88A2.88,2.88,0,0,0,2.88,0,2.88,2.88,0,0,0,0-2.88,2.88,2.88,0,0,0-2.88,0,2.88,2.88,0,0,0,0,2.88Z"/></pattern></defs><g id="レイヤー_2" data-name="レイヤー 2"><g id="レイヤー_1-2" data-name="レイヤー 1"><path class="cls-4" d="M185.24,38.71c-2.54-4.89-9.93-4.27-13.62-.31a11.86,11.86,0,0,0-1.48-7A4.71,4.71,0,0,0,168,29.88a1.58,1.58,0,0,0-.24-1.83,8.57,8.57,0,0,0-5.34-2.73c4.16-2.54,2.74-7.21-3-9.52,6,0,9-4.87,5.38-9,5.35,2.38,8.83-.77,6.81-6.33,3.71,4.45,11.34,4.89,13.49-.46.72,5.15,4.08,6.3,8.45,2.28-2,4.85,1.24,10.17,6.87,9.43-4.24,2.91-3.65,7.24,1.94,8.15-5.13,1.09-8.82,3.75-4.94,6.91-4.7-.35-4.32,2.72-.5,6.5C191.66,31,185.53,33.36,185.24,38.71Z"/><path class="cls-5" d="M195,36.91c-.86-2.13-.52-3.36,1.21-2.37-1-1.9.85-2.23,3-1.71-2-1.36-1.52-3.11.55-3.43a2.86,2.86,0,0,1-1.12-4.83c-2.29.72-3.38-.32-2.84-2.41-1.66,1.63-4.49.07-5.19-2.29-.11,2.47-1.93,3-3.58,1.15.73,2.23-1.21,3.52-3.47,2.42,1.8,1.92,1.61,3.94-.37,4.14a3.87,3.87,0,0,1,1.59,2,.65.65,0,0,1-.19.74,2.27,2.27,0,0,1,.59,1,4.92,4.92,0,0,1-.55,2.94c2-.83,4.93.29,5.12,2.61C190.62,34.86,193.32,35.09,195,36.91Z"/><path class="cls-6" d="M195,36.91c-.86-2.13-.52-3.36,1.21-2.37-1-1.9.85-2.23,3-1.71-2-1.36-1.52-3.11.55-3.43a2.86,2.86,0,0,1-1.12-4.83c-2.29.72-3.38-.32-2.84-2.41-1.66,1.63-4.49.07-5.19-2.29-.11,2.47-1.93,3-3.58,1.15.73,2.23-1.21,3.52-3.47,2.42,1.8,1.92,1.61,3.94-.37,4.14a3.87,3.87,0,0,1,1.59,2,.65.65,0,0,1-.19.74,2.27,2.27,0,0,1,.59,1,4.92,4.92,0,0,1-.55,2.94c2-.83,4.93.29,5.12,2.61C190.62,34.86,193.32,35.09,195,36.91Z"/><path class="cls-7" d="M34.15,36.58c-3.44,3.74-.57,9.94,4,11.88A11,11,0,0,0,32.55,52,4.36,4.36,0,0,0,32,54.33a1.45,1.45,0,0,0-1.5.79,7.87,7.87,0,0,0-.68,5.49c-3.51-2.8-7.1-.1-7.3,5.56C20.62,61,15.41,59.9,13,64.36,13.35,59,9.52,57,5.35,60.47,8,55.85,6,49.12.69,48.94c4.23-2.25,4.16-5.52-.69-8,4.82.17,8.4-4.28,6-8.92,3.86,2.74,7.41.86,6.43-4.26,2.57,4.1,6,6.44,7.55,2.09,1.18,4.18,3.71,2.88,5.78-1.62C25.44,33.46,29.42,38,34.15,36.58Z"/><path class="cls-8" d="M187.34,43.53l-.1,10.15h-8.48l.11-10.15Zm-8.45-2.37.26-23h8.47l-.26,23Z"/><path class="cls-5" d="M33.48,52.22c-2.43.23-3.61-.52-2.13-2.06-2.22.43-2.08-1.63-1-3.73-1.94,1.68-3.62.63-3.4-1.69a3,3,0,0,1-5.28-.35c.13,2.69-1.25,3.53-3.25,2.28,1.24,2.31-1.13,4.84-3.76,4.84,2.52.91,2.61,3,.23,4.21,2.5-.07,3.31,2.42,1.57,4.49C19,58.9,21,59.76,20.67,62a3.81,3.81,0,0,1,2.5-1.07.72.72,0,0,1,.71.44A2.22,2.22,0,0,1,25,61a5.48,5.48,0,0,1,2.89,1.53c-.31-2.44,1.62-5.19,4.06-4.65C30.2,56.21,31.16,53.39,33.48,52.22Z"/><path class="cls-9" d="M33.48,52.22c-2.43.23-3.61-.52-2.13-2.06-2.22.43-2.08-1.63-1-3.73-1.94,1.68-3.62.63-3.4-1.69a3,3,0,0,1-5.28-.35c.13,2.69-1.25,3.53-3.25,2.28,1.24,2.31-1.13,4.84-3.76,4.84,2.52.91,2.61,3,.23,4.21,2.5-.07,3.31,2.42,1.57,4.49C19,58.9,21,59.76,20.67,62a3.81,3.81,0,0,1,2.5-1.07.72.72,0,0,1,.71.44A2.22,2.22,0,0,1,25,61a5.48,5.48,0,0,1,2.89,1.53c-.31-2.44,1.62-5.19,4.06-4.65C30.2,56.21,31.16,53.39,33.48,52.22Z"/><path class="cls-10" d="M56.68,53.68H20l.2-10.29h36.7ZM56.91,41H20.21l.19-10.29H57.11ZM20.35,28.33,20.55,18h36.7l-.19,10.29Z"/><path class="cls-10" d="M59.38,53.45l.19-10.29H96.28l-.19,10.29Zm.4-25.12L60,18H96.68l-.19,10.29Z"/><path class="cls-10" d="M122.74,43.26,123,28.43H98.9l.19-10.29H135.8l-.6,35.41H98.5l.19-10.29Z"/><path class="cls-10" d="M174.65,53.78H137.94l.2-10.29h36.7Zm.23-12.65h-36.7l.19-10.29h36.71Zm-36.56-12.7.2-10.29h36.7L175,28.43Z"/></g></g></svg>