<svg xmlns="http://www.w3.org/2000/svg" viewBox="0 0 202.35 66.17"><defs><style>.cls-1{fill:#faecec;}.cls-2{fill:#fff;}.cls-3{fill:#cb4042;}.cls-4{fill:#ddb223;}</style></defs><g id="レイヤー_2" data-name="レイヤー 2"><g id="レイヤー_1-2" data-name="レイヤー 1"><path class="cls-1" d="M185.24,38.71c-2.54-4.89-9.93-4.27-13.62-.31a11.86,11.86,0,0,0-1.48-7A4.71,4.71,0,0,0,168,29.88a1.58,1.58,0,0,0-.24-1.83,8.57,8.57,0,0,0-5.34-2.73c4.16-2.54,2.74-7.21-3-9.52,6,0,9-4.87,5.38-9,5.35,2.38,8.83-.77,6.81-6.33,3.71,4.45,11.34,4.89,13.49-.46.72,5.15,4.08,6.3,8.45,2.28-2,4.85,1.24,10.17,6.87,9.43-4.24,2.91-3.65,7.24,1.94,8.15-5.13,1.09-8.82,3.75-4.94,6.91-4.7-.35-4.32,2.72-.5,6.5C191.66,31,185.53,33.36,185.24,38.71Z"/><path class="cls-2" d="M195,36.91c-.86-2.13-.52-3.36,1.21-2.37-1-1.9.85-2.23,3-1.71-2-1.36-1.52-3.11.55-3.43a2.86,2.86,0,0,1-1.12-4.83c-2.29.72-3.38-.32-2.84-2.41-1.66,1.63-4.49.07-5.19-2.29-.11,2.47-1.93,3-3.58,1.15.73,2.23-1.21,3.52-3.47,2.42,1.8,1.92,1.61,3.94-.37,4.14a3.87,3.87,0,0,1,1.59,2,.65.65,0,0,1-.19.74,2.27,2.27,0,0,1,.59,1,4.92,4.92,0,0,1-.55,2.94c2-.83,4.93.29,5.12,2.61C190.62,34.86,193.32,35.09,195,36.91Z"/><path class="cls-3" d="M198.22,32a1.75,1.75,0,0,1-.23-.42.26.26,0,0,0-.05.33A.27.27,0,0,0,198.22,32Z"/><path class="cls-3" d="M194.77,36.37c-.06-.16-.1-.32-.14-.47a.28.28,0,0,0-.07.37A.25.25,0,0,0,194.77,36.37Z"/><path class="cls-3" d="M193.78,35.74a.23.23,0,0,0-.43,0,3,3,0,0,1,.44.22A.23.23,0,0,0,193.78,35.74Z"/><path class="cls-3" d="M192.2,35.43h0s0,0,0,0a2.63,2.63,0,0,1,.39.06v0A.27.27,0,0,0,192.2,35.43Z"/><path class="cls-3" d="M198.78,29.51a.27.27,0,1,0-.37-.07A.27.27,0,0,0,198.78,29.51Z"/><path class="cls-3" d="M197.56,29.27a.26.26,0,0,0-.29-.44.26.26,0,0,0-.07.37A.26.26,0,0,0,197.56,29.27Z"/><path class="cls-3" d="M199.68,29.4l0,0,0,0Z"/><path class="cls-3" d="M197.8,28.05a.25.25,0,0,0,.08-.28l0-.09a.25.25,0,0,0-.35-.06.26.26,0,0,0-.07.36A.26.26,0,0,0,197.8,28.05Z"/><path class="cls-3" d="M195.11,33.47h0a.25.25,0,0,0-.07.36h0a.26.26,0,0,0,.36.07h0a.26.26,0,1,0-.29-.43Z"/><path class="cls-3" d="M196.92,32.56a.25.25,0,0,0-.36-.07.24.24,0,0,0-.08.3,1.91,1.91,0,0,1,.46-.14A.15.15,0,0,0,196.92,32.56Z"/><path class="cls-3" d="M195.94,31.1a.26.26,0,0,0-.36-.07.27.27,0,0,0-.07.37.26.26,0,0,0,.36.07A.27.27,0,0,0,195.94,31.1Z"/><path class="cls-3" d="M194.66,31.23a.26.26,0,0,0,.07-.36.27.27,0,0,0-.37-.07.26.26,0,0,0-.07.36A.27.27,0,0,0,194.66,31.23Z"/><path class="cls-3" d="M195.64,32.69a.27.27,0,1,0-.3-.44.27.27,0,1,0,.3.44Z"/><path class="cls-3" d="M195.81,29.82a.26.26,0,0,0-.07.36.27.27,0,0,0,.37.07.26.26,0,0,0,.07-.36A.27.27,0,0,0,195.81,29.82Z"/><path class="cls-3" d="M197.09,31.7a.26.26,0,0,0,.07-.36.27.27,0,0,0-.37-.07.26.26,0,0,0-.07.36A.26.26,0,0,0,197.09,31.7Z"/><path class="cls-3" d="M197,30.42a.26.26,0,0,0,.36.07h0a.26.26,0,0,0,.08-.37.27.27,0,0,0-.37-.07h0A.27.27,0,0,0,197,30.42Z"/><path class="cls-3" d="M196.34,29h0a.26.26,0,0,0,.07-.37.26.26,0,0,0-.36-.07h0a.26.26,0,0,0,.29.44Z"/><path class="cls-3" d="M191.59,34.05a.27.27,0,0,0-.37-.07h0a.26.26,0,1,0,.29.43h0A.25.25,0,0,0,191.59,34.05Z"/><path class="cls-3" d="M193.65,34.45a.26.26,0,0,0-.07.36.26.26,0,0,0,.37.07.26.26,0,0,0,.07-.36A.27.27,0,0,0,193.65,34.45Z"/><path class="cls-3" d="M192.67,33a.26.26,0,0,0-.07.36.27.27,0,0,0,.37.07.26.26,0,0,0,.07-.36A.26.26,0,0,0,192.67,33Z"/><path class="cls-3" d="M191.75,33.2a.27.27,0,0,0,.07-.37.26.26,0,0,0-.36-.07.26.26,0,0,0,.29.44Z"/><path class="cls-3" d="M192.73,34.65a.27.27,0,0,0,.07-.37.26.26,0,0,0-.36-.07.27.27,0,0,0-.07.37A.26.26,0,0,0,192.73,34.65Z"/><path class="cls-3" d="M193.27,31.85a.26.26,0,1,0-.43.29.25.25,0,0,0,.36.07A.26.26,0,0,0,193.27,31.85Z"/><path class="cls-3" d="M194.18,33.67a.26.26,0,0,0,.07-.37.26.26,0,0,0-.36-.07.27.27,0,0,0-.07.37A.26.26,0,0,0,194.18,33.67Z"/><path class="cls-3" d="M190.6,32.59a.26.26,0,0,0-.36-.07h0a.27.27,0,0,0-.07.37.26.26,0,0,0,.36.07h0A.26.26,0,0,0,190.6,32.59Z"/><path class="cls-3" d="M194.42,32.45h0a.26.26,0,0,0,.07-.36.25.25,0,0,0-.36-.08h0a.26.26,0,1,0,.29.44Z"/><path class="cls-3" d="M193.44,31h0a.27.27,0,1,0-.3-.44h0a.27.27,0,0,0,.3.44Z"/><path class="cls-3" d="M190.06,35.39a.26.26,0,1,0-.36-.07A.25.25,0,0,0,190.06,35.39Z"/><path class="cls-3" d="M188.92,34.79a.27.27,0,0,0-.37-.07l0,.06a3.8,3.8,0,0,1,.37.33A.26.26,0,0,0,188.92,34.79Z"/><path class="cls-3" d="M189.9,36.25a.27.27,0,0,0-.37-.08h0a2.47,2.47,0,0,1,.11.47.23.23,0,0,0,.18,0,1.3,1.3,0,0,0,.1-.15A.22.22,0,0,0,189.9,36.25Z"/><path class="cls-3" d="M190.37,33.81a.27.27,0,1,0-.07.37A.27.27,0,0,0,190.37,33.81Z"/><path class="cls-3" d="M191.35,35.26a.27.27,0,0,0-.44.3.26.26,0,0,0,.11.07,2,2,0,0,1,.34-.12A.28.28,0,0,0,191.35,35.26Z"/><path class="cls-3" d="M196.45,26.53a.27.27,0,0,0,.37.07.26.26,0,0,0,.07-.36.26.26,0,0,0-.37-.07A.26.26,0,0,0,196.45,26.53Z"/><path class="cls-3" d="M195.6,26.37a.27.27,0,0,0-.3-.44.26.26,0,0,0-.07.36A.26.26,0,0,0,195.6,26.37Z"/><path class="cls-3" d="M196.21,27.75a.27.27,0,1,0,.44-.3.26.26,0,0,0-.36-.07A.26.26,0,0,0,196.21,27.75Z"/><path class="cls-3" d="M197.05,25.38a.26.26,0,0,0-.29-.43.26.26,0,1,0,.29.43Z"/><path class="cls-3" d="M197.67,26.77h0c0-.08,0-.17,0-.25A.23.23,0,0,0,197.67,26.77Z"/><path class="cls-3" d="M195.83,25.15a.26.26,0,0,0,.07-.37.26.26,0,0,0-.36-.07.27.27,0,0,0-.07.37A.26.26,0,0,0,195.83,25.15Z"/><path class="cls-3" d="M198.09,25.16a.5.5,0,0,0-.12,0h0a.27.27,0,0,0-.07.37h0A3.39,3.39,0,0,1,198.09,25.16Z"/><path class="cls-3" d="M194.6,29.58a.26.26,0,0,0-.07.37.26.26,0,0,0,.36.07.27.27,0,0,0,.07-.37A.26.26,0,0,0,194.6,29.58Z"/><path class="cls-3" d="M193.62,28.13a.26.26,0,1,0,.36.07A.26.26,0,0,0,193.62,28.13Z"/><path class="cls-3" d="M192.69,28.33a.26.26,0,0,0,.07-.37.26.26,0,0,0-.36-.07.27.27,0,0,0-.07.37A.26.26,0,0,0,192.69,28.33Z"/><path class="cls-3" d="M193.67,29.78a.25.25,0,0,0,.07-.36.26.26,0,0,0-.36-.08.27.27,0,0,0-.07.37A.26.26,0,0,0,193.67,29.78Z"/><path class="cls-3" d="M194.22,27a.27.27,0,1,0-.07.37A.27.27,0,0,0,194.22,27Z"/><path class="cls-3" d="M195.13,28.8a.27.27,0,1,0-.37-.07A.27.27,0,0,0,195.13,28.8Z"/><path class="cls-3" d="M191.55,27.73a.27.27,0,0,0-.37-.07h0a.26.26,0,0,0-.07.36h0a.27.27,0,0,0,.37.07h0A.26.26,0,0,0,191.55,27.73Z"/><path class="cls-3" d="M195.36,27.58h0a.26.26,0,0,0-.29-.43h0a.26.26,0,0,0,.29.43Z"/><path class="cls-3" d="M194.38,26.13h0a.25.25,0,0,0,.11-.17.25.25,0,0,0,0-.2.26.26,0,0,0-.36-.07h0a.26.26,0,0,0-.07.37.25.25,0,0,0,.16.11A.28.28,0,0,0,194.38,26.13Z"/><path class="cls-3" d="M189.55,31.51a.27.27,0,0,0,.07-.37.26.26,0,0,0-.36-.07h0a.27.27,0,0,0-.07.37.26.26,0,0,0,.36.07Z"/><path class="cls-3" d="M191.69,31.54a.27.27,0,1,0,.37.07A.27.27,0,0,0,191.69,31.54Z"/><path class="cls-3" d="M190.71,30.09a.27.27,0,0,0-.07.37.26.26,0,0,0,.36.07.27.27,0,0,0,.08-.37A.27.27,0,0,0,190.71,30.09Z"/><path class="cls-3" d="M189.79,30.29a.26.26,0,0,0,.07-.36.26.26,0,1,0-.07.36Z"/><path class="cls-3" d="M190.77,31.74a.26.26,0,0,0,.07-.36.27.27,0,0,0-.37-.07.26.26,0,0,0-.07.36A.27.27,0,0,0,190.77,31.74Z"/><path class="cls-3" d="M191.31,28.94a.26.26,0,0,0-.36-.07.26.26,0,0,0-.07.37.26.26,0,0,0,.36.07A.27.27,0,0,0,191.31,28.94Z"/><path class="cls-3" d="M192.22,30.76a.26.26,0,0,0,.07-.36.25.25,0,0,0-.36-.07.26.26,0,0,0,.29.43Z"/><path class="cls-3" d="M192.46,29.55h0a.27.27,0,1,0-.3-.44h0a.26.26,0,0,0-.07.36.27.27,0,0,0,.37.08Z"/><path class="cls-3" d="M188.79,33.51a.25.25,0,0,0-.11.16.24.24,0,0,0,0,.2.26.26,0,0,0,.43-.29A.25.25,0,0,0,188.79,33.51Z"/><path class="cls-3" d="M188.1,32.49a.27.27,0,0,0,.07-.37.26.26,0,0,0-.36-.07.26.26,0,0,0-.08.37A.27.27,0,0,0,188.1,32.49Z"/><path class="cls-3" d="M186.59,31.82a.26.26,0,1,0,.36.07A.26.26,0,0,0,186.59,31.82Z"/><path class="cls-3" d="M187.93,33.34a.26.26,0,1,0-.07.37A.26.26,0,0,0,187.93,33.34Z"/><path class="cls-3" d="M188.41,30.91a.26.26,0,0,0-.37-.07.26.26,0,0,0-.07.36.27.27,0,0,0,.37.07A.26.26,0,0,0,188.41,30.91Z"/><path class="cls-3" d="M189.39,32.36a.27.27,0,0,0-.37-.07.26.26,0,0,0-.07.36.26.26,0,0,0,.37.07A.26.26,0,0,0,189.39,32.36Z"/><path class="cls-3" d="M185.74,31.65a.27.27,0,0,0-.37-.07h0a.27.27,0,0,0-.07.37h0a.27.27,0,0,0,.37.07h0A.27.27,0,0,0,185.74,31.65Z"/><path class="cls-3" d="M188.57,30.05h0a.25.25,0,0,0,.11-.16.28.28,0,0,0,0-.2.26.26,0,0,0-.36-.07h0a.25.25,0,0,0-.07.36.31.31,0,0,0,.16.12A.24.24,0,0,0,188.57,30.05Z"/><path class="cls-3" d="M184.9,34a.23.23,0,0,0-.08.11l.37-.09A.23.23,0,0,0,184.9,34Z"/><path class="cls-3" d="M185.43,33.23a.26.26,0,0,0-.29-.43.26.26,0,1,0,.29.43Z"/><path class="cls-3" d="M186.65,33.47h0a.27.27,0,0,0-.3-.44h0a.27.27,0,1,0,.3.44Z"/><path class="cls-3" d="M194.56,23.26a.27.27,0,0,0-.07.37.26.26,0,0,0,.36.07.27.27,0,0,0,.07-.37A.26.26,0,0,0,194.56,23.26Z"/><path class="cls-3" d="M193.34,23a.27.27,0,1,0,.3.44.26.26,0,0,0,.07-.36A.27.27,0,0,0,193.34,23Z"/><path class="cls-3" d="M194.25,24.84a.27.27,0,0,0,.37.07.26.26,0,0,0,.07-.36.27.27,0,0,0-.37-.07A.26.26,0,0,0,194.25,24.84Z"/><path class="cls-3" d="M195.68,23.72a.22.22,0,0,0,0,.14l0,0A1.42,1.42,0,0,1,195.68,23.72Z"/><path class="cls-3" d="M190.2,26.2h0a.27.27,0,0,0-.07.37.27.27,0,0,0,.37.07h0a.27.27,0,0,0,.07-.37.27.27,0,0,0-.37-.07Z"/><path class="cls-3" d="M192.63,26.68a.29.29,0,0,0-.11.16.28.28,0,0,0,0,.2.27.27,0,0,0,.37.07.26.26,0,0,0,.07-.36A.26.26,0,0,0,192.63,26.68Z"/><path class="cls-3" d="M191.58,25.59a.27.27,0,1,0,.07-.37A.27.27,0,0,0,191.58,25.59Z"/><path class="cls-3" d="M190.73,25.42a.26.26,0,0,0-.29-.43.25.25,0,0,0-.07.36A.26.26,0,0,0,190.73,25.42Z"/><path class="cls-3" d="M191.35,26.8a.26.26,0,0,0,.36.08.27.27,0,0,0,.07-.37.26.26,0,1,0-.43.29Z"/><path class="cls-3" d="M191.89,24a.26.26,0,1,0,.29.43.26.26,0,1,0-.29-.43Z"/><path class="cls-3" d="M193.16,25.89a.26.26,0,0,0,.08-.36.27.27,0,0,0-.37-.07.26.26,0,0,0-.07.36A.25.25,0,0,0,193.16,25.89Z"/><path class="cls-3" d="M193,24.61a.26.26,0,0,0,.36.07h0a.27.27,0,0,0,.07-.37.26.26,0,0,0-.36-.07h0A.26.26,0,0,0,193,24.61Z"/><path class="cls-3" d="M192.42,23.22h0a.26.26,0,0,0,.07-.36.27.27,0,0,0-.37-.07h0a.26.26,0,0,0-.07.36A.26.26,0,0,0,192.42,23.22Z"/><path class="cls-3" d="M189.73,28.64a.26.26,0,1,0,.29.43.25.25,0,0,0,.07-.36A.26.26,0,0,0,189.73,28.64Z"/><path class="cls-3" d="M188.68,27.55a.26.26,0,1,0,.43-.29.25.25,0,0,0-.36-.07A.26.26,0,0,0,188.68,27.55Z"/><path class="cls-3" d="M187.53,27a.26.26,0,0,0-.07.36.26.26,0,1,0,.07-.36Z"/><path class="cls-3" d="M188.44,28.77a.27.27,0,1,0,.07-.37A.27.27,0,0,0,188.44,28.77Z"/><path class="cls-3" d="M189,26a.26.26,0,0,0-.07.36.26.26,0,0,0,.37.07.26.26,0,0,0,.07-.36A.27.27,0,0,0,189,26Z"/><path class="cls-3" d="M190,27.42a.27.27,0,1,0,.37.07A.27.27,0,0,0,190,27.42Z"/><path class="cls-3" d="M188.06,26.17a.27.27,0,0,0,.07-.37.26.26,0,0,0-.36-.07.26.26,0,0,0-.07.37A.26.26,0,0,0,188.06,26.17Z"/><path class="cls-3" d="M189.51,25.19h0a.26.26,0,0,0,.07-.37.26.26,0,0,0-.36-.07h0a.27.27,0,0,0-.07.37A.26.26,0,0,0,189.51,25.19Z"/><path class="cls-3" d="M184.76,30.2a.53.53,0,0,0-.1-.06.9.9,0,0,1-.15.19,1.41,1.41,0,0,1,.19.21A.26.26,0,0,0,184.76,30.2Z"/><path class="cls-3" d="M186.82,30.6a.27.27,0,1,0,.3.44.27.27,0,0,0-.3-.44Z"/><path class="cls-3" d="M186.14,29.58a.26.26,0,0,0,.07-.36.27.27,0,0,0-.37-.07.26.26,0,0,0-.07.36A.27.27,0,0,0,186.14,29.58Z"/><path class="cls-3" d="M184.63,28.91a.26.26,0,0,0-.07.37.26.26,0,0,0,.36.07A.27.27,0,0,0,185,29,.26.26,0,0,0,184.63,28.91Z"/><path class="cls-3" d="M185.54,30.73a.26.26,0,0,0,.43-.29.25.25,0,0,0-.36-.08A.27.27,0,0,0,185.54,30.73Z"/><path class="cls-3" d="M186.08,27.93a.27.27,0,0,0-.07.37.26.26,0,0,0,.36.07.27.27,0,0,0,.07-.37A.26.26,0,0,0,186.08,27.93Z"/><path class="cls-3" d="M187.06,29.38a.27.27,0,0,0-.07.37.26.26,0,0,0,.36.07.26.26,0,0,0,.07-.37A.26.26,0,0,0,187.06,29.38Z"/><path class="cls-3" d="M185.16,28.13a.26.26,0,0,0,.07-.36.26.26,0,0,0-.37-.07.26.26,0,0,0-.07.36A.27.27,0,0,0,185.16,28.13Z"/><path class="cls-3" d="M187.22,28.53a.27.27,0,0,0,.37.07h0a.26.26,0,0,0-.29-.43h0A.26.26,0,0,0,187.22,28.53Z"/><path class="cls-3" d="M191.14,21.34h0a.26.26,0,0,0-.07.36.27.27,0,0,0,.37.07h0a.29.29,0,0,0,.11-.16l-.26-.3a.27.27,0,0,0-.15,0Z"/><path class="cls-3" d="M188.24,23.3h0a.26.26,0,0,0-.07.36.25.25,0,0,0,.36.07h0a.26.26,0,1,0-.29-.43Z"/><path class="cls-3" d="M190.67,23.77a.27.27,0,1,0,.37.07A.27.27,0,0,0,190.67,23.77Z"/><path class="cls-3" d="M189.69,22.32a.26.26,0,0,0-.07.36.27.27,0,0,0,.37.07.26.26,0,0,0,.07-.36A.27.27,0,0,0,189.69,22.32Z"/><path class="cls-3" d="M188.77,22.52a.27.27,0,0,0,.07-.37s0,0,0,0a1.88,1.88,0,0,1-.33-.05h0a.27.27,0,1,0,.3.44Z"/><path class="cls-3" d="M189.75,24a.26.26,0,0,0-.29-.44.27.27,0,0,0-.08.37A.27.27,0,0,0,189.75,24Z"/><path class="cls-3" d="M190.22,21.54a.27.27,0,0,0,.07-.37l0,0a2.42,2.42,0,0,1-.24.42A.26.26,0,0,0,190.22,21.54Z"/><path class="cls-3" d="M190.91,22.55a.27.27,0,0,0-.07.37.26.26,0,0,0,.36.07.27.27,0,0,0,.07-.37A.26.26,0,0,0,190.91,22.55Z"/><path class="cls-3" d="M186.31,26.71h0a.32.32,0,0,0-.11.17.28.28,0,0,0,0,.2.27.27,0,0,0,.37.07h0a.27.27,0,0,0-.3-.44Z"/><path class="cls-3" d="M187.08,24.72a.27.27,0,0,0,.07-.37.26.26,0,1,0-.07.37Z"/><path class="cls-3" d="M185.57,24a.27.27,0,0,0-.07.37.26.26,0,0,0,.36.07.26.26,0,0,0-.29-.44Z"/><path class="cls-3" d="M186.48,25.86a.26.26,0,0,0,.44-.29.27.27,0,0,0-.37-.07A.26.26,0,0,0,186.48,25.86Z"/><path class="cls-3" d="M187,23.06a.27.27,0,1,0,.37.07A.27.27,0,0,0,187,23.06Z"/><path class="cls-3" d="M188,24.52a.26.26,0,0,0-.07.36.27.27,0,0,0,.37.07.26.26,0,0,0,.07-.36A.26.26,0,0,0,188,24.52Z"/><path class="cls-3" d="M183.65,27.46a.25.25,0,0,0-.08.36.26.26,0,1,0,.44-.29A.26.26,0,0,0,183.65,27.46Z"/><path class="cls-3" d="M185.1,26.48a.26.26,0,0,0-.07.36.25.25,0,0,0,.36.07.26.26,0,0,0-.29-.43Z"/><path class="cls-3" d="M185.26,25.63a.27.27,0,0,0,.37.07h0a.27.27,0,0,0-.3-.44h0A.27.27,0,0,0,185.26,25.63Z"/><path class="cls-3" d="M190.49,20.27a.26.26,0,0,0,0-.32h0A3.16,3.16,0,0,1,190.49,20.27Z"/><path class="cls-3" d="M184.35,23.81h0a.26.26,0,0,0-.07.36.26.26,0,0,0,.37.07h0a.26.26,0,0,0,.07-.36.18.18,0,0,0-.13-.08l-.09,0a.27.27,0,0,0-.15,0Z"/><path class="cls-3" d="M187.19,22.21a.26.26,0,0,0,.36.07h0a.26.26,0,0,0-.29-.43h0A.26.26,0,0,0,187.19,22.21Z"/><path class="cls-1" d="M34.15,36.58c-3.44,3.74-.57,9.94,4,11.88A11,11,0,0,0,32.55,52,4.36,4.36,0,0,0,32,54.33a1.45,1.45,0,0,0-1.5.79,7.87,7.87,0,0,0-.68,5.49c-3.51-2.8-7.1-.1-7.3,5.56C20.62,61,15.41,59.9,13,64.36,13.35,59,9.52,57,5.35,60.47,8,55.85,6,49.12.69,48.94c4.23-2.25,4.16-5.52-.69-8,4.82.17,8.4-4.28,6-8.92,3.86,2.74,7.41.86,6.43-4.26,2.57,4.1,6,6.44,7.55,2.09,1.18,4.18,3.71,2.88,5.78-1.62C25.44,33.46,29.42,38,34.15,36.58Z"/><path class="cls-4" d="M187.34,44l-.1,10.15h-8.48L178.87,44Zm-8.45-2.36.26-23h8.47l-.26,23Z"/><path class="cls-2" d="M33.48,52.22c-2.43.23-3.61-.52-2.13-2.06-2.22.43-2.08-1.63-1-3.73-1.94,1.68-3.62.63-3.4-1.69a3,3,0,0,1-5.28-.35c.13,2.69-1.25,3.53-3.25,2.28,1.24,2.31-1.13,4.84-3.76,4.84,2.52.91,2.61,3,.23,4.21,2.5-.07,3.31,2.42,1.57,4.49C19,58.9,21,59.76,20.67,62a3.81,3.81,0,0,1,2.5-1.07.72.72,0,0,1,.71.44A2.22,2.22,0,0,1,25,61a5.48,5.48,0,0,1,2.89,1.53c-.31-2.44,1.62-5.19,4.06-4.65C30.2,56.21,31.16,53.39,33.48,52.22Z"/><path class="cls-3" d="M32.35,52.25a.22.22,0,0,0,0,.14.2.2,0,0,0,.26.13.21.21,0,0,0,.12-.26h-.37Z"/><path class="cls-3" d="M30.38,46.43h0Z"/><path class="cls-3" d="M29.11,47.38a.21.21,0,0,0,.25.14.2.2,0,0,0,.12-.26.19.19,0,0,0-.23-.14h0A.19.19,0,0,0,29.11,47.38Z"/><path class="cls-3" d="M30.17,46.81a.2.2,0,0,0-.12.26l0,0,.12-.28A0,0,0,0,0,30.17,46.81Z"/><path class="cls-3" d="M29.44,48.38a.2.2,0,0,0,.2.13c0-.12,0-.25.07-.38a.19.19,0,0,0-.15,0A.2.2,0,0,0,29.44,48.38Z"/><path class="cls-3" d="M29.92,47.47h-.05a.2.2,0,0,0-.12.1.29.29,0,0,0,0,.16.55.55,0,0,0,.06.08Z"/><path class="cls-3" d="M30.86,50.45a.2.2,0,0,0-.12.26.19.19,0,0,0,.11.12,2.36,2.36,0,0,1,.2-.32A.18.18,0,0,0,30.86,50.45Z"/><path class="cls-3" d="M30.44,51.36a.2.2,0,0,0,.25.14l0,0a.74.74,0,0,1,0-.33.18.18,0,0,0-.17,0A.2.2,0,0,0,30.44,51.36Z"/><path class="cls-3" d="M30.36,50.5a.2.2,0,0,0,.12-.26s0-.05-.06-.07l-.19-.06h0a.21.21,0,0,0-.13.26A.2.2,0,0,0,30.36,50.5Z"/><path class="cls-3" d="M31.33,50.16l-.15,0a.25.25,0,0,0,.12,0Z"/><path class="cls-3" d="M31.73,53.7h0l.2-.27s-.06,0-.09,0A.22.22,0,0,0,31.73,53.7Z"/><path class="cls-3" d="M31.78,52.58a.2.2,0,1,0-.38.12.2.2,0,1,0,.38-.12Z"/><path class="cls-3" d="M31.22,53.09a.2.2,0,0,0-.12.26.2.2,0,0,0,.25.14.19.19,0,0,0,.12-.26A.2.2,0,0,0,31.22,53.09Z"/><path class="cls-3" d="M32.16,52.78A.2.2,0,0,0,32,53a.2.2,0,0,0,.15.13l.22-.21s0,0,0,0A.2.2,0,0,0,32.16,52.78Z"/><path class="cls-3" d="M30.89,52.1a.19.19,0,0,0-.12.26.2.2,0,0,0,.25.14.22.22,0,0,0,.12-.27A.19.19,0,0,0,30.89,52.1Z"/><path class="cls-3" d="M31.44,54.25a.42.42,0,0,1,0-.1A.18.18,0,0,0,31.44,54.25Z"/><path class="cls-3" d="M26.87,45.36a.24.24,0,0,0,.11.13c0-.12,0-.24,0-.36A.2.2,0,0,0,26.87,45.36Z"/><path class="cls-3" d="M26.69,45.75a.21.21,0,0,0-.12.27.19.19,0,0,0,.25.13.2.2,0,0,0,.12-.26A.2.2,0,0,0,26.69,45.75Z"/><path class="cls-3" d="M26.38,46.41a.21.21,0,0,0-.12.26.2.2,0,1,0,.38-.12A.21.21,0,0,0,26.38,46.41Z"/><path class="cls-3" d="M27.87,48.19a.22.22,0,0,0,0,.16.2.2,0,0,0,.25.14.22.22,0,0,0,.12-.27.23.23,0,0,0-.1-.12.2.2,0,0,0-.15,0A.17.17,0,0,0,27.87,48.19Z"/><path class="cls-3" d="M27.66,47.09a.21.21,0,0,0-.13.26.22.22,0,0,0,.26.14.2.2,0,0,0,.12-.26A.21.21,0,0,0,27.66,47.09Z"/><path class="cls-3" d="M27.35,47.75a.2.2,0,0,0-.12.26.19.19,0,0,0,.25.13.21.21,0,0,0,.13-.26A.2.2,0,0,0,27.35,47.75Z"/><path class="cls-3" d="M28.29,47.43a.2.2,0,0,0-.12.26.2.2,0,0,0,.25.14.19.19,0,0,0,.12-.26A.2.2,0,0,0,28.29,47.43Z"/><path class="cls-3" d="M27,46.75a.2.2,0,0,0-.12.26.2.2,0,0,0,.25.14.2.2,0,0,0,.12-.26A.2.2,0,0,0,27,46.75Z"/><path class="cls-3" d="M26.72,47.4a.22.22,0,0,0-.13.27.2.2,0,1,0,.38-.13A.21.21,0,0,0,26.72,47.4Z"/><path class="cls-3" d="M27.2,46.33s0,0,0,0l0,0Z"/><path class="cls-3" d="M28.65,50.08a.2.2,0,0,0-.12.26.2.2,0,1,0,.37-.13A.19.19,0,0,0,28.65,50.08Z"/><path class="cls-3" d="M29.26,48.77a.19.19,0,0,0-.12.26.2.2,0,1,0,.12-.26Z"/><path class="cls-3" d="M28.32,49.08a.21.21,0,0,0,.13.4.2.2,0,0,0,.12-.26A.2.2,0,0,0,28.32,49.08Z"/><path class="cls-3" d="M28,49.74a.21.21,0,0,0-.12.26.2.2,0,1,0,.12-.26Z"/><path class="cls-3" d="M28.83,49.69a.2.2,0,0,0,.26.13.21.21,0,0,0,.12-.26.22.22,0,0,0-.26-.14A.23.23,0,0,0,28.83,49.69Z"/><path class="cls-3" d="M27.68,48.74a.2.2,0,0,0-.12.26.2.2,0,1,0,.12-.26Z"/><path class="cls-3" d="M28.62,48.43a.2.2,0,0,0-.12.26.21.21,0,0,0,.25.14.22.22,0,0,0,.13-.27A.2.2,0,0,0,28.62,48.43Z"/><path class="cls-3" d="M29.06,48.17a.2.2,0,0,0,.12-.26.21.21,0,0,0-.25-.14.22.22,0,0,0-.13.27A.2.2,0,0,0,29.06,48.17Z"/><path class="cls-3" d="M29.8,51a.2.2,0,1,0,.38-.12.22.22,0,0,0-.26-.14A.2.2,0,0,0,29.8,51Z"/><path class="cls-3" d="M29,51.07a.22.22,0,0,0-.12.27.19.19,0,0,0,.25.13.21.21,0,0,0,.13-.26A.22.22,0,0,0,29,51.07Z"/><path class="cls-3" d="M28.68,51.73a.19.19,0,0,0-.12.26.2.2,0,0,0,.25.14.22.22,0,0,0,.12-.27A.19.19,0,0,0,28.68,51.73Z"/><path class="cls-3" d="M29.5,51.68a.19.19,0,0,0,.25.13.2.2,0,0,0,.12-.26.2.2,0,1,0-.37.13Z"/><path class="cls-3" d="M28.35,50.73a.21.21,0,0,0,.13.4.2.2,0,0,0,.12-.26A.21.21,0,0,0,28.35,50.73Z"/><path class="cls-3" d="M29.29,50.42a.21.21,0,0,0-.13.26.22.22,0,0,0,.26.14.2.2,0,0,0,.12-.26A.2.2,0,0,0,29.29,50.42Z"/><path class="cls-3" d="M28,51.39a.21.21,0,0,0,.14.39.21.21,0,0,0,.12-.26A.2.2,0,0,0,28,51.39Z"/><path class="cls-3" d="M29.47,50a.19.19,0,0,0,.25.13h0a.19.19,0,0,0,.12-.1.22.22,0,0,0,0-.16h0a.19.19,0,0,0-.25-.13A.2.2,0,0,0,29.47,50Z"/><path class="cls-3" d="M30.58,52.75a.21.21,0,0,0,.14.4.2.2,0,0,0,.12-.26A.22.22,0,0,0,30.58,52.75Z"/><path class="cls-3" d="M29.65,53.06a.22.22,0,0,0-.13.27.2.2,0,1,0,.38-.13A.21.21,0,0,0,29.65,53.06Z"/><path class="cls-3" d="M29.47,54.12a.21.21,0,0,0-.13-.4.2.2,0,0,0-.12.26A.21.21,0,0,0,29.47,54.12Z"/><path class="cls-3" d="M30.16,53.67a.2.2,0,1,0,.37-.13.19.19,0,0,0-.25-.13A.2.2,0,0,0,30.16,53.67Z"/><path class="cls-3" d="M29.26,52.86a.2.2,0,0,0-.25-.14.21.21,0,0,0-.12.26.2.2,0,0,0,.25.14A.19.19,0,0,0,29.26,52.86Z"/><path class="cls-3" d="M30,52.41a.2.2,0,0,0-.12.26.2.2,0,0,0,.25.14.2.2,0,0,0,.12-.26A.2.2,0,0,0,30,52.41Z"/><path class="cls-3" d="M30.39,52.15a.16.16,0,0,0,.11-.1.22.22,0,0,0,0-.16.2.2,0,1,0-.38.13.24.24,0,0,0,.1.12A.22.22,0,0,0,30.39,52.15Z"/><path class="cls-3" d="M29.45,52.47a.21.21,0,0,0,.12-.26.2.2,0,1,0-.38.12A.22.22,0,0,0,29.45,52.47Z"/><path class="cls-3" d="M31.13,55s0,0,0,0a2.76,2.76,0,0,1,.08-.27A.19.19,0,0,0,31.13,55Z"/><path class="cls-3" d="M30.44,55.45a.2.2,0,0,0,.12-.26.2.2,0,1,0-.12.26Z"/><path class="cls-3" d="M30.14,56.11a.2.2,0,0,0,.12-.26.22.22,0,0,0-.26-.14.21.21,0,0,0-.12.26A.22.22,0,0,0,30.14,56.11Z"/><path class="cls-3" d="M31.06,55.79a2.53,2.53,0,0,1,0-.38.2.2,0,0,0-.15,0,.21.21,0,0,0-.12.26A.2.2,0,0,0,31.06,55.79Z"/><path class="cls-3" d="M29.93,54.85a.2.2,0,1,0-.38.13.2.2,0,0,0,.26.13A.21.21,0,0,0,29.93,54.85Z"/><path class="cls-3" d="M30.74,54.8a.21.21,0,0,0,.13-.26.22.22,0,0,0-.26-.14.2.2,0,0,0-.12.26A.21.21,0,0,0,30.74,54.8Z"/><path class="cls-3" d="M31.05,54.15a.22.22,0,0,0,.12-.27.19.19,0,0,0-.25-.13.21.21,0,0,0-.13.26A.22.22,0,0,0,31.05,54.15Z"/><path class="cls-3" d="M30.11,54.46a.2.2,0,0,0,.12-.26h0a.21.21,0,0,0-.25-.14.24.24,0,0,0-.12.1.22.22,0,0,0,0,.16A.2.2,0,0,0,30.11,54.46Z"/><path class="cls-3" d="M31.1,57.44a.21.21,0,0,0,.13-.26.2.2,0,1,0-.38.13A.19.19,0,0,0,31.1,57.44Z"/><path class="cls-3" d="M30.67,57.7a.19.19,0,0,0-.12.23,2.22,2.22,0,0,1,.37-.09h0A.2.2,0,0,0,30.67,57.7Z"/><path class="cls-3" d="M31.74,57.79a.2.2,0,0,0,.09-.09,2.17,2.17,0,0,1-.24-.29.18.18,0,0,0-.1.24A.2.2,0,0,0,31.74,57.79Z"/><path class="cls-3" d="M30.47,57.1a.2.2,0,0,0,.12-.26.19.19,0,0,0-.25-.13.21.21,0,0,0,.13.39Z"/><path class="cls-3" d="M31.16,56.52a.29.29,0,0,0,0,.13.27.27,0,0,0,.08.1C31.21,56.67,31.18,56.6,31.16,56.52Z"/><path class="cls-3" d="M30.77,56.45a.2.2,0,0,0,.12-.26.2.2,0,1,0-.37.12A.21.21,0,0,0,30.77,56.45Z"/><path class="cls-3" d="M25.44,46.72a.21.21,0,0,0,.14.4.2.2,0,0,0,.12-.26A.22.22,0,0,0,25.44,46.72Z"/><path class="cls-3" d="M26,45.74a.18.18,0,0,0,.2.07.21.21,0,0,0,.12-.26l0,0Z"/><path class="cls-3" d="M25.25,46.12a.16.16,0,0,0,.07-.07,1.8,1.8,0,0,1-.22.06A.19.19,0,0,0,25.25,46.12Z"/><path class="cls-3" d="M24.81,46.38a.21.21,0,0,0,.13.4.2.2,0,0,0,.12-.26A.2.2,0,0,0,24.81,46.38Z"/><path class="cls-3" d="M25.75,46.07a.19.19,0,0,0-.12.26.2.2,0,0,0,.25.14A.22.22,0,0,0,26,46.2.19.19,0,0,0,25.75,46.07Z"/><path class="cls-3" d="M26.11,48.71a.21.21,0,0,0,.13.4.2.2,0,0,0,.12-.26A.2.2,0,0,0,26.11,48.71Z"/><path class="cls-3" d="M25.78,47.72a.21.21,0,0,0-.13.26.22.22,0,0,0,.26.14.22.22,0,0,0,.12-.27A.19.19,0,0,0,25.78,47.72Z"/><path class="cls-3" d="M25.47,48.37a.2.2,0,0,0-.12.26.22.22,0,0,0,.26.14.21.21,0,0,0,.12-.26A.22.22,0,0,0,25.47,48.37Z"/><path class="cls-3" d="M26.29,48.32a.2.2,0,1,0,.12-.26A.2.2,0,0,0,26.29,48.32Z"/><path class="cls-3" d="M25.14,47.38a.2.2,0,0,0-.12.26.19.19,0,0,0,.25.13.21.21,0,0,0-.13-.39Z"/><path class="cls-3" d="M26.08,47.06a.21.21,0,0,0-.12.26.2.2,0,0,0,.25.14.19.19,0,0,0,.12-.26A.2.2,0,0,0,26.08,47.06Z"/><path class="cls-3" d="M25.17,49a.16.16,0,0,0-.11.1.18.18,0,0,0,0,.16.2.2,0,1,0,.37-.13.2.2,0,0,0-.1-.12A.2.2,0,0,0,25.17,49Z"/><path class="cls-3" d="M26.77,50.7a.22.22,0,0,0-.12.27.19.19,0,0,0,.25.13.21.21,0,0,0,.13-.26A.22.22,0,0,0,26.77,50.7Z"/><path class="cls-3" d="M27.38,49.4a.2.2,0,0,0-.12.26.2.2,0,1,0,.12-.26Z"/><path class="cls-3" d="M26.44,49.71a.2.2,0,0,0-.12.26.2.2,0,0,0,.25.14.21.21,0,0,0,.12-.27A.2.2,0,0,0,26.44,49.71Z"/><path class="cls-3" d="M26.14,50.36a.21.21,0,0,0-.13.26.21.21,0,0,0,.26.14.2.2,0,0,0,.12-.26A.21.21,0,0,0,26.14,50.36Z"/><path class="cls-3" d="M27,50.31a.22.22,0,0,0,.26.14.2.2,0,0,0,.12-.26.21.21,0,0,0-.25-.14A.21.21,0,0,0,27,50.31Z"/><path class="cls-3" d="M25.8,49.37a.21.21,0,0,0-.12.26.2.2,0,1,0,.38-.13A.2.2,0,0,0,25.8,49.37Z"/><path class="cls-3" d="M26.74,49.05a.23.23,0,0,0-.12.27.2.2,0,0,0,.26.13.21.21,0,0,0,.12-.26A.22.22,0,0,0,26.74,49.05Z"/><path class="cls-3" d="M25.83,51a.2.2,0,0,0-.12.26.21.21,0,0,0,.25.14.22.22,0,0,0,.13-.27A.2.2,0,0,0,25.83,51Z"/><path class="cls-3" d="M25.5,50a.2.2,0,0,0-.12.26.21.21,0,0,0,.25.14.19.19,0,0,0,.12-.26A.2.2,0,0,0,25.5,50Z"/><path class="cls-3" d="M27.18,48.8a.2.2,0,0,0,.12-.26.21.21,0,0,0-.25-.14.19.19,0,0,0-.12.26A.2.2,0,0,0,27.18,48.8Z"/><path class="cls-3" d="M27.1,51.7A.2.2,0,0,0,27,52a.2.2,0,1,0,.38-.12A.21.21,0,0,0,27.1,51.7Z"/><path class="cls-3" d="M26.8,52.35a.22.22,0,0,0-.12.27.2.2,0,1,0,.37-.13A.2.2,0,0,0,26.8,52.35Z"/><path class="cls-3" d="M27.62,52.3a.2.2,0,1,0,.12-.26A.2.2,0,0,0,27.62,52.3Z"/><path class="cls-3" d="M26.47,51.36a.19.19,0,0,0-.12.26.2.2,0,0,0,.25.14.22.22,0,0,0,.12-.27A.19.19,0,0,0,26.47,51.36Z"/><path class="cls-3" d="M27.41,51.05a.21.21,0,0,0,.13.39.2.2,0,0,0,.12-.26A.19.19,0,0,0,27.41,51.05Z"/><path class="cls-3" d="M26.16,52a.21.21,0,0,0-.12.26.2.2,0,1,0,.38-.12A.22.22,0,0,0,26.16,52Z"/><path class="cls-3" d="M27.59,50.65a.21.21,0,0,0,.25.14.2.2,0,0,0,.12-.26.2.2,0,1,0-.37.12Z"/><path class="cls-3" d="M28.1,54.69a.21.21,0,0,0,.13.39.2.2,0,0,0,.12-.26A.19.19,0,0,0,28.1,54.69Z"/><path class="cls-3" d="M28.84,53.78a.22.22,0,0,0,.12-.27.19.19,0,0,0-.25-.13.21.21,0,0,0-.13.26A.22.22,0,0,0,28.84,53.78Z"/><path class="cls-3" d="M27.9,54.09a.2.2,0,0,0,.12-.26.2.2,0,1,0-.38.12A.22.22,0,0,0,27.9,54.09Z"/><path class="cls-3" d="M27.6,54.74a.21.21,0,0,0,.12-.26.2.2,0,1,0-.38.13A.2.2,0,0,0,27.6,54.74Z"/><path class="cls-3" d="M28.53,54.43a.21.21,0,0,0,.13-.26A.22.22,0,0,0,28.4,54a.2.2,0,0,0-.12.26A.21.21,0,0,0,28.53,54.43Z"/><path class="cls-3" d="M27.39,53.49a.21.21,0,0,0-.26-.14.2.2,0,0,0-.12.26.2.2,0,1,0,.38-.12Z"/><path class="cls-3" d="M28.2,53.43a.21.21,0,0,0-.13-.39.2.2,0,0,0-.12.26A.19.19,0,0,0,28.2,53.43Z"/><path class="cls-3" d="M27.41,55.14a.22.22,0,0,0-.1-.13.2.2,0,0,0-.15,0h0a.21.21,0,0,0-.12.26.2.2,0,1,0,.37-.12Z"/><path class="cls-3" d="M28.51,52.78a.21.21,0,0,0,.12-.26.22.22,0,0,0-.26-.14h0a.21.21,0,0,0,.14.4Z"/><path class="cls-3" d="M27.57,53.09a.2.2,0,0,0,.12-.26.22.22,0,0,0-.26-.14.23.23,0,0,0-.12.27A.2.2,0,0,0,27.57,53.09Z"/><path class="cls-3" d="M29.5,55.77a.21.21,0,0,0,.12-.27.2.2,0,1,0-.37.13A.2.2,0,0,0,29.5,55.77Z"/><path class="cls-3" d="M28.56,56.08a.19.19,0,0,0,.12-.26.2.2,0,1,0-.12.26Z"/><path class="cls-3" d="M28.26,56.73a.2.2,0,0,0,.12-.26.19.19,0,0,0-.25-.13.21.21,0,0,0-.13.26A.2.2,0,0,0,28.26,56.73Z"/><path class="cls-3" d="M29.2,56.42a.2.2,0,0,0,.12-.26.2.2,0,1,0-.12.26Z"/><path class="cls-3" d="M28.05,55.48a.22.22,0,0,0-.26-.14.21.21,0,0,0-.12.26.22.22,0,0,0,.26.14A.2.2,0,0,0,28.05,55.48Z"/><path class="cls-3" d="M28.87,55.43a.23.23,0,0,0,.12-.27.2.2,0,0,0-.26-.13.21.21,0,0,0-.12.26A.22.22,0,0,0,28.87,55.43Z"/><path class="cls-3" d="M27.82,57a.2.2,0,0,0-.12.26.2.2,0,1,0,.38-.12h0A.22.22,0,0,0,27.82,57Z"/><path class="cls-3" d="M29.17,54.77a.2.2,0,0,0,.12-.26.21.21,0,0,0-.25-.14.21.21,0,0,0,.13.4Z"/><path class="cls-3" d="M30.16,57.76a.21.21,0,0,0,.13-.26.21.21,0,0,0-.26-.14.2.2,0,0,0-.12.26A.21.21,0,0,0,30.16,57.76Z"/><path class="cls-3" d="M29.23,58.07a.21.21,0,0,0,.12-.26.22.22,0,0,0-.26-.14.2.2,0,0,0-.12.26A.21.21,0,0,0,29.23,58.07Z"/><path class="cls-3" d="M28.92,58.72a.21.21,0,0,0-.13-.39.2.2,0,0,0-.12.26A.19.19,0,0,0,28.92,58.72Z"/><path class="cls-3" d="M29.73,58a.21.21,0,0,0-.12.27.14.14,0,0,0,.07.08l.3-.19a0,0,0,0,0,0,0A.2.2,0,0,0,29.73,58Z"/><path class="cls-3" d="M28.71,57.47a.2.2,0,0,0-.25-.14.2.2,0,0,0-.12.26.2.2,0,1,0,.37-.12Z"/><path class="cls-3" d="M29.53,57.42a.22.22,0,0,0,.12-.27.2.2,0,1,0-.37.13A.2.2,0,0,0,29.53,57.42Z"/><path class="cls-3" d="M29.83,56.76a.2.2,0,0,0,.12-.1.22.22,0,0,0,0-.16h0a.17.17,0,0,0-.1-.12.19.19,0,0,0-.15,0,.22.22,0,0,0-.12.27A.19.19,0,0,0,29.83,56.76Z"/><path class="cls-3" d="M28.89,57.08a.22.22,0,0,0,.13-.27.2.2,0,0,0-.26-.13.2.2,0,0,0-.12.26A.21.21,0,0,0,28.89,57.08Z"/><path class="cls-3" d="M22.15,45.28a.19.19,0,0,0,.25.13s0,0,.06,0a2.37,2.37,0,0,1-.28-.27A.18.18,0,0,0,22.15,45.28Z"/><path class="cls-3" d="M24.06,46.14a.22.22,0,0,0,0,.16.2.2,0,1,0,.38-.12h0Z"/><path class="cls-3" d="M23.49,46.49a.2.2,0,1,0-.38.12.21.21,0,0,0,.26.14A.2.2,0,0,0,23.49,46.49Z"/><path class="cls-3" d="M22.81,47.27a.2.2,0,1,0,.37-.13.19.19,0,0,0-.25-.13A.2.2,0,0,0,22.81,47.27Z"/><path class="cls-3" d="M23.87,46.69a.22.22,0,0,0-.12.27.2.2,0,1,0,.37-.13A.2.2,0,0,0,23.87,46.69Z"/><path class="cls-3" d="M22.6,46a.21.21,0,0,0,.13.4.2.2,0,0,0,.12-.26A.2.2,0,0,0,22.6,46Z"/><path class="cls-3" d="M23.67,46.1s0,0,0,0l-.29-.1A.21.21,0,0,0,23.67,46.1Z"/><path class="cls-3" d="M22.29,46.67a.21.21,0,0,0-.12.26.2.2,0,1,0,.12-.26Z"/><path class="cls-3" d="M23,45.75l-.2-.12A.2.2,0,0,0,23,45.75Z"/><path class="cls-3" d="M24.23,49.34a.2.2,0,0,0-.12.26.2.2,0,0,0,.25.14.21.21,0,0,0-.13-.4Z"/><path class="cls-3" d="M24.84,48a.2.2,0,0,0-.12.26.2.2,0,0,0,.25.14.22.22,0,0,0,.11-.1.18.18,0,0,0,0-.16A.22.22,0,0,0,25,48,.2.2,0,0,0,24.84,48Z"/><path class="cls-3" d="M23.9,48.34a.21.21,0,0,0-.12.27.19.19,0,0,0,.25.13.2.2,0,0,0,.12-.26A.2.2,0,0,0,23.9,48.34Z"/><path class="cls-3" d="M23.59,49a.21.21,0,0,0-.12.26.22.22,0,0,0,.26.14.23.23,0,0,0,.12-.27A.2.2,0,0,0,23.59,49Z"/><path class="cls-3" d="M24.41,49a.2.2,0,0,0,.26.13.21.21,0,0,0,.12-.26.2.2,0,1,0-.38.13Z"/><path class="cls-3" d="M23.26,48a.2.2,0,0,0-.12.26.21.21,0,0,0,.25.14.21.21,0,0,0,.13-.26A.22.22,0,0,0,23.26,48Z"/><path class="cls-3" d="M24.2,47.69a.2.2,0,0,0-.12.26.2.2,0,1,0,.12-.26Z"/><path class="cls-3" d="M24.64,47.43a.2.2,0,0,0,.12-.26.19.19,0,0,0-.25-.13.21.21,0,0,0-.13.26A.2.2,0,0,0,24.64,47.43Z"/><path class="cls-3" d="M23.7,47.75a.22.22,0,0,0,.12-.27.19.19,0,0,0-.25-.13.21.21,0,0,0-.13.26A.22.22,0,0,0,23.7,47.75Z"/><path class="cls-3" d="M24.89,51.33a.2.2,0,0,0-.12.26.2.2,0,1,0,.12-.26Z"/><path class="cls-3" d="M24.56,50.33a.22.22,0,0,0-.12.27.19.19,0,0,0,.25.13.21.21,0,0,0,.13-.26A.22.22,0,0,0,24.56,50.33Z"/><path class="cls-3" d="M24.26,51a.19.19,0,0,0-.12.26.2.2,0,1,0,.37-.12A.2.2,0,0,0,24.26,51Z"/><path class="cls-3" d="M25.07,50.94a.2.2,0,0,0,.26.13.2.2,0,0,0,.12-.26.19.19,0,0,0-.25-.13A.21.21,0,0,0,25.07,50.94Z"/><path class="cls-3" d="M23.93,50a.21.21,0,0,0-.13.26.21.21,0,0,0,.26.14.2.2,0,0,0,.12-.26A.21.21,0,0,0,23.93,50Z"/><path class="cls-3" d="M24.86,49.68a.21.21,0,0,0-.12.26.22.22,0,0,0,.26.14.2.2,0,0,0,.12-.26A.22.22,0,0,0,24.86,49.68Z"/><path class="cls-3" d="M25.56,53.32a.21.21,0,0,0-.13.26.22.22,0,0,0,.26.14.2.2,0,0,0,.12-.26A.21.21,0,0,0,25.56,53.32Z"/><path class="cls-3" d="M25.22,52.33a.21.21,0,0,0-.12.26.2.2,0,1,0,.12-.26Z"/><path class="cls-3" d="M24.92,53a.2.2,0,0,0-.12.26.21.21,0,0,0,.25.14.2.2,0,0,0,.12-.26A.2.2,0,0,0,24.92,53Z"/><path class="cls-3" d="M25.74,52.93a.2.2,0,1,0,.12-.26A.2.2,0,0,0,25.74,52.93Z"/><path class="cls-3" d="M24.59,52a.22.22,0,0,0-.12.27.2.2,0,1,0,.37-.13A.2.2,0,0,0,24.59,52Z"/><path class="cls-3" d="M25.53,51.67a.2.2,0,0,0-.12.26.2.2,0,1,0,.12-.26Z"/><path class="cls-3" d="M24.87,53.77a.2.2,0,1,0-.37.13.19.19,0,0,0,.25.13A.2.2,0,0,0,24.87,53.77Z"/><path class="cls-3" d="M24.28,52.64h0a.18.18,0,0,0-.11.1.29.29,0,0,0,0,.16.2.2,0,1,0,.38-.13.29.29,0,0,0-.1-.12.22.22,0,0,0-.16,0Z"/><path class="cls-3" d="M26.22,55.31a.21.21,0,0,0,.13.4.19.19,0,0,0,.12-.26A.2.2,0,0,0,26.22,55.31Z"/><path class="cls-3" d="M27,54.4a.21.21,0,0,0,.12-.26A.18.18,0,0,0,27,54a.2.2,0,0,0-.15,0,.21.21,0,0,0-.12.27A.19.19,0,0,0,27,54.4Z"/><path class="cls-3" d="M25.89,54.32a.21.21,0,0,0,.13.39.2.2,0,0,0,.12-.26A.19.19,0,0,0,25.89,54.32Z"/><path class="cls-3" d="M25.72,55.37a.21.21,0,1,0-.26-.14A.21.21,0,0,0,25.72,55.37Z"/><path class="cls-3" d="M26.66,55.06a.23.23,0,0,0,.12-.27.2.2,0,1,0-.38.13A.22.22,0,0,0,26.66,55.06Z"/><path class="cls-3" d="M25.51,54.11a.2.2,0,1,0-.38.13.19.19,0,0,0,.25.13A.21.21,0,0,0,25.51,54.11Z"/><path class="cls-3" d="M26.32,54.06a.21.21,0,0,0,.13-.26.22.22,0,0,0-.26-.14.2.2,0,0,0-.12.26A.21.21,0,0,0,26.32,54.06Z"/><path class="cls-3" d="M26.63,53.41a.22.22,0,0,0,.12-.27A.19.19,0,0,0,26.5,53a.21.21,0,0,0-.13.26A.22.22,0,0,0,26.63,53.41Z"/><path class="cls-3" d="M26.88,57.3a.2.2,0,0,0-.12.26.2.2,0,1,0,.38-.12A.22.22,0,0,0,26.88,57.3Z"/><path class="cls-3" d="M27.62,56.39a.19.19,0,0,0,.12-.26.2.2,0,0,0-.25-.14.22.22,0,0,0-.12.27A.19.19,0,0,0,27.62,56.39Z"/><path class="cls-3" d="M26.68,56.71a.22.22,0,0,0,.13-.27.2.2,0,0,0-.26-.13.2.2,0,0,0-.12.26A.21.21,0,0,0,26.68,56.71Z"/><path class="cls-3" d="M26.38,57.36a.2.2,0,0,0,.12-.26.21.21,0,0,0-.25-.14.2.2,0,0,0-.12.26A.2.2,0,0,0,26.38,57.36Z"/><path class="cls-3" d="M27.32,57.05a.2.2,0,0,0,.12-.26.2.2,0,0,0-.25-.14.21.21,0,0,0-.13.26A.22.22,0,0,0,27.32,57.05Z"/><path class="cls-3" d="M26.17,56.1a.19.19,0,0,0-.25-.13.21.21,0,0,0-.13.26.2.2,0,1,0,.38-.13Z"/><path class="cls-3" d="M27,56.05a.2.2,0,0,0,.12-.26.2.2,0,1,0-.38.12A.21.21,0,0,0,27,56.05Z"/><path class="cls-3" d="M25.94,57.62a.21.21,0,0,0-.12.26.2.2,0,0,0,.26.13.21.21,0,0,0,.12-.26A.2.2,0,0,0,25.94,57.62Z"/><path class="cls-3" d="M28.29,58.38h0a.16.16,0,0,0,.11-.1.22.22,0,0,0,0-.16.2.2,0,0,0-.26-.13.21.21,0,0,0-.12.26A.2.2,0,0,0,28.29,58.38Z"/><path class="cls-3" d="M27.35,58.7a.22.22,0,0,0,.12-.27.2.2,0,0,0-.26-.13.21.21,0,0,0-.12.26A.22.22,0,0,0,27.35,58.7Z"/><path class="cls-3" d="M27,59.35a.19.19,0,0,0,.12-.26.2.2,0,1,0-.37.12A.2.2,0,0,0,27,59.35Z"/><path class="cls-3" d="M28,59a.2.2,0,0,0,.12-.26.2.2,0,0,0-.25-.14.2.2,0,0,0-.12.26A.2.2,0,0,0,28,59Z"/><path class="cls-3" d="M26.83,58.09a.2.2,0,1,0-.37.13.2.2,0,0,0,.25.14A.21.21,0,0,0,26.83,58.09Z"/><path class="cls-3" d="M27.65,58a.2.2,0,0,0,.12-.26.2.2,0,0,0-.25-.14.21.21,0,0,0-.12.27A.19.19,0,0,0,27.65,58Z"/><path class="cls-3" d="M26.86,59.74a.19.19,0,0,0-.25-.13.21.21,0,0,0-.13.26.22.22,0,0,0,.26.14A.22.22,0,0,0,26.86,59.74Z"/><path class="cls-3" d="M28.13,60.43a.2.2,0,0,0-.25-.14.19.19,0,0,0-.12.26.2.2,0,0,0,.25.14.18.18,0,0,0,.1-.09s0,0,0-.05A.17.17,0,0,0,28.13,60.43Z"/><path class="cls-3" d="M27.71,61.34a.21.21,0,0,0,.12-.26.22.22,0,0,0-.26-.14.23.23,0,0,0-.12.27A.2.2,0,0,0,27.71,61.34Z"/><path class="cls-3" d="M27.5,60.08a.2.2,0,1,0-.38.13.21.21,0,0,0,.25.14A.22.22,0,0,0,27.5,60.08Z"/><path class="cls-3" d="M28.44,59.77a.2.2,0,1,0-.38.13.19.19,0,0,0,.25.13s0,0,0,0l.09-.19S28.44,59.79,28.44,59.77Z"/><path class="cls-3" d="M27.19,60.74a.2.2,0,0,0-.25-.14h0a.21.21,0,0,0,.13.4A.2.2,0,0,0,27.19,60.74Z"/><path class="cls-3" d="M28.62,59.38a.2.2,0,0,0,.12-.26.2.2,0,1,0-.38.12A.22.22,0,0,0,28.62,59.38Z"/><path class="cls-3" d="M27.68,59.69a.2.2,0,0,0,.12-.26.21.21,0,0,0-.25-.14.22.22,0,0,0-.13.27A.2.2,0,0,0,27.68,59.69Z"/><path class="cls-3" d="M27.89,62a.22.22,0,0,0-.11.25.2.2,0,0,0,.12.12C27.89,62.2,27.89,62.08,27.89,62Z"/><path class="cls-3" d="M27.52,61.73a.19.19,0,0,0-.25-.13.2.2,0,0,0-.12.26s0,0,0,0l.15.09h.07A.21.21,0,0,0,27.52,61.73Z"/><path class="cls-3" d="M21.68,45.07h.08a.2.2,0,0,0-.07-.39C21.69,44.81,21.69,44.94,21.68,45.07Z"/><path class="cls-3" d="M21.36,47a.21.21,0,0,0-.13.26.2.2,0,1,0,.38-.13A.19.19,0,0,0,21.36,47Z"/><path class="cls-3" d="M21.05,47.63a.2.2,0,0,0-.12.26.2.2,0,0,0,.25.14.21.21,0,0,0,.13-.26A.22.22,0,0,0,21.05,47.63Z"/><path class="cls-3" d="M21.87,47.58a.2.2,0,1,0,.38-.12.22.22,0,0,0-.26-.14A.2.2,0,0,0,21.87,47.58Z"/><path class="cls-3" d="M20.81,47h0a.2.2,0,0,0,.12-.13A1,1,0,0,1,20.81,47Z"/><path class="cls-3" d="M21.66,46.32a.22.22,0,0,0-.12.27.2.2,0,1,0,.37-.13A.2.2,0,0,0,21.66,46.32Z"/><path class="cls-3" d="M20.75,48.29a.19.19,0,0,0-.12.26.2.2,0,0,0,.25.14.22.22,0,0,0,.12-.27A.19.19,0,0,0,20.75,48.29Z"/><path class="cls-3" d="M20.42,47.29a.21.21,0,0,0-.13.26.22.22,0,0,0,.26.14.2.2,0,0,0,.12-.26A.21.21,0,0,0,20.42,47.29Z"/><path class="cls-3" d="M21.84,45.93a.2.2,0,1,0,.12-.26A.21.21,0,0,0,21.84,45.93Z"/><path class="cls-3" d="M22.35,50a.22.22,0,0,0-.12.27.2.2,0,1,0,.37-.13A.2.2,0,0,0,22.35,50Z"/><path class="cls-3" d="M23,48.66a.21.21,0,0,0,.13.39.2.2,0,0,0,.12-.26A.19.19,0,0,0,23,48.66Z"/><path class="cls-3" d="M22,49a.2.2,0,0,0-.12.26.2.2,0,0,0,.25.14A.21.21,0,0,0,22,49Z"/><path class="cls-3" d="M21.72,49.62a.22.22,0,0,0-.13.27.2.2,0,1,0,.38-.13A.21.21,0,0,0,21.72,49.62Z"/><path class="cls-3" d="M22.53,49.57a.22.22,0,0,0,.26.14.2.2,0,0,0,.12-.26.2.2,0,1,0-.38.12Z"/><path class="cls-3" d="M21.38,48.63a.21.21,0,0,0-.12.26.22.22,0,0,0,.26.14.23.23,0,0,0,.12-.27A.2.2,0,0,0,21.38,48.63Z"/><path class="cls-3" d="M22.32,48.32a.21.21,0,0,0,.14.39.21.21,0,0,0,.12-.26A.2.2,0,0,0,22.32,48.32Z"/><path class="cls-3" d="M21.08,49.28a.2.2,0,0,0-.12.26.2.2,0,0,0,.25.14.19.19,0,0,0,.12-.26A.2.2,0,0,0,21.08,49.28Z"/><path class="cls-3" d="M22.76,48.06a.2.2,0,0,0,.12-.26.21.21,0,0,0-.25-.14.2.2,0,0,0-.12.26A.2.2,0,0,0,22.76,48.06Z"/><path class="cls-3" d="M21.82,48.37a.2.2,0,0,0,.12-.26h0a.21.21,0,0,0-.25-.14.25.25,0,0,0-.12.11.22.22,0,0,0,0,.16A.19.19,0,0,0,21.82,48.37Z"/><path class="cls-3" d="M23,52a.21.21,0,0,0-.12.26.2.2,0,0,0,.26.13.21.21,0,0,0,.12-.26A.2.2,0,0,0,23,52Z"/><path class="cls-3" d="M23.62,50.65a.2.2,0,0,0-.12.26.21.21,0,0,0,.25.14.22.22,0,0,0,.13-.27A.2.2,0,0,0,23.62,50.65Z"/><path class="cls-3" d="M22.68,51a.2.2,0,0,0-.12.26.2.2,0,1,0,.38-.12A.22.22,0,0,0,22.68,51Z"/><path class="cls-3" d="M22.38,51.61a.21.21,0,0,0-.12.27.19.19,0,0,0,.25.13.2.2,0,0,0,.12-.26A.2.2,0,0,0,22.38,51.61Z"/><path class="cls-3" d="M23.2,51.56a.2.2,0,0,0,.25.14.2.2,0,0,0,.12-.26.2.2,0,0,0-.25-.14A.2.2,0,0,0,23.2,51.56Z"/><path class="cls-3" d="M22.05,50.62a.19.19,0,0,0-.12.26.2.2,0,1,0,.37-.12A.2.2,0,0,0,22.05,50.62Z"/><path class="cls-3" d="M23,50.31a.21.21,0,0,0-.13.26.2.2,0,1,0,.38-.13A.19.19,0,0,0,23,50.31Z"/><path class="cls-3" d="M21.74,51.27a.22.22,0,0,0-.12.27.2.2,0,1,0,.38-.13A.22.22,0,0,0,21.74,51.27Z"/><path class="cls-3" d="M23.42,50.05a.19.19,0,0,0,.12-.26.15.15,0,0,0-.1-.12.16.16,0,0,0-.15,0,.22.22,0,0,0-.11.1.18.18,0,0,0,0,.16A.21.21,0,0,0,23.42,50.05Z"/><path class="cls-3" d="M23.35,53a.21.21,0,0,0-.13.26.22.22,0,0,0,.26.14.2.2,0,0,0,.12-.26A.21.21,0,0,0,23.35,53Z"/><path class="cls-3" d="M23,53.61a.2.2,0,0,0-.12.26.19.19,0,0,0,.25.13.21.21,0,0,0,.13-.26A.2.2,0,0,0,23,53.61Z"/><path class="cls-3" d="M23.86,53.55a.2.2,0,0,0,.25.14.21.21,0,0,0,.13-.26.22.22,0,0,0-.26-.14A.2.2,0,0,0,23.86,53.55Z"/><path class="cls-3" d="M22.71,52.61a.2.2,0,0,0-.12.26.21.21,0,0,0,.25.14.2.2,0,0,0,.12-.26A.2.2,0,0,0,22.71,52.61Z"/><path class="cls-3" d="M23.65,52.3a.2.2,0,0,0-.12.26.2.2,0,0,0,.25.14.21.21,0,0,0,.12-.27A.19.19,0,0,0,23.65,52.3Z"/><path class="cls-3" d="M23,54.4a.2.2,0,0,0-.25-.14.19.19,0,0,0-.12.26A.2.2,0,1,0,23,54.4Z"/><path class="cls-3" d="M22.41,53.26a.22.22,0,0,0-.13.27.2.2,0,0,0,.26.13.2.2,0,0,0,.12-.26A.21.21,0,0,0,22.41,53.26Z"/><path class="cls-3" d="M23.83,51.9a.2.2,0,1,0,.38-.12.2.2,0,1,0-.38.12Z"/><path class="cls-3" d="M24.34,55.94a.2.2,0,0,0-.12.26.2.2,0,1,0,.37-.13A.19.19,0,0,0,24.34,55.94Z"/><path class="cls-3" d="M25.08,55a.2.2,0,0,0,.12-.26.2.2,0,0,0-.25-.14.19.19,0,0,0-.12.26A.2.2,0,0,0,25.08,55Z"/><path class="cls-3" d="M24.14,55.34a.19.19,0,0,0,.12-.26.2.2,0,1,0-.37.12A.2.2,0,0,0,24.14,55.34Z"/><path class="cls-3" d="M23.84,56a.21.21,0,0,0-.14-.39.21.21,0,0,0-.12.26A.2.2,0,0,0,23.84,56Z"/><path class="cls-3" d="M24.78,55.68a.2.2,0,0,0,.12-.26.22.22,0,0,0-.26-.14.23.23,0,0,0-.12.27A.2.2,0,0,0,24.78,55.68Z"/><path class="cls-3" d="M23.63,54.74a.2.2,0,1,0-.12.26A.22.22,0,0,0,23.63,54.74Z"/><path class="cls-3" d="M24.45,54.69a.23.23,0,0,0,.12-.27.2.2,0,1,0-.38.13A.22.22,0,0,0,24.45,54.69Z"/><path class="cls-3" d="M23.81,54.34a.2.2,0,0,0,.12-.26.2.2,0,1,0-.37.13A.19.19,0,0,0,23.81,54.34Z"/><path class="cls-3" d="M25.74,57a.21.21,0,0,0,.13-.26.22.22,0,0,0-.26-.14.2.2,0,0,0-.12.26A.21.21,0,0,0,25.74,57Z"/><path class="cls-3" d="M24.8,57.33a.21.21,0,0,0,.13-.26.22.22,0,0,0-.26-.14.2.2,0,0,0-.12.26A.2.2,0,0,0,24.8,57.33Z"/><path class="cls-3" d="M24.5,58a.22.22,0,0,0,.12-.27.2.2,0,1,0-.37.13A.2.2,0,0,0,24.5,58Z"/><path class="cls-3" d="M25.44,57.67a.2.2,0,0,0,.12-.26.2.2,0,0,0-.25-.14.21.21,0,0,0-.12.27A.19.19,0,0,0,25.44,57.67Z"/><path class="cls-3" d="M24.29,56.73a.21.21,0,0,0-.25-.14.2.2,0,0,0-.12.26.2.2,0,0,0,.25.14A.2.2,0,0,0,24.29,56.73Z"/><path class="cls-3" d="M25.11,56.68a.2.2,0,0,0,.12-.26.2.2,0,0,0-.25-.14.21.21,0,0,0-.13.26A.22.22,0,0,0,25.11,56.68Z"/><path class="cls-3" d="M24.06,58.24a.21.21,0,0,0,.14.4.2.2,0,0,0,.12-.26A.22.22,0,0,0,24.06,58.24Z"/><path class="cls-3" d="M25.41,56a.19.19,0,0,0,.12-.26.2.2,0,0,0-.25-.14.22.22,0,0,0-.12.27A.19.19,0,0,0,25.41,56Z"/><path class="cls-3" d="M26.41,59a.2.2,0,0,0,.12-.26.2.2,0,1,0-.12.26Z"/><path class="cls-3" d="M25.47,59.32a.2.2,0,0,0,.12-.26.21.21,0,0,0-.25-.14.22.22,0,0,0-.13.27A.2.2,0,0,0,25.47,59.32Z"/><path class="cls-3" d="M25.16,60a.22.22,0,0,0,.13-.27.21.21,0,0,0-.26-.13.2.2,0,0,0-.12.26A.21.21,0,0,0,25.16,60Z"/><path class="cls-3" d="M26.1,59.66a.21.21,0,0,0-.13-.39.2.2,0,0,0-.12.26A.19.19,0,0,0,26.1,59.66Z"/><path class="cls-3" d="M25,58.72a.2.2,0,1,0-.37.12.2.2,0,0,0,.25.14A.19.19,0,0,0,25,58.72Z"/><path class="cls-3" d="M25.77,58.67a.2.2,0,0,0,.12-.26.2.2,0,0,0-.25-.14.2.2,0,0,0-.12.26A.2.2,0,0,0,25.77,58.67Z"/><path class="cls-3" d="M25.14,58.33a.21.21,0,0,0,.12-.26.2.2,0,1,0-.38.12A.22.22,0,0,0,25.14,58.33Z"/><path class="cls-3" d="M26.25,61.05a.19.19,0,0,0-.25-.13.2.2,0,0,0-.12.26.18.18,0,0,0,.07.08l.1.05h.08A.19.19,0,0,0,26.25,61.05Z"/><path class="cls-3" d="M26.89,61.39a.2.2,0,0,0-.26-.13.21.21,0,0,0-.12.25l.27.14A.22.22,0,0,0,26.89,61.39Z"/><path class="cls-3" d="M25.24,60.84a.2.2,0,0,0,.26.13.21.21,0,0,0,.12-.26.22.22,0,0,0-.26-.14A.23.23,0,0,0,25.24,60.84Z"/><path class="cls-3" d="M26.44,60.66a.21.21,0,0,0-.14-.4.2.2,0,0,0-.12.26A.22.22,0,0,0,26.44,60.66Z"/><path class="cls-3" d="M25.92,60.06a.21.21,0,0,0-.25-.14.19.19,0,0,0-.12.26.2.2,0,1,0,.37-.12Z"/><path class="cls-3" d="M19.81,48.6a.21.21,0,0,0-.12.26.2.2,0,1,0,.37-.12h0A.2.2,0,0,0,19.81,48.6Z"/><path class="cls-3" d="M19.73,47.74a.2.2,0,1,0-.37.13.19.19,0,0,0,.25.13A.2.2,0,0,0,19.73,47.74Z"/><path class="cls-3" d="M19.05,48.52a.22.22,0,0,0,.26.14.23.23,0,0,0,.12-.27.21.21,0,0,0-.26-.13A.2.2,0,0,0,19.05,48.52Z"/><path class="cls-3" d="M20.11,48a.21.21,0,0,0,.14.39.21.21,0,0,0,.12-.26A.2.2,0,0,0,20.11,48Z"/><path class="cls-3" d="M18.84,47.26a.22.22,0,0,0-.12.18.53.53,0,0,1,0,.12.19.19,0,0,0,.22.1.21.21,0,0,0,.13-.26A.22.22,0,0,0,18.84,47.26Z"/><path class="cls-3" d="M19.66,47.18s0,0,0,0a.21.21,0,0,0,.25.14.17.17,0,0,0,.12-.14Z"/><path class="cls-3" d="M18.87,48.91a.2.2,0,0,0-.12.26.2.2,0,0,0,.25.14.19.19,0,0,0,.12-.26A.2.2,0,0,0,18.87,48.91Z"/><path class="cls-3" d="M18.79,48.05h0c0,.06,0,.13,0,.19A.22.22,0,0,0,18.79,48.05Z"/><path class="cls-3" d="M20.47,50.59a.2.2,0,0,0-.12.26.2.2,0,1,0,.38-.12A.22.22,0,0,0,20.47,50.59Z"/><path class="cls-3" d="M20.14,49.6a.2.2,0,0,0-.12.26.2.2,0,1,0,.37-.13A.19.19,0,0,0,20.14,49.6Z"/><path class="cls-3" d="M19.84,50.25a.21.21,0,0,0-.13.26.22.22,0,0,0,.26.14.2.2,0,0,0,.12-.26A.2.2,0,0,0,19.84,50.25Z"/><path class="cls-3" d="M20.65,50.2a.2.2,0,1,0,.38-.13.19.19,0,0,0-.25-.13A.21.21,0,0,0,20.65,50.2Z"/><path class="cls-3" d="M19.5,49.25a.23.23,0,0,0-.12.27.2.2,0,1,0,.38-.13A.22.22,0,0,0,19.5,49.25Z"/><path class="cls-3" d="M20.44,48.94a.21.21,0,1,0,.26.14A.21.21,0,0,0,20.44,48.94Z"/><path class="cls-3" d="M19.53,50.9a.22.22,0,0,0-.12.27.2.2,0,0,0,.26.13.21.21,0,0,0,.12-.26h0A.22.22,0,0,0,19.53,50.9Z"/><path class="cls-3" d="M20.8,51.59a.21.21,0,0,0-.12.26.2.2,0,0,0,.26.13.21.21,0,0,0,.12-.26A.2.2,0,0,0,20.8,51.59Z"/><path class="cls-3" d="M20.5,52.24a.21.21,0,0,0,.13.4.2.2,0,0,0,.12-.26A.2.2,0,0,0,20.5,52.24Z"/><path class="cls-3" d="M21.32,52.19a.2.2,0,0,0,.25.14.21.21,0,0,0,.12-.27.19.19,0,0,0-.25-.13A.2.2,0,0,0,21.32,52.19Z"/><path class="cls-3" d="M20.17,51.25a.21.21,0,0,0,.13.39.2.2,0,0,0,.12-.26A.19.19,0,0,0,20.17,51.25Z"/><path class="cls-3" d="M21.11,50.93a.2.2,0,0,0-.12.26.2.2,0,0,0,.25.14.2.2,0,0,0,.12-.26A.21.21,0,0,0,21.11,50.93Z"/><path class="cls-3" d="M20.2,52.89a.22.22,0,0,0-.13.27.25.25,0,0,0,.11.12.19.19,0,0,0,.15,0h0a.2.2,0,0,0,.12-.26A.21.21,0,0,0,20.2,52.89Z"/><path class="cls-3" d="M19.86,51.9a.21.21,0,0,0-.12.26.2.2,0,1,0,.38-.12A.21.21,0,0,0,19.86,51.9Z"/><path class="cls-3" d="M21.54,50.68a.22.22,0,0,0,.13-.27.2.2,0,0,0-.26-.13.2.2,0,0,0-.12.26A.21.21,0,0,0,21.54,50.68Z"/><path class="cls-3" d="M21.8,54.57a.21.21,0,0,0,.13.4.2.2,0,0,0,.12-.26A.2.2,0,0,0,21.8,54.57Z"/><path class="cls-3" d="M21.47,53.58a.19.19,0,0,0-.12.26.2.2,0,0,0,.25.14.22.22,0,0,0,.12-.27A.19.19,0,0,0,21.47,53.58Z"/><path class="cls-3" d="M21.16,54.23a.2.2,0,0,0-.12.26.22.22,0,0,0,.26.14.21.21,0,0,0,.12-.26A.22.22,0,0,0,21.16,54.23Z"/><path class="cls-3" d="M22,54.18a.21.21,0,0,0,.25.14.21.21,0,0,0,.13-.26.21.21,0,0,0-.26-.14A.2.2,0,0,0,22,54.18Z"/><path class="cls-3" d="M20.83,53.24a.2.2,0,0,0-.12.26.19.19,0,0,0,.25.13.21.21,0,0,0,.13-.26A.2.2,0,0,0,20.83,53.24Z"/><path class="cls-3" d="M21.77,52.92a.2.2,0,0,0-.12.26.2.2,0,0,0,.25.14.19.19,0,0,0,.12-.26A.2.2,0,0,0,21.77,52.92Z"/><path class="cls-3" d="M21.11,55a.19.19,0,0,0-.25-.13.2.2,0,0,0-.12.26.2.2,0,1,0,.37-.13Z"/><path class="cls-3" d="M20.53,53.89a.19.19,0,0,0-.12.26.2.2,0,1,0,.37-.12A.21.21,0,0,0,20.53,53.89Z"/><path class="cls-3" d="M22,52.53a.22.22,0,0,0,.26.14.2.2,0,0,0,.12-.26.2.2,0,1,0-.38.12Z"/><path class="cls-3" d="M21.27,53a.2.2,0,0,0,.12-.26.2.2,0,1,0-.38.12A.22.22,0,0,0,21.27,53Z"/><path class="cls-3" d="M22.46,56.56a.22.22,0,0,0-.12.27.19.19,0,0,0,.25.13.21.21,0,0,0,.13-.26A.22.22,0,0,0,22.46,56.56Z"/><path class="cls-3" d="M23.2,55.65a.21.21,0,0,0-.13-.39.2.2,0,0,0-.12.26A.19.19,0,0,0,23.2,55.65Z"/><path class="cls-3" d="M22.38,55.7a.19.19,0,0,0-.25-.13.2.2,0,0,0-.12.26.2.2,0,1,0,.37-.13Z"/><path class="cls-3" d="M22,56.62a.2.2,0,0,0,.12-.26.2.2,0,1,0-.12.26Z"/><path class="cls-3" d="M22.9,56.31a.2.2,0,0,0,.12-.26.2.2,0,0,0-.25-.14.21.21,0,0,0-.13.26A.22.22,0,0,0,22.9,56.31Z"/><path class="cls-3" d="M21.75,55.36a.2.2,0,0,0-.26-.13.21.21,0,0,0-.12.26.2.2,0,1,0,.38-.13Z"/><path class="cls-3" d="M22.57,55.31a.21.21,0,0,0,.12-.26.22.22,0,0,0-.26-.14.23.23,0,0,0-.12.27A.2.2,0,0,0,22.57,55.31Z"/><path class="cls-3" d="M23.87,57.64h0a.21.21,0,0,0,.12-.26.2.2,0,0,0-.26-.13.16.16,0,0,0-.11.1.22.22,0,0,0,0,.16.24.24,0,0,0,.1.12A.18.18,0,0,0,23.87,57.64Z"/><path class="cls-3" d="M23.05,57.7a.2.2,0,1,0-.38.12.2.2,0,1,0,.38-.12Z"/><path class="cls-3" d="M22.62,58.61a.19.19,0,0,0,.12-.26.2.2,0,0,0-.25-.14.22.22,0,0,0-.12.27A.19.19,0,0,0,22.62,58.61Z"/><path class="cls-3" d="M23.56,58.3a.2.2,0,0,0,.12-.26.2.2,0,1,0-.12.26Z"/><path class="cls-3" d="M22.41,57.35a.2.2,0,1,0-.37.13.2.2,0,0,0,.25.14A.22.22,0,0,0,22.41,57.35Z"/><path class="cls-3" d="M23.23,57.3a.2.2,0,0,0,.12-.26.2.2,0,1,0-.37.13A.19.19,0,0,0,23.23,57.3Z"/><path class="cls-3" d="M22.19,58.87a.21.21,0,0,0-.13.26.2.2,0,1,0,.38-.13A.19.19,0,0,0,22.19,58.87Z"/><path class="cls-3" d="M23.53,56.65a.21.21,0,0,0,.13-.26.24.24,0,0,0-.11-.13.19.19,0,0,0-.15,0,.22.22,0,0,0-.11.1.22.22,0,0,0,0,.16A.21.21,0,0,0,23.53,56.65Z"/><path class="cls-3" d="M24.53,59.64a.22.22,0,0,0,.12-.27.19.19,0,0,0-.25-.13.21.21,0,0,0-.13.26A.22.22,0,0,0,24.53,59.64Z"/><path class="cls-3" d="M23.59,60a.2.2,0,0,0,.12-.26.21.21,0,0,0-.25-.14.19.19,0,0,0-.12.26A.2.2,0,0,0,23.59,60Z"/><path class="cls-3" d="M23.41,60.34a.2.2,0,1,0-.38.13.2.2,0,0,0,.26.13A.21.21,0,0,0,23.41,60.34Z"/><path class="cls-3" d="M24.22,60.29a.21.21,0,0,0,.13-.26.22.22,0,0,0-.26-.14.2.2,0,0,0-.12.26A.21.21,0,0,0,24.22,60.29Z"/><path class="cls-3" d="M23.08,59.35a.21.21,0,0,0-.26-.14.2.2,0,0,0-.12.26.2.2,0,1,0,.38-.12Z"/><path class="cls-3" d="M23.89,59.29a.21.21,0,0,0-.13-.39.2.2,0,0,0-.12.26A.19.19,0,0,0,23.89,59.29Z"/><path class="cls-3" d="M23,60.9a.18.18,0,0,0-.17,0,.18.18,0,0,0-.09.08Z"/><path class="cls-3" d="M23.26,59a.2.2,0,0,0,.12-.26.21.21,0,0,0-.25-.14.22.22,0,0,0-.13.27A.2.2,0,0,0,23.26,59Z"/><path class="cls-3" d="M24.42,60.89a.2.2,0,0,0-.12.23,2.93,2.93,0,0,1,.37-.1A.19.19,0,0,0,24.42,60.89Z"/><path class="cls-3" d="M24.86,60.63a.2.2,0,0,0,.12-.26.2.2,0,0,0-.25-.14.21.21,0,0,0,.13.4Z"/><path class="cls-3" d="M24,60.68a.2.2,0,1,0-.12.26A.2.2,0,0,0,24,60.68Z"/><path class="cls-3" d="M18.59,51.22a.21.21,0,0,0,.14.39.21.21,0,0,0,.12-.26A.2.2,0,0,0,18.59,51.22Z"/><path class="cls-3" d="M19.2,49.91a.2.2,0,0,0-.12.26.2.2,0,1,0,.37-.13.19.19,0,0,0-.25-.13Z"/><path class="cls-3" d="M18.26,50.22a.2.2,0,0,0-.12.26.2.2,0,1,0,.38-.12A.22.22,0,0,0,18.26,50.22Z"/><path class="cls-3" d="M18,50.88a.21.21,0,0,0,.13.39.2.2,0,0,0,.12-.26A.19.19,0,0,0,18,50.88Z"/><path class="cls-3" d="M18.78,50.82A.2.2,0,0,0,19,51a.2.2,0,0,0,.12-.26.21.21,0,0,0-.25-.14A.2.2,0,0,0,18.78,50.82Z"/><path class="cls-3" d="M17.76,50.28a.21.21,0,0,0,.12-.17c-.06,0-.11.11-.16.16Z"/><path class="cls-3" d="M18.57,49.57a.21.21,0,0,0-.13.26.2.2,0,1,0,.38-.13A.19.19,0,0,0,18.57,49.57Z"/><path class="cls-3" d="M17.65,51.53a.21.21,0,0,0-.12.26.2.2,0,1,0,.38-.12h0A.22.22,0,0,0,17.65,51.53Z"/><path class="cls-3" d="M19.26,53.21a.21.21,0,0,0-.13.26.22.22,0,0,0,.26.14.22.22,0,0,0,.12-.27A.19.19,0,0,0,19.26,53.21Z"/><path class="cls-3" d="M18.92,52.21a.21.21,0,0,0,.14.4.2.2,0,0,0,.12-.26A.22.22,0,0,0,18.92,52.21Z"/><path class="cls-3" d="M18.62,52.87a.2.2,0,0,0-.12.26.19.19,0,0,0,.25.13.21.21,0,1,0-.13-.39Z"/><path class="cls-3" d="M19.44,52.82a.2.2,0,1,0,.37-.13.2.2,0,0,0-.25-.14A.22.22,0,0,0,19.44,52.82Z"/><path class="cls-3" d="M18.29,51.87a.21.21,0,0,0,.13.4.2.2,0,0,0,.12-.26A.2.2,0,0,0,18.29,51.87Z"/><path class="cls-3" d="M19.23,51.56a.19.19,0,0,0-.12.26.2.2,0,0,0,.25.14.22.22,0,0,0,.12-.27A.19.19,0,0,0,19.23,51.56Z"/><path class="cls-3" d="M19.92,55.2a.21.21,0,0,0-.12.26.2.2,0,0,0,.25.14.2.2,0,0,0,.12-.26h0A.2.2,0,0,0,19.92,55.2Z"/><path class="cls-3" d="M19.59,54.2a.21.21,0,0,0,.13.4.2.2,0,0,0,.12-.26A.2.2,0,0,0,19.59,54.2Z"/><path class="cls-3" d="M19.42,55.26a.22.22,0,0,0,.12-.27.2.2,0,0,0-.26-.13.21.21,0,0,0-.12.26A.22.22,0,0,0,19.42,55.26Z"/><path class="cls-3" d="M20.1,54.81a.2.2,0,0,0,.26.13.21.21,0,0,0,.12-.26.22.22,0,0,0-.26-.14A.23.23,0,0,0,20.1,54.81Z"/><path class="cls-3" d="M19.21,54a.22.22,0,0,0-.26-.14.2.2,0,0,0-.12.26.22.22,0,0,0,.26.14A.21.21,0,0,0,19.21,54Z"/><path class="cls-3" d="M19.89,53.55a.2.2,0,0,0-.12.26.2.2,0,1,0,.12-.26Z"/><path class="cls-3" d="M20.58,57.19a.2.2,0,0,0-.12.26.2.2,0,1,0,.12-.26Z"/><path class="cls-3" d="M21.32,56.28a.2.2,0,0,0,.12-.26.2.2,0,0,0-.25-.14h0a.2.2,0,0,0-.12.26A.21.21,0,0,0,21.32,56.28Z"/><path class="cls-3" d="M20.38,56.59a.21.21,0,0,0,.13-.26.2.2,0,1,0-.38.13A.19.19,0,0,0,20.38,56.59Z"/><path class="cls-3" d="M20.08,57.25A.22.22,0,0,0,20.2,57a.2.2,0,1,0-.37.13A.2.2,0,0,0,20.08,57.25Z"/><path class="cls-3" d="M21,56.93a.2.2,0,0,0,.12-.26.2.2,0,1,0-.37.13A.19.19,0,0,0,21,56.93Z"/><path class="cls-3" d="M19.87,56a.2.2,0,1,0-.12.26A.2.2,0,0,0,19.87,56Z"/><path class="cls-3" d="M20.69,55.94a.2.2,0,0,0,.12-.26.21.21,0,0,0-.25-.14.21.21,0,0,0-.13.26A.22.22,0,0,0,20.69,55.94Z"/><path class="cls-3" d="M19.9,57.64a.2.2,0,1,0-.38.12.2.2,0,1,0,.38-.12Z"/><path class="cls-3" d="M22,58.27a.21.21,0,0,0,.12-.26.2.2,0,1,0-.12.26Z"/><path class="cls-3" d="M21.05,58.58a.21.21,0,0,0-.14-.39.21.21,0,0,0-.12.26A.2.2,0,0,0,21.05,58.58Z"/><path class="cls-3" d="M20.74,59.24a.21.21,0,0,0-.13-.4.2.2,0,0,0-.12.26A.21.21,0,0,0,20.74,59.24Z"/><path class="cls-3" d="M21.68,58.92a.21.21,0,0,0-.13-.39.2.2,0,0,0-.12.26A.19.19,0,0,0,21.68,58.92Z"/><path class="cls-3" d="M20.53,58a.2.2,0,0,0-.25-.14.22.22,0,0,0-.12.27.2.2,0,1,0,.37-.13Z"/><path class="cls-3" d="M21.35,57.93a.21.21,0,0,0-.13-.4.2.2,0,0,0-.12.26A.2.2,0,0,0,21.35,57.93Z"/><path class="cls-3" d="M20.31,59.49a.21.21,0,0,0-.12.27.19.19,0,0,0,.25.13.2.2,0,0,0,.12-.26A.21.21,0,0,0,20.31,59.49Z"/><path class="cls-3" d="M20.23,58.63A.19.19,0,0,0,20,58.5a.21.21,0,0,0-.13.26.2.2,0,1,0,.38-.13Z"/><path class="cls-3" d="M21.65,57.27a.21.21,0,0,0,.13-.26.25.25,0,0,0-.11-.12.19.19,0,0,0-.15,0,.16.16,0,0,0-.11.1.22.22,0,0,0,0,.16A.19.19,0,0,0,21.65,57.27Z"/><path class="cls-3" d="M22.65,60.26a.2.2,0,0,0,.12-.26.21.21,0,0,0-.25-.14.21.21,0,0,0,.13.4Z"/><path class="cls-3" d="M21.71,60.57a.2.2,0,0,0,.12-.26.2.2,0,1,0-.12.26Z"/><path class="cls-3" d="M21.41,61.23a.2.2,0,0,0,.12-.26.22.22,0,0,0-.26-.14.21.21,0,0,0-.12.26A.22.22,0,0,0,21.41,61.23Z"/><path class="cls-3" d="M22.35,60.92a.23.23,0,0,0,.12-.27.2.2,0,0,0-.26-.13.21.21,0,0,0-.12.26A.22.22,0,0,0,22.35,60.92Z"/><path class="cls-3" d="M21.2,60a.2.2,0,1,0-.38.13.2.2,0,0,0,.26.13A.21.21,0,0,0,21.2,60Z"/><path class="cls-3" d="M22,59.92a.21.21,0,0,0,.13-.26.22.22,0,0,0-.26-.14.2.2,0,0,0-.12.26A.21.21,0,0,0,22,59.92Z"/><path class="cls-3" d="M20.89,60.63a.2.2,0,0,0-.25-.14.19.19,0,0,0-.12.16c0,.05,0,.11.05.17a.21.21,0,0,0,.2.07A.2.2,0,0,0,20.89,60.63Z"/><path class="cls-3" d="M21.38,59.58a.2.2,0,0,0,.12-.26.2.2,0,1,0-.38.12A.22.22,0,0,0,21.38,59.58Z"/><path class="cls-3" d="M16.71,51.84a.21.21,0,0,0-.12.26.27.27,0,0,0,.1.13.22.22,0,0,0,.16,0,.18.18,0,0,0,.11-.1A.22.22,0,0,0,17,52,.22.22,0,0,0,16.71,51.84Z"/><path class="cls-3" d="M17.21,50.69a.21.21,0,0,0,0,.11.29.29,0,0,0,.1.12.2.2,0,0,0,.15,0h0a.15.15,0,0,0,.12-.1.29.29,0,0,0,0-.16.21.21,0,0,0-.17-.13Z"/><path class="cls-3" d="M16.52,51.25a.2.2,0,0,0,.11-.22c-.1.06-.21.1-.31.15A.21.21,0,0,0,16.52,51.25Z"/><path class="cls-3" d="M16,51.76a.2.2,0,0,0,.25.14.2.2,0,0,0,.12-.26.2.2,0,1,0-.37.12Z"/><path class="cls-3" d="M16.9,51.45a.2.2,0,0,0,.25.14.22.22,0,0,0,.12-.27.2.2,0,1,0-.37.13Z"/><path class="cls-3" d="M15.89,52.17l.14.13h0A.17.17,0,0,0,15.89,52.17Z"/><path class="cls-3" d="M18.12,52.92a.2.2,0,0,0,.12-.26.19.19,0,0,0-.25-.13.21.21,0,0,0-.13.26A.2.2,0,0,0,18.12,52.92Z"/><path class="cls-3" d="M17.18,53.24A.22.22,0,0,0,17.3,53a.19.19,0,0,0-.25-.13.21.21,0,0,0-.13.26A.22.22,0,0,0,17.18,53.24Z"/><path class="cls-3" d="M16.87,53.89a.21.21,0,0,0,.13-.26.22.22,0,0,0-.26-.14.17.17,0,0,0-.1.1.91.91,0,0,1,0,.17A.2.2,0,0,0,16.87,53.89Z"/><path class="cls-3" d="M17.81,53.58a.21.21,0,0,0,.13-.26.21.21,0,0,0-.26-.14.2.2,0,0,0-.12.26A.21.21,0,0,0,17.81,53.58Z"/><path class="cls-3" d="M16.66,52.63a.19.19,0,0,0-.25-.13.16.16,0,0,0-.11.1,1.22,1.22,0,0,1,.17.29h.07A.19.19,0,0,0,16.66,52.63Z"/><path class="cls-3" d="M17.48,52.58a.19.19,0,0,0,.12-.26.2.2,0,0,0-.25-.14.22.22,0,0,0-.12.27A.19.19,0,0,0,17.48,52.58Z"/><path class="cls-3" d="M16.69,54.28a.18.18,0,0,0-.15-.12,2.39,2.39,0,0,1-.16.32.16.16,0,0,0,.19.06A.2.2,0,0,0,16.69,54.28Z"/><path class="cls-3" d="M18.78,54.91a.2.2,0,0,0,.12-.26.2.2,0,1,0-.12.26Z"/><path class="cls-3" d="M17.84,55.23a.21.21,0,0,0-.13-.4.2.2,0,0,0-.12.26A.2.2,0,0,0,17.84,55.23Z"/><path class="cls-3" d="M17.54,55.88a.2.2,0,0,0,.12-.26.21.21,0,0,0-.25-.14.21.21,0,0,0-.13.26A.21.21,0,0,0,17.54,55.88Z"/><path class="cls-3" d="M18.48,55.57a.2.2,0,0,0,.12-.26.22.22,0,0,0-.26-.14.21.21,0,0,0-.12.26A.22.22,0,0,0,18.48,55.57Z"/><path class="cls-3" d="M17.33,54.62a.2.2,0,0,0-.26-.13.21.21,0,0,0-.12.26.22.22,0,0,0,.26.14A.23.23,0,0,0,17.33,54.62Z"/><path class="cls-3" d="M18.15,54.57a.21.21,0,0,0,.12-.26.2.2,0,1,0-.38.13A.2.2,0,0,0,18.15,54.57Z"/><path class="cls-3" d="M17.36,56.27a.2.2,0,1,0-.38.13.21.21,0,0,0,.25.14A.22.22,0,0,0,17.36,56.27Z"/><path class="cls-3" d="M18.45,53.92a.2.2,0,0,0,.12-.26.21.21,0,0,0-.25-.14.2.2,0,0,0-.12.26A.2.2,0,0,0,18.45,53.92Z"/><path class="cls-3" d="M17.51,54.23a.2.2,0,0,0,.12-.26.2.2,0,0,0-.25-.14.21.21,0,0,0-.12.27A.19.19,0,0,0,17.51,54.23Z"/><path class="cls-3" d="M19.44,56.91a.22.22,0,0,0,.13-.27.2.2,0,1,0-.38.13A.21.21,0,0,0,19.44,56.91Z"/><path class="cls-3" d="M18.51,57.22a.21.21,0,0,0-.14-.4.2.2,0,0,0-.12.26A.22.22,0,0,0,18.51,57.22Z"/><path class="cls-3" d="M18.2,57.87a.19.19,0,0,0,.12-.26.2.2,0,0,0-.25-.14.21.21,0,0,0-.12.27A.19.19,0,0,0,18.2,57.87Z"/><path class="cls-3" d="M19.14,57.56a.21.21,0,0,0-.13-.4.2.2,0,0,0-.12.26A.2.2,0,0,0,19.14,57.56Z"/><path class="cls-3" d="M18,56.62a.2.2,0,0,0-.25-.14.19.19,0,0,0-.12.26.2.2,0,1,0,.37-.12Z"/><path class="cls-3" d="M18.81,56.56a.2.2,0,0,0,.12-.26.19.19,0,0,0-.25-.13.21.21,0,0,0,.13.39Z"/><path class="cls-3" d="M17.69,57.27a.22.22,0,0,0-.26-.14.18.18,0,0,0-.11.13,1.6,1.6,0,0,1,.05.21.19.19,0,0,0,.2.06A.21.21,0,0,0,17.69,57.27Z"/><path class="cls-3" d="M19.11,55.91a.19.19,0,0,0,.12-.26.2.2,0,1,0-.37.12A.21.21,0,0,0,19.11,55.91Z"/><path class="cls-3" d="M18.17,56.22A.21.21,0,0,0,18.3,56h0a.22.22,0,0,0-.26-.14.2.2,0,0,0-.11.11.21.21,0,0,0,0,.16A.19.19,0,0,0,18.17,56.22Z"/><path class="cls-3" d="M19.17,59.21a.2.2,0,0,0,.12-.26.2.2,0,1,0-.38.12A.22.22,0,0,0,19.17,59.21Z"/><path class="cls-3" d="M19,59.61h0a.2.2,0,0,0-.26-.13.18.18,0,0,0-.11.14Z"/><path class="cls-3" d="M19.8,59.55a.21.21,0,0,0,.13-.26.22.22,0,0,0-.26-.14.2.2,0,0,0-.12.26A.2.2,0,0,0,19.8,59.55Z"/><path class="cls-3" d="M18.53,58.87a.2.2,0,0,0,.12-.26.2.2,0,0,0-.25-.14.2.2,0,0,0-.12.26A.21.21,0,0,0,18.53,58.87Z"/><path class="cls-3" d="M19.47,58.56a.21.21,0,0,0,.12-.27.19.19,0,0,0-.25-.13.2.2,0,0,0-.12.26A.2.2,0,0,0,19.47,58.56Z"/><path class="cls-3" d="M18.35,59.26a.2.2,0,1,0-.37.13.19.19,0,0,0,.25.13A.2.2,0,0,0,18.35,59.26Z"/><path class="cls-3" d="M18.84,58.21a.21.21,0,0,0-.14-.39.21.21,0,0,0-.12.26A.2.2,0,0,0,18.84,58.21Z"/><path class="cls-3" d="M17.9,58.53a.2.2,0,0,0,.11-.11.19.19,0,0,0,0-.15h0a.2.2,0,0,0-.26-.13.21.21,0,0,0-.12.26.22.22,0,0,0,.26.14Z"/><path class="cls-3" d="M21.16,61.54a.2.2,0,0,0-.19-.06.22.22,0,0,0-.12.27s0,0,0,0A3.25,3.25,0,0,1,21.16,61.54Z"/><path class="cls-3" d="M15.58,51.56a.19.19,0,0,0,.11-.18l-.35.07A.2.2,0,0,0,15.58,51.56Z"/><path class="cls-3" d="M17,55.28a.2.2,0,1,0-.37.12.21.21,0,0,0,.25.14A.19.19,0,0,0,17,55.28Z"/><path class="cls-3" d="M16,55.85a.19.19,0,0,0,.12-.26.2.2,0,0,0-.25-.14.22.22,0,0,0-.12.27.18.18,0,0,0,.08.09l.1,0Z"/><path class="cls-3" d="M16.47,55.8a.19.19,0,0,0-.12.24l.23.15s0,0,0,0a.2.2,0,0,0,.12-.26A.19.19,0,0,0,16.47,55.8Z"/><path class="cls-3" d="M15.42,55.43l-.12.08s0,0,0,0S15.39,55.47,15.42,55.43Z"/><path class="cls-3" d="M16,55.06a.22.22,0,0,0,.26.14.2.2,0,0,0,.12-.26.21.21,0,0,0-.24-.14L16,55A.2.2,0,0,0,16,55.06Z"/><path class="cls-3" d="M17.29,59.84a.22.22,0,0,0,.12-.27.2.2,0,1,0-.37.13A.2.2,0,0,0,17.29,59.84Z"/><path class="cls-3" d="M17.59,59.18a.21.21,0,0,0,.13-.26.22.22,0,0,0-.26-.14.2.2,0,0,0-.12.26A.2.2,0,0,0,17.59,59.18Z"/><path class="cls-3" d="M56.68,54.2H20l.2-10.29h36.7Zm.23-12.66H20.21l.19-10.29H57.11ZM20.35,28.84l.2-10.29h36.7l-.19,10.29Z"/><path class="cls-3" d="M59.38,54l.19-10.29H96.28L96.09,54Zm.4-25.12L60,18.55H96.68l-.19,10.29Z"/><path class="cls-3" d="M122.74,43.77,123,28.94H98.9l.19-10.29H135.8l-.6,35.41H98.5l.19-10.29Z"/><path class="cls-3" d="M174.65,54.3H137.94l.2-10.3h36.7Zm.23-12.66h-36.7l.19-10.29h36.71Zm-36.56-12.7.2-10.29h36.7L175,28.94Z"/></g></g></svg>