<?xml version="1.0" encoding="utf-8"?>
<!-- Generator: Adobe Illustrator 26.0.2, SVG Export Plug-In . SVG Version: 6.00 Build 0)  -->
<svg version="1.1" xmlns="http://www.w3.org/2000/svg" xmlns:xlink="http://www.w3.org/1999/xlink" x="0px" y="0px"
	 viewBox="0 0 513.1 246.3" style="enable-background:new 0 0 513.1 246.3;" xml:space="preserve">
<style type="text/css">
	.st0{fill:#842F33;}
	.st1{fill:#FFFFFF;}
	.st2{fill:#DDB223;}
	.st3{fill:#CB4042;}
	.st4{fill:#FAECEC;}
	.st5{fill:#3F3D56;}
	.st6{fill:#FFDCDC;}
	.st7{fill:#2F2E41;}
</style>
<g id="レイヤー_1">
	<g>
		<path class="st0" d="M511.9,137.8c-0.3-1.1-0.6-2.2-1-3.3c0,0,0-0.1,0-0.2c0.5-6.8,0-13.7-1.6-20.4c-3.8-16.1-13.7-31.3-27.8-42.8
			c-4.3-3.5-10.6-2.9-14.1,1.4c-1.5,1.8-2.3,4.1-2.2,6.4c-4.1-3.1-8.5-5.7-13.1-8c0,0,0,0,0,0v-24c0-4.6-2.2-9-5.9-11.7v-8.1
			c0-6.8-5.5-12.3-12.3-12.3h-4.8c-6.7,0.1-12.1,5.5-12.2,12.3v8c-0.1,0.1-0.3,0.2-0.4,0.3c0,0,0,0,0,0h0c0,0,0,0,0,0
			c-2.1-1.7-4.8-2.6-7.5-2.6h-4.7c-6.7-0.1-12.2,5.3-12.3,12v0.6l-0.5,0.5c-0.7-7.5-7-13.1-14.5-13.2h-12.3c-3.6,0-6.9,1.3-9.4,3.5
			c-2.3-2.4-5.5-3.7-8.8-3.7h-21.1c-6.8,0-12.3,5.5-12.3,12.3v0.9h-6.7c-2,0-3.9,0.4-5.8,1.2v-1.9c0.1-6.7-5.3-12.2-12-12.3h-40.3
			c-3.7,0-7.1,1.4-9.7,3.8c-2.3-2.5-5.6-4-9-4h-21.1c-6.8,0-12.3,5.5-12.3,12.3v0.9h-6.7c-2,0-3.9,0.4-5.6,1.1V18
			c0.1-6.7-5.2-12.2-12-12.3H167c-6.7-0.1-12.2,5.3-12.3,12v6.5l-7.5,7.5l-3.6-3.7v-7.5c0.1-7.9-6.3-14.5-14.2-14.5h-12.4
			c-8,0-14.5,6.5-14.5,14.5v54.2c-1.5-0.5-3-0.8-4.6-0.8c-1.4,0-2.8,0.2-4.1,0.6c-0.3-0.3-0.6-0.6-0.9-0.8L90.6,72
			c-0.8-0.7-1.8-1.2-2.8-1.5c0,0,0,0,0,0c-0.1-0.3-0.1-0.5-0.2-0.7s-0.1-0.2-0.1-0.4c-1.7-5.3-6.8-11.5-13.9-12.2
			c-0.5,0-0.9-0.1-1.4-0.1c-1.7,0-3.4,0.3-5.1,0.9l-1-0.2c-1.6-0.3-3.3-0.5-4.9-0.5h-0.5c-3.6,0.2-7.1,1.2-10.3,3
			c-2.4,1.2-4.6,2.8-6.5,4.7c-3,3-4.8,7.1-4.9,11.4c0,0.1,0,0.2,0,0.3c-1.8,3.3-2.2,7.3-1,10.9c0.1,0.4,0.2,0.7,0.4,1.1
			c0.9,2,2.1,3.8,3.5,5.4c0.3,0.5,0.6,0.9,0.8,1.4l-0.3,0.3c-2.1,1.5-3.8,3.4-4.9,5.7c-2.9,5.5-3.5,11.8-1.8,17.7
			c2.3,8.1,3,10.8,3.1,11.6c0.4,2.8,1.5,5.5,3.3,7.8c-0.3,5.6-2.3,18.8-3.2,24.8c-1.2,7.6-1.4,9.2-1.4,10.6c0,1.3,0.2,2.7,0.6,3.9
			c0,0,0,0,0,0c0.1,3.7,1.1,8,2.6,13.2c-2.5-3.6-7-5.2-11.2-3.9c-0.5,0.2-1.1,0.4-1.6,0.6c-0.9-0.2-1.8-0.4-2.7-0.4
			c-2.3,0-4.5,0.8-6.3,2.3c-4,3.2-6.8,7.6-8,12.5c-0.5,1.9-0.6,3.9-0.5,5.9c0,0,0,0,0-0.1c-3.1,1.8-5,5.2-4.8,8.8
			c0,9.4,10.3,11,13.6,11.5c3.6,0.6,8.6,1,15,1.5c2.2,0.2,4.6,0.3,7.1,0.4c0,0,0,0,0,0c0.7,2.4,1.6,5.1,2.8,8.2
			c0.1,0.3,0.2,0.6,0.4,0.8c2.5,4.6,7.4,7.4,12.7,7.2c1.7,0,3.5-0.2,5.1-0.7c2.3-0.6,8.3-2.2,11.2-14.7h0h2h7.7
			c18.3,0,35.5-0.5,48.5-1.4c6.5-0.4,11.7-0.9,15.4-1.5s13.8-2.1,13.8-11.6s-10.3-11-13.6-11.5c-3.6-0.6-8.6-1-15-1.5l-2.1-0.1
			c-0.6-3.3-2.5-6.2-5.2-8.1l0,0c0.1-0.7,0.4-1.4,0.6-2.1c0.9-2.1,1.5-5.3,2.1-10.7h0h5.6H214c5.8,0,10.9-2.6,14.3-6.7
			c2.7,4,7.2,6.5,12.1,6.5H280c3.4,0,6.6-1.2,9-3.2h0.2c-0.1,0.1-0.2,0.1-0.2,0.2c2.6,2.2,5.9,3.3,9.2,3.3h28.5
			c2,1.4,4.4,2.1,6.8,2.1h4.7c5.7,0,10.7-4,11.9-9.5c0,0,0,0,0,0h0c2.6,4.2,7.1,7,12.4,7h25.9c2.5,0,4.9-0.7,6.9-2.1
			c2.3,1.5,5,2.3,7.8,2.3h34.6c3,0,5.8-0.9,8.3-2.7c-0.5-0.4-0.9-1-1.3-1.5h0.1c0.4,0.5,0.8,1,1.3,1.5c1.9,1.7,4.3,2.7,6.8,2.7h20.7
			c0.1,0,0.2,0,0.2,0h-0.1c0.5,0.1,0.9,0.1,1.4,0.1H489c1.6,0,3.2-0.4,4.7-1.2c0.8-0.4,1.6-0.9,2.4-1.4c3.7-2.3,6.9-5.3,9.5-8.8
			C512.4,161.8,514.7,149.4,511.9,137.8z M265.1,39.8c0,0,0.1,0,0.1,0c0.1,0,0.1,0,0.2,0C265.3,39.8,265.2,39.8,265.1,39.8z"/>
		<path class="st1" d="M506.3,132.1c-0.3-1.2-0.6-2.3-1-3.4c0,0,0,0,0,0c0-0.1-0.1-0.1-0.1-0.2v-0.1c0,0.1,0.1,0.2,0.1,0.3
			c0.5-6.8,0-13.7-1.6-20.4c-3.8-16.1-13.7-31.3-27.7-42.8c-4.3-3.5-10.6-2.9-14.1,1.4c-1.5,1.8-2.3,4.1-2.3,6.4
			c-4.1-3.1-8.5-5.7-13.1-8c0,0,0,0,0,0v-24c0-4.6-2.2-9-5.9-11.7v-8.1c0-6.8-5.5-12.3-12.3-12.3h-4.8c-6.7,0.1-12.2,5.5-12.3,12.3
			v8c-0.1,0.1-0.3,0.2-0.4,0.3c-2.1-1.7-4.8-2.6-7.5-2.6h-4.7c-6.7-0.1-12.2,5.3-12.3,12c0,0.1,0,0.2,0,0.3v0.3l-0.5,0.5
			c-0.7-7.5-7-13.1-14.5-13.2h-12.3c-3.6,0-6.9,1.3-9.4,3.5c-2.3-2.4-5.5-3.7-8.8-3.7h-21.1c-6.8,0-12.3,5.5-12.3,12.3V40h-6.6
			c-1.8,0-3.6,0.4-5.3,1h-0.5v-1.6c0.1-6.7-5.3-12.2-12-12.3c-0.1,0-0.2,0-0.3,0h-7.6h-13.3h-0.1h-1.9H255h-12.2
			c-3.7,0-7.1,1.4-9.7,3.7c-2.3-2.5-5.6-4-9-4H203c-6.8,0-12.3,5.5-12.3,12.3V40h-6.7c-1.9,0-3.7,0.4-5.3,1h-0.4V12.3
			c0.1-6.7-5.3-12.2-12-12.3c-0.1,0-0.2,0-0.3,0h-4.8c-6.7-0.1-12.2,5.3-12.3,12c0,0.1,0,0.2,0,0.3v6.1l-7.5,7.5l-3.6-3.6v-7.4
			c0.1-7.9-6.3-14.5-14.2-14.5c-0.1,0-0.2,0-0.3,0h-12.1c-8,0-14.5,6.5-14.6,14.6V69c-1.5-0.5-3-0.8-4.6-0.8c-1.4,0-2.7,0.2-4.1,0.6
			c-0.3-0.3-0.6-0.6-0.9-0.9L85,66.3c-0.8-0.7-1.8-1.2-2.8-1.5l0,0C82.1,64.5,82,64.3,82,64c0-0.3-0.1-0.2-0.1-0.4
			c-1.8-5.3-6.8-11.4-13.9-12.1c-0.5,0-0.9-0.1-1.4-0.1c-1.7,0-3.4,0.3-5.1,0.9c-0.3,0-0.7-0.1-0.9-0.2c-1.6-0.3-3.3-0.5-4.9-0.5
			h-0.5c-3.6,0.2-7.1,1.2-10.3,3c-2.4,1.2-4.7,2.8-6.6,4.7c-3,3-4.8,7.1-4.9,11.3c0,0.1,0,0.2,0,0.3c-1.8,3.4-2.1,7.3-1,10.9
			c0.1,0.4,0.3,0.7,0.4,1.1c0.9,1.9,2,3.7,3.4,5.3c0.3,0.4,0.6,0.9,0.8,1.4c0,0.1,0.1,0.1,0.1,0.2c0-0.1-0.1-0.1-0.1-0.2l-0.3,0.3
			c-2.1,1.4-3.8,3.4-4.9,5.7c-2.9,5.4-3.5,11.8-1.8,17.7c2.3,8.1,3,10.8,3.2,11.6c0.4,2.8,1.5,5.5,3.3,7.8
			c-0.3,5.6-2.3,18.8-3.2,24.8c-1.2,7.6-1.4,9.2-1.4,10.6c0,1.3,0.2,2.6,0.6,3.9c0.3,0.9,0.7,1.9,1.3,2.8c-0.6-0.9-1-1.9-1.3-2.8
			c0.1,3.7,1.1,8,2.6,13.2c-2.5-3.6-7-5.2-11.1-3.9c-0.6,0.2-1.1,0.4-1.6,0.6c-3.1-0.9-6.5-0.2-9,1.9c-4,3.2-6.8,7.5-8,12.5
			c-0.5,1.9-0.6,3.9-0.5,5.9c0.1,1.4,0.3,2.8,0.7,4.1c-0.4-1.4-0.6-2.8-0.7-4.2c-3.1,1.8-5,5.2-4.8,8.8c0,9.4,10.3,11,13.6,11.5
			c3.6,0.5,8.6,1,15,1.5c2.2,0.1,4.6,0.3,7.1,0.4c0,0,0,0,0,0c0.7,2.4,1.6,5.1,2.8,8.2c0.1,0.3,0.2,0.6,0.4,0.8
			c2.5,4.6,7.4,7.4,12.7,7.2c1.7,0,3.5-0.3,5.1-0.7c2.3-0.6,8.3-2.2,11.2-14.7c0.1-0.5,0.2-1.1,0.3-1.6h0c-0.1,0.6-0.2,1.1-0.4,1.6
			c2.6,0,5.3,0,8,0h1.7c18.3,0,35.5-0.5,48.5-1.4c6.5-0.4,11.7-1,15.4-1.5s13.8-2.1,13.8-11.6c0-9.5-10.3-11-13.6-11.5
			c-3.6-0.6-8.6-1-15-1.5l-2.1-0.1c-0.6-3.3-2.5-6.2-5.2-8.1c-0.1,0.5-0.2,1-0.2,1.5c0,0,0,0,0,0c0-0.5,0.1-1,0.2-1.6
			c0.1-0.7,0.4-1.5,0.7-2.2c0.9-2.1,1.5-5.3,2.1-10.7h0h2.2h84.1c5.8,0,10.9-2.6,14.3-6.7c2.7,4.1,7.2,6.5,12.1,6.5h39.6
			c5.6,0,10.4-3.1,12.8-7.7h0c-0.9,1.8-2.2,3.4-3.9,4.7c2.6,2.1,5.9,3.3,9.2,3.3h28.5c2,1.4,4.4,2.1,6.8,2.1h4.7
			c5.7,0,10.6-3.9,11.9-9.5c2.6,4.2,7.2,7,12.5,7h25.9c2.4,0,4.8-0.7,6.9-2.1c0,0,0,0,0,0c2.3,1.5,5,2.4,7.8,2.4h34.6
			c3,0,5.9-0.9,8.3-2.7c-0.2-0.2-0.3-0.3-0.5-0.5c0.1,0.1,0.3,0.3,0.4,0.4c1.8,1.7,4.3,2.7,6.8,2.7h21c0.5,0.1,0.9,0.1,1.4,0.1h13.8
			c1.6,0,3.2-0.4,4.7-1.2c0.8-0.4,1.6-0.9,2.4-1.4c3.7-2.3,6.9-5.3,9.5-8.8C506.7,156.1,509,143.8,506.3,132.1z M29.6,186.5
			c-0.5-0.1-1-0.1-1.5-0.1c0,0,0,0,0,0C28.6,186.4,29.1,186.4,29.6,186.5L29.6,186.5z M32,186c0.3,0,0.6-0.1,0.9-0.1
			C32.6,185.9,32.3,186,32,186z M37.7,90.6c0-0.1-0.1-0.1-0.1-0.2C37.6,90.5,37.6,90.6,37.7,90.6c0,0.1,0.1,0.2,0.1,0.2
			C37.7,90.8,37.7,90.7,37.7,90.6z M39.8,186.5L39.8,186.5c0.2-0.5,0.5-1,0.8-1.5C40.3,185.5,40,186,39.8,186.5z M119,191.1
			c1,2.4,2.4,7-0.2,11.6c-0.3,0.5-0.6,0.9-0.9,1.3v0c0.3-0.4,0.6-0.8,0.9-1.3C121.4,198.1,120,193.5,119,191.1z M331.5,40
			C331.5,40,331.5,40,331.5,40l0.1,0C331.5,40,331.5,40,331.5,40z M461.2,171.9C461.1,171.8,461.1,171.8,461.2,171.9
			C461.2,171.9,461.2,171.9,461.2,171.9C461.2,171.9,461.2,171.9,461.2,171.9z"/>
		<path class="st2" d="M332.6,123.3h-21.1c-1.2,0-2.3,1-2.3,2.3v4.8c-0.1,1.2,0.8,2.2,2,2.3c0.1,0,0.2,0,0.3,0h14.1v33.9
			c0,0.1,0,0.1,0,0.2c0.2,1.1,1.1,2,2.3,2.1h4.7c1.2,0,2.3-1,2.3-2.3v-41C334.9,124.3,333.9,123.3,332.6,123.3z M323.3,145.8
			c1.2,0.1,2.2-0.8,2.3-2c0-0.1,0-0.2,0-0.3v-4.8c0-1.3-1-2.3-2.3-2.3h-30.8c-2.5,0-4.5,2-4.6,4.6v21.1c0,2.5,2,4.5,4.5,4.6h30.8
			c1.2,0,2.3-1,2.3-2.2c0,0,0,0,0-0.1v-5c0-1.2-1-2.3-2.3-2.3h-13.9v-11.3H323.3z"/>
		<path class="st3" d="M340.9,36.8h-21.1c-1.2,0-2.3,1-2.3,2.3v4.8c-0.1,1.2,0.8,2.2,2,2.3c0.1,0,0.2,0,0.3,0h14.1v33.9
			c0,0.1,0,0.1,0,0.2c0.2,1.1,1.1,2,2.3,2.1h4.7c1.2,0,2.3-1,2.3-2.3v-41C343.1,37.9,342.1,36.9,340.9,36.8z M331.6,59.4
			c1.2,0.1,2.2-0.8,2.3-2c0-0.1,0-0.2,0-0.3v-4.8c0-1.3-1-2.3-2.3-2.3h-30.8c-2.5,0-4.5,2.1-4.5,4.5v21.1c0,2.5,2,4.5,4.5,4.6h30.8
			c1.2,0,2.3-1,2.3-2.2c0,0,0,0,0,0v-5c0-1.2-1-2.3-2.3-2.3h-13.9V59.4H331.6z"/>
		<path class="st3" d="M168.4,12.3v65.5c0,1.2-1,2.3-2.3,2.3h-4.8c-1.3,0-2.3-1-2.3-2.3V35.9l-15.9,15.7c-0.8,0.9-2.2,0.9-3.1,0.1
			c0,0-0.1-0.1-0.1-0.1l-12-11.8v35.7c0.1,2.5-1.9,4.5-4.3,4.6c-0.1,0-0.1,0-0.2,0h-12.1c-2.5,0-4.5-2.1-4.6-4.6V14.8
			c0-2.5,2-4.5,4.6-4.6h12.1c2.4-0.1,4.5,1.8,4.6,4.2c0,0.1,0,0.2,0,0.3v11.6L141.6,40L159,22.6V12.3c-0.1-1.2,0.8-2.2,2-2.3
			c0.1,0,0.2,0,0.3,0h4.8c1.2-0.1,2.2,0.8,2.3,2C168.4,12.1,168.4,12.2,168.4,12.3z"/>
		<path class="st2" d="M405.7,39.4v38.4c-0.1,1.2-1.1,2.2-2.3,2.3h-4.7c-1.2,0-2.3-1-2.3-2.3V57.1l-10.3,10.2
			c-0.7,0.7-1.8,0.9-2.7,0.5c-0.2-0.1-0.4-0.2-0.5-0.5l-7-7v15.4c0,2.5-2,4.5-4.5,4.6h-12.3c-2.5,0-4.5-2-4.5-4.5c0,0,0,0,0-0.1v-34
			c0-2.5,2-4.5,4.5-4.5c0,0,0.1,0,0.1,0h12.3c2.5,0,4.5,2,4.5,4.5v5.5l8.6,8.7l11.6-11.7l0.3-0.2v-4.6c-0.1-1.2,0.8-2.2,2-2.3
			c0.1,0,0.2,0,0.3,0h4.7C404.6,37.1,405.6,38.1,405.7,39.4C405.7,39.4,405.7,39.4,405.7,39.4z"/>
		<path class="st3" d="M436.6,41.2v34.5c0,2.5-2.1,4.6-4.6,4.6h-12.2c-2.5,0-4.5-2-4.5-4.5c0,0,0-0.1,0-0.1V41.2
			c0-2.5,2-4.5,4.5-4.6c0,0,0.1,0,0.1,0H432C434.5,36.7,436.6,38.7,436.6,41.2C436.6,41.2,436.6,41.2,436.6,41.2z M421.3,31.7V21.4
			c0.1-1.2,1.1-2.2,2.3-2.3h4.8c1.3,0,2.3,1,2.3,2.3v10.3c0.1,1.2-0.8,2.2-2,2.3c-0.1,0-0.2,0-0.3,0h-4.8
			C422.3,33.9,421.3,32.9,421.3,31.7L421.3,31.7z"/>
		<path class="st3" d="M239.8,117.8v8.7h36.8c1.2,0,2.3,1,2.3,2.3v33.2c0,2.5-2,4.5-4.5,4.6h-39.6c-2.5,0-4.5-2.1-4.6-4.6v-12.3
			c0-2.5,2.1-4.5,4.6-4.6h34.9v-9.3h-36.9c-1.2,0.1-2.2-0.8-2.3-2c0-0.1,0-0.2,0-0.2V101c0-2.5,2-4.6,4.5-4.6c0,0,0,0,0,0h39.6
			c2.5,0,4.5,2.1,4.5,4.6v12.3c0,2.5-2,4.5-4.5,4.6L239.8,117.8z"/>
		<path class="st3" d="M373.8,133.5v23.4h9.1c1.2-0.1,2.2,0.8,2.3,2c0,0.1,0,0.2,0,0.3v4.7c0.1,1.2-0.8,2.2-2,2.3
			c-0.1,0-0.2,0-0.3,0H357c-2.5,0-4.5-2-4.5-4.5c0,0,0-0.1,0-0.1v-28.1H346c-1.2,0-2.3-1-2.3-2.2c0,0,0,0,0-0.1v-4.8
			c0.1-1.2,1.1-2.2,2.3-2.3h6.4v-3.4c0-2.5,2-4.5,4.5-4.6c0,0,0.1,0,0.1,0h12.3c2.5,0,4.5,2,4.5,4.6v3.4h9.1c1.3,0,2.3,1,2.3,2.3
			v4.8c0.1,1.2-0.8,2.2-2,2.3c-0.1,0-0.2,0-0.3,0L373.8,133.5z"/>
		<path class="st3" d="M436.8,101v61.6c-0.4,2.2-2.3,3.8-4.5,3.9h-34.6c-2.2-0.1-4.1-1.7-4.5-3.9V101c0-2.5,2-4.5,4.4-4.6
			c0,0,0.1,0,0.1,0h34.6C434.7,96.5,436.8,98.5,436.8,101z M402.4,148.1h25v-33.4h-25V148.1z"/>
		<path class="st2" d="M195.3,135.2c-4.2,0-7.6,3.4-7.6,7.6c0,4.2,3.4,7.6,7.6,7.6s7.6-3.4,7.6-7.6c0,0,0,0,0,0
			C202.9,138.6,199.5,135.2,195.3,135.2z"/>
		<path class="st2" d="M208.9,104.5L208.9,104.5c0-2.1-1.7-3.9-3.9-3.9h-12c-2.1,0-3.8,1.7-3.9,3.8h-1.9c-2.8,0-5.6-0.2-8.4-0.6
			c-4-0.5-7.3-3.5-8.2-7.4l-0.9-3.8c-0.9-3.1-3.6-5.4-6.9-5.5h-28.4c-3.3,0.1-6.1,2.3-6.9,5.5l-1.1,4.5c-0.8,3.2-3.2,5.8-6.4,6.9
			l-4.3,1.4c-4.8,1.8-8,6.3-8.2,11.4v41c0,4.8,3.9,8.7,8.7,8.7h92c4.8,0,8.7-3.9,8.7-8.7v-44.6C217,108.6,213.4,104.8,208.9,104.5z
			 M138.1,97c0-1.1,0.8-1.9,1.9-1.9c0,0,0,0,0,0h16.9c1.1,0,1.9,0.8,1.9,1.9c0,0,0,0,0,0v8.6c0,1.1-0.9,1.9-1.9,1.9H140
			c-1.1,0-1.9-0.9-1.9-1.9L138.1,97z M173.6,154.2c0,1.1-0.9,1.9-1.9,1.9H120c-1.1,0-1.9-0.9-1.9-1.9v-30.9c0-1.1,0.9-1.9,1.9-1.9
			h51.7c1.1,0,1.9,0.9,1.9,1.9L173.6,154.2z M195.3,154.1c-6.2,0-11.2-5-11.2-11.2s5-11.2,11.2-11.2s11.2,5,11.2,11.2l0,0
			C206.5,149.1,201.5,154.1,195.3,154.1L195.3,154.1z"/>
		<path class="st3" d="M224.1,36.8H203c-1.2,0-2.3,1-2.3,2.3v4.8c-0.1,1.2,0.8,2.2,2,2.3c0.1,0,0.2,0,0.3,0h14.1v33.8
			c0,0.1,0,0.1,0,0.2c0.2,1.1,1.1,2,2.3,2.1h4.7c1.2,0,2.3-1,2.3-2.3v-41C226.4,37.9,225.4,36.9,224.1,36.8z"/>
		<path class="st3" d="M214.8,59.4c1.2,0.1,2.2-0.8,2.3-2c0-0.1,0-0.2,0-0.3v-4.8c0-1.3-1-2.3-2.3-2.3h-30.8c-2.5,0-4.5,2.1-4.6,4.5
			v21.1c0,2.5,2,4.5,4.6,4.6h30.8c1.2,0,2.3-1,2.3-2.2c0,0,0,0,0,0v-5c0-1.2-1-2.3-2.3-2.3h-13.9V59.4H214.8z"/>
		<path class="st3" d="M217.1,50v2.3c0-1.3-1-2.3-2.3-2.3H217.1z"/>
		<path class="st3" d="M217.1,70.7V73c0-1.2-1-2.3-2.3-2.3L217.1,70.7z"/>
		<path class="st3" d="M217.1,80.3h-2.3c1.2,0,2.3-1,2.3-2.2c0,0,0,0,0,0v2.1C217.1,80.1,217.1,80.2,217.1,80.3z"/>
		<path class="st3" d="M283,37.1c-0.1,0-0.2,0-0.2,0h-20.9H255h0c0,0,0,0,0,0c0,0,0,0,0,0h-12.2c-2.5,0-4.5,2-4.6,4.4
			c0,0,0,0.1,0,0.1v34c0,2.5,2,4.5,4.4,4.5c0,0,0.1,0,0.1,0H255c2.5,0,4.5-2,4.5-4.5v-34c0-0.3,0-0.6-0.1-0.8
			c0.1,0.3,0.1,0.6,0.1,0.8v2.5v2.3h2.2c0,0,0,0,0,0c0,0,0,0,0.1,0h13.9v31.4c0.1,1.2,1.1,2.2,2.3,2.3h4.7c1.2,0,2.3-1,2.3-2.3V39.4
			C285.1,38.2,284.2,37.2,283,37.1z"/>
		<path class="st3" d="M100,118.3c0,0-3.7-7-3.7-11.3S90,99.4,90,99.4s-19.3-4.7-21.6-5.3s-5.3,2.7-9.6,2s-7-1-7-1l-3,1
			c-1,0.3-2,0-3.7,0s0,1.7-2.4,2c-0.8,0.1-1.5,1-2.1,2.2c-1.7,3.2-2,6.9-1,10.3c1.4,4.9,3.5,12.4,3.5,13c0,1,1,3,3,5
			c2,2-4.3,36.9-4.3,39.5s2.3,2.3,19.9,4s26.2-3.3,31.2-9s0.4-6.4-3-9.6c-4-3.7-8.1-23.1-5.3-29.3c0.6-1.3,1.2-2.7,1.7-4.1
			c1.8,3,5.9,8.7,10.3,8.2C102.7,127.6,100,118.3,100,118.3z"/>
		<path class="st2" d="M325.6,143.6v2.3h-2.3c1.2,0.1,2.2-0.8,2.3-2C325.6,143.7,325.6,143.6,325.6,143.6z"/>
		<path class="st2" d="M325.6,136.5v2.3c0-1.3-1-2.3-2.3-2.3H325.6z"/>
		<path class="st2" d="M325.6,157.1v2.3c0-1.2-1-2.3-2.3-2.3H325.6z"/>
		<path class="st2" d="M325.6,166.7h-2.3c1.2,0,2.3-1,2.3-2.2c0,0,0,0,0-0.1v2.1C325.6,166.5,325.6,166.6,325.6,166.7z"/>
		<path class="st3" d="M333.8,70.7V73c0-1.2-1-2.3-2.3-2.3L333.8,70.7z"/>
		<path class="st3" d="M333.9,80.3h-2.3c1.2,0,2.3-1,2.3-2.2c0,0,0,0,0,0v2.1C333.8,80.1,333.8,80.2,333.9,80.3z"/>
		<path class="st3" d="M217.1,57.1v2.3h-2.3c1.2,0.1,2.2-0.8,2.3-2C217.1,57.3,217.1,57.2,217.1,57.1z"/>
		<path class="st4" d="M486,153.8c-3.2,4.4-7.2,8.1-11.8,11c-1,0.6-2,1.2-3,1.7h-23.9c0.3-0.6,0.6-1.1,0.8-1.7
			c15.2-32.1,8.3-70.3-17.2-95c14.5,4.5,27.8,13.2,36.5,25.5c4.3,6,7.3,12.8,8.9,20c1.4-14.3-0.9-28.8-6.7-42
			c11.7,9.6,20.9,22.6,24.4,37.3S495,141.6,486,153.8z"/>
		<path class="st4" d="M491.9,159.3c-1.9,2.5-4.2,4.6-6.8,6.3c-0.6,0.4-1.1,0.7-1.7,1h-13.8c0.2-0.3,0.3-0.7,0.5-1
			c8.7-18.5,4.8-40.4-9.9-54.7c8.3,2.6,16,7.6,21,14.7c2.4,3.5,4.2,7.4,5.1,11.5c0.8-8.3-0.5-16.6-3.8-24.2c6.8,5.5,12,13,14,21.5
			S497.1,152.3,491.9,159.3z"/>
		<path class="st5" d="M96.4,82.6c-1.8-5.8-5.4-4.2-5.4-4.2L85.6,80l-1.7-1.6L81.2,79l-1.6-1.6l1.1-0.4l0.2-1l-2.2-1.7l-6.2,1.3
			l-0.5,1.8l0.3,0.3l-1.9,7.8l12.2,11.8l1,0.3l2.8-0.8L88,91l7.2-2C95.2,89,98.2,88.4,96.4,82.6z"/>
		
			<ellipse transform="matrix(1 -1.570794e-03 1.570794e-03 1 -0.331 0.1222)" class="st4" cx="77.6" cy="210.8" rx="67.6" ry="4.4"/>
		<polygon class="st3" points="80.6,85.5 79,91.8 71.7,84.9 73.5,78.5 		"/>
		<ellipse transform="matrix(0.2429 -0.97 0.97 0.2429 -13.9052 133.4933)" class="st3" cx="78.6" cy="75.7" rx="0.7" ry="1"/>
		<ellipse transform="matrix(0.2429 -0.97 0.97 0.2429 -17.9576 148.7248)" class="st3" cx="86.3" cy="85.9" rx="0.7" ry="1"/>
		<path class="st6" d="M92.7,103l-1.7-5.6c0,0,4.3-10.3-0.7-11.3s-5.3,9.6-5.3,9.6l2,6.3L92.7,103z"/>
		<circle class="st6" cx="61.9" cy="78.9" r="13.2"/>
		<path class="st6" d="M66.2,88.2c0,0,0.8,9.7,2.7,10.5s-17.3,6.2-17.3,6.2l5.8-6.6c0,0-2.4-10.1-5.2-12.4L66.2,88.2z"/>
		<path class="st7" d="M108.3,197.4c0,0,5.7-1.7,6.3,2c0,0,1,5.6-3.3,7.6c-2.8,1.3-5.5,2.9-8,4.6c0,0-7,2.7-7.3-0.7
			s1.3-15.3,1.3-15.3L108.3,197.4z"/>
		<path class="st7" d="M112.6,148.6c-0.4-1.4-1.3-2.6-2.5-3.3c-3.6-2.3-8.1-2.2-11.6,0.2l-10.7,7.4c0,0-39.8,14.6-43.5,15.3
			s-1,10,3,22.2c2.4,6.9,6.1,13.2,11.1,18.5l0,0c0.9,1,1.8,1.9,2.9,2.8c0.1,0,0.3,0,0.4-0.1l0.1,0.1c0,0,7-1.1,8.8-6.3
			c0.4-0.4,0.7-0.9,1-1.4c2-3.7-1.7-16.9-1.7-16.9c5.2-1.1,10.4-1.8,15.6-2.3c4.8-0.4,9.7-7.2,12.9-12.5c0.2,4.6,0.7,10.5,1.1,10.9
			c0.6,0.7-4.4,13.6-3.4,13.9s10.6,1.7,13,1.3s1-3,0.3-4.6s-0.3-6.3,1.3-10.3s2.7-24.2,3-29.9C113.8,150.4,113.2,149.1,112.6,148.6z
			"/>
		<path class="st7" d="M55.9,186.7c0,0,7,2,6,9s-2.3,14.5-2.3,14.5s-0.4,18.7-5.4,20s-6.3-1.3-6.3-1.3s-5.7-14.6-4-18.9
			c2-5.3,5-11.2,4-13S48.5,185.7,55.9,186.7z"/>
		<path id="e7c770ea-313c-4db5-898e-f0c92c7afc68-1034" class="st7" d="M66.9,61.4c-1.2-0.1-2.4,0.5-3.6,0.8c-2.5,0.5-5-0.6-7.6-0.6
			c-2.2,0.1-4.3,0.8-6.2,1.9c-1.5,0.7-3,1.7-4.2,2.9c-1.2,1.2-1.9,2.9-2,4.6c0.2,1,0.1,2-0.1,3c-0.3,0.5-0.6,1-0.9,1.4
			c-0.6,1-0.8,2.3-0.4,3.4c0.5,1.1,1.2,2.2,2.1,3.1c1.6,2.1,2.7,4.6,4.2,6.9c0.6,1,1.4,1.9,2.2,2.8c0.1,0.1,0.3,0.3,0.5,0.4
			C51,92,51.1,92,51.3,92c3.1,0.1,6.4,0.2,9.3-1.1c0.9-0.3,1.7-1,2.2-1.8c0.4-1.1,0.5-2.4,0.2-3.6c-0.1-1.3-0.1-2.7,0.1-4
			c0-0.4,0.2-0.9,0.5-1.2c0.5-0.3,1.1-0.3,1.6,0c0.5,0.3,1,0.4,1.6,0.5c1.1,0,1.8-1.2,2-2.3c-0.2-1.9,0.6-3.9,2.2-5
			c1.5-1.9,2-4.4,1.4-6.8C71.6,64.5,69.4,61.7,66.9,61.4z"/>
		<path class="st4" d="M16.6,206.7c0.6,0.8,1.4,1.5,2.2,2.1l0.6,0.3h4.5l-0.2-0.3c-2.8-6-1.5-13.2,3.2-17.8
			c-2.7,0.8-5.1,2.5-6.9,4.8c-0.8,1.1-1.4,2.4-1.7,3.8c-0.3-2.7,0.2-5.4,1.2-7.9c-2.2,1.8-3.9,4.2-4.6,7
			C14.4,201.4,14.9,204.3,16.6,206.7z"/>
		<path class="st4" d="M26,206.4c0.4,0.6,0.9,1,1.5,1.4l0.4,0.2h3c0-0.1-0.1-0.1-0.1-0.2c-1.9-4-1-8.8,2.2-11.9
			c-1.8,0.5-3.4,1.7-4.6,3.2c-0.5,0.8-0.9,1.6-1.1,2.5c-0.2-1.8,0.1-3.6,0.8-5.3c-1.5,1.2-2.6,2.8-3.1,4.6
			C24.5,202.9,24.9,204.9,26,206.4z"/>
		<path class="st3" d="M333.8,57.1v2.3h-2.3c1.2,0.1,2.2-0.8,2.3-2C333.8,57.3,333.8,57.2,333.8,57.1z"/>
		<path class="st3" d="M333.8,50v2.3c0-1.3-1-2.3-2.3-2.3H333.8z"/>
	</g>
</g>
<g id="レイヤー_2">
</g>
<g id="レイヤー_3">
</g>
</svg>
