<?xml version="1.0" encoding="utf-8"?>
<!-- Generator: Adobe Illustrator 26.0.1, SVG Export Plug-In . SVG Version: 6.00 Build 0)  -->
<svg version="1.1" id="レイヤー_1" xmlns="http://www.w3.org/2000/svg" xmlns:xlink="http://www.w3.org/1999/xlink" x="0px"
	 y="0px" viewBox="0 0 165.2 54.1" style="enable-background:new 0 0 165.2 54.1;" xml:space="preserve">
<style type="text/css">
	.st0{fill:#6D6D6D;}
	.st1{fill:#7AA4A4;}
	.st2{fill:#B7B6B6;}
	.st3{enable-background:new    ;}
	.st4{fill:#A9C4A7;}
</style>
<path class="st0" d="M36.6,33.5c1.9,0,3.2-0.9,3.2-3.3c0.2-1.5-0.9-2.8-2.4-3c-0.2,0-0.4,0-0.7,0h-4.9c-2.7,0-5.1-1.4-5.1-5.1
	s2.1-5.1,5.3-5.1h7.4c0.6,0,1.4,0.3,1.4,1s-0.7,1-1.4,1H32c-2.2,0-3.2,1-3.2,3.1c-0.1,1.6,1.1,3,2.7,3.1c0.1,0,0.3,0,0.4,0h4.9
	c3.4,0,5,2.2,5,5c0,2.4-1.1,5.2-5.3,5.2h-8c-0.7,0-1.4-0.4-1.4-1c0-0.4,0.3-0.9,1.4-0.9L36.6,33.5z"/>
<path class="st0" d="M49.8,24.4h10.1c1.7,0,2.4-0.6,2.4-2.3c0-2.1-1.5-3.2-4.2-3.2h-2.7c-3.3,0-5.3,1.4-5.3,7.1s1.7,7.6,5,7.6h7.5
	c0.5,0,1.2,0.2,1.2,0.9c0,0.6-0.5,1-1.1,1c0,0,0,0-0.1,0H55c-5.9,0-6.8-5.1-6.8-9.3c0-8.2,4-9.2,7-9.2h3.2c3.7,0,5.8,2.2,5.8,5.4
	c0,2.3-1,4-3.9,4H49.8"/>
<path class="st0" d="M94.6,24.4h10.1c1.7,0,2.4-0.6,2.4-2.3c0-2.1-1.5-3.2-4.3-3.2h-2.7c-3.3,0-5.3,1.4-5.3,7.1s1.7,7.6,5,7.6h7.5
	c0.5,0,1.2,0.2,1.2,0.9c0,0.6-0.5,1-1.1,1c0,0,0,0-0.1,0h-7.6c-5.9,0-6.8-5.1-6.8-9.3c0-8.2,4-9.2,7-9.2h3.2c3.7,0,5.8,2.2,5.8,5.4
	c0,2.3-1.1,4-3.9,4H94.6"/>
<path class="st0" d="M78,23.9l2.3-3.6c1.3-2,2.3-3.4,5.2-3.4h1.2c0.5,0,1.4,0.1,1.4,0.9s-0.5,1-2.1,1c-2,0-2.6,0.2-3.5,1.6L78,27.4
	v4.1c0,1.6,0.2,2,1.4,2h3.9c0.8,0,1.3,0.5,1.3,0.9s-0.4,1-1.3,1H72c-0.5,0-1.3-0.3-1.3-1s0.8-0.9,1.3-0.9h2.3c1.7,0,1.7-0.5,1.7-2.3
	V21.1c0-1.7-0.4-2.2-1.9-2.2h-2c-0.7,0-1.5-0.2-1.5-1s1.1-0.9,1.5-0.9h2.3c1.7-0.2,3.3,1,3.5,2.7c0,0.2,0,0.4,0,0.6V23.9z"/>
<path class="st0" d="M163.2,25.6h-7.7c-2-0.1-3.7,1.4-3.8,3.4c0,0.1,0,0.2,0,0.3c0,2.3,1.9,4.2,4.2,4.2c0,0,0,0,0,0h3.5
	c1.9,0.2,3.6-1.2,3.8-3.1c0-0.2,0-0.5,0-0.7v-6.9c0-2.6-1.3-3.9-3.8-3.9h-7.1c-0.6,0-1.2-0.3-1.2-1s0.7-0.9,1.2-0.9h7.6
	c2.8-0.1,5.1,2,5.2,4.8c0,0.1,0,0.3,0,0.4v8.1c0,3.1-1.7,5.2-5.1,5.2h-4.3c-3.3,0.1-5.9-2.5-6-5.8c0-0.1,0-0.1,0-0.2
	c-0.1-3,2.2-5.5,5.3-5.7c0.1,0,0.3,0,0.4,0h7.8L163.2,25.6z"/>
<path class="st1" d="M142.9,11.2c-0.4-0.2-0.8,0-1,0.3c0,0-0.5,0.6-2,0.6c-1.1,0-1.7-0.3-1.9-0.5V8c0-0.1,0-0.1,0-0.2
	c-0.3-1.1-1.2-2-2.3-2.3c-1.8-0.5-3.6,0.6-4,2.3c-0.1,0.4,0.2,0.9,0.6,1c0.4,0.1,0.9-0.1,1-0.6c0.1-0.4,0.4-0.8,0.7-1
	c0.4-0.2,0.8-0.3,1.2-0.2c0.5,0.1,1,0.5,1.1,1.1v3.5c-0.2,0.2-0.8,0.5-1.9,0.5c-1.5,0-2-0.6-2-0.6c-0.2-0.3-0.6-0.5-1-0.3
	c-0.4,0.1-0.6,0.5-0.5,0.9l4.1,20.9c0.1,0.7,0.6,2.2,2.2,2.2s2.1-1.4,2.2-2.1l4.1-21C143.5,11.7,143.3,11.3,142.9,11.2z"/>
<path class="st0" d="M18.7,35c-0.3,0-0.4,0-0.8,0c-1.5-0.1-2.4-0.4-2.7-2c0-0.1,0-0.1-0.1-0.1c-0.1,0-0.1,0-0.2,0.1
	c-1.3,1.5-3.2,2.4-5.1,2.3c-2.9,0.2-5.4-2-5.6-4.9c0-0.2,0-0.4,0-0.6v-2.5c0-0.2,0-0.9,0-7c0-1.4-0.7-1.5-1.2-1.5
	c-0.2,0-0.2,0-0.5,0H0.9C0.5,18.8,0,18.5,0,18c0,0,0-0.1,0-0.1c0-0.6,0.4-1,1-1h2.4C4.7,16.7,6,17.7,6.1,19c0,0.2,0,0.3,0,0.5
	c0,1.1,0,2.4,0,3.6c0,1.7,0,3.3,0.1,3.9v2.6c0.2,2.8,2,3.9,3.8,3.9c2.6,0.1,4.8-1.9,5-4.5v-8.8c0-0.9-0.2-1.5-1.1-1.5
	c-0.3,0-0.2,0-0.7,0h-1.5c-0.5,0-0.9-0.4-0.9-0.9c0,0,0-0.1,0-0.1c0-0.5,0.4-0.9,0.9-1c0,0,0.1,0,0.1,0h2.3c1.5,0,2.8,0.8,2.8,2.6
	c0,2.5-0.1,4.5-0.1,6.4v2.6c0,3.3,0,4.5,1.2,4.6c0.2,0,0.4,0,0.6,0h1.5c0.5,0,0.9,0.4,0.9,0.9c0,0,0,0.1,0,0.1c0,0.5-0.4,1-0.9,1
	c0,0,0,0,0,0L18.7,35z"/>
<path class="st2" d="M118.2,54.1c-15.4,0-30-4.1-40.2-11.1c-0.3-0.2-0.4-0.7-0.2-1.1c0.2-0.3,0.7-0.4,1.1-0.2
	c9.9,6.9,24.2,10.9,39.3,10.9c15.1,0,29.5-4,39.3-10.9c0.3-0.2,0.8-0.2,1.1,0.2c0.2,0.3,0.2,0.8-0.2,1.1
	C148.2,50.1,133.6,54.1,118.2,54.1z"/>
<path class="st2" d="M9.4,10.9c-0.2,0-0.4-0.1-0.6-0.2c-0.3-0.3-0.3-0.8,0-1.1C15.4,3.2,24.1-0.1,33.1,0c9.1-0.1,17.7,3.2,24.3,9.5
	c0.3,0.3,0.3,0.8,0,1.1c-0.3,0.3-0.8,0.3-1.1,0c-6.3-6-14.6-9.2-23.2-9.1c-8.7-0.1-17,3.1-23.2,9.1C9.7,10.8,9.5,10.9,9.4,10.9z"/>
<g class="st3">
	<path class="st0" d="M33.9,45.7c0.2,0,0.3,0.1,0.3,0.3c0,0.1-0.1,0.3-0.3,0.3h-4c-0.2,0-0.3-0.1-0.3-0.3c0-0.2,0.1-0.3,0.3-0.3h2.6
		l0.1-1.8v0c0-0.2-0.1-0.2-0.3-0.2h-1.9c-0.2,0-0.3-0.1-0.3-0.3c0-0.2,0.1-0.3,0.3-0.3h1.9c0.6,0,0.8,0.2,0.8,0.7v0.1l-0.1,1.9H33.9
		z"/>
	<path class="st0" d="M42,44.3c0.2,0,0.3,0.1,0.3,0.3c0,0.2-0.1,0.3-0.3,0.3h-3.9c-0.2,0-0.3-0.2-0.3-0.3c0-0.2,0.1-0.3,0.3-0.3H42z
		"/>
	<path class="st0" d="M48.6,42.8L48.6,42.8c0.4,0,0.6,0.2,0.6,0.5c0,0.1,0,0.2-0.1,0.3c-0.2,0.4-0.4,0.9-0.7,1.3
		c0.5,0.3,1,0.8,1.4,1.3c0.1,0.1,0.1,0.2,0.1,0.2c0,0.2-0.2,0.3-0.3,0.3c-0.1,0-0.2,0-0.3-0.1c-0.3-0.4-0.8-0.9-1.3-1.3
		c-0.5,0.6-1.1,1-1.7,1.3c-0.1,0-0.1,0-0.2,0c-0.2,0-0.3-0.2-0.3-0.3c0-0.1,0.1-0.2,0.2-0.3c1.1-0.6,2-1.5,2.5-2.5c0,0,0-0.1,0-0.1
		c0,0,0-0.1-0.1-0.1l-1.9,0c-0.2,0-0.3-0.1-0.3-0.3c0-0.1,0.1-0.3,0.3-0.3L48.6,42.8z"/>
	<path class="st0" d="M55,45.7c0,0.1,0,0.2,0.1,0.2c0,0,0.1,0,0.1,0c0.7-0.2,1.7-0.9,2.3-1.5c0.1-0.1,0.2-0.1,0.3-0.1
		c0.2,0,0.3,0.1,0.3,0.3c0,0.1,0,0.1-0.1,0.2c-0.7,0.8-1.7,1.5-2.7,1.8c-0.1,0-0.2,0.1-0.4,0.1c-0.4,0-0.6-0.2-0.6-0.7V43
		c0-0.2,0.2-0.3,0.3-0.3S55,42.8,55,43V45.7z"/>
	<path class="st0" d="M65,43.8c0.5,0,0.7,0.2,0.7,0.5c0,0.1,0,0.2-0.1,0.3c-0.3,1-1.2,1.8-2.2,2.2c0,0-0.1,0-0.1,0
		c-0.2,0-0.3-0.2-0.3-0.3c0-0.1,0.1-0.2,0.2-0.3c0.9-0.4,1.6-1,1.8-1.7c0,0,0-0.1,0-0.1c0-0.1-0.1-0.1-0.2-0.1l-2.7,0
		c-0.2,0-0.3-0.1-0.3-0.3c0-0.1,0.1-0.3,0.3-0.3L65,43.8z M65,42.6c0.2,0,0.3,0.1,0.3,0.3c0,0.1-0.1,0.3-0.3,0.3h-2.3
		c-0.2,0-0.3-0.1-0.3-0.3c0-0.1,0.1-0.3,0.3-0.3H65z"/>
</g>
<path class="st4" d="M127.8,11.2c-0.4-0.2-0.8,0-1,0.3c0,0-0.5,0.6-2,0.6c-1.1,0-1.7-0.3-1.9-0.5V8c0-0.1,0-0.2,0-0.2
	c-0.3-1.1-1.2-1.9-2.3-2.3C118.8,5,117,6,116.5,7.8c-0.1,0.4,0.1,0.9,0.6,1c0.4,0.1,0.9-0.1,1-0.6c0.2-0.9,1.1-1.3,2-1.1
	c0.5,0.1,0.9,0.5,1.1,1v3.5c-0.2,0.2-0.8,0.5-1.9,0.5c-1.6,0-2-0.6-2-0.6c-0.2-0.3-0.6-0.5-1-0.3c-0.4,0.1-0.6,0.5-0.5,0.9l4.1,20.9
	c0.1,0.7,0.6,2.2,2.2,2.2s2.1-1.4,2.2-2.1l4.1-21C128.4,11.7,128.2,11.3,127.8,11.2z"/>
</svg>
