<?xml version="1.0" encoding="utf-8"?>
<!-- Generator: Adobe Illustrator 26.0.1, SVG Export Plug-In . SVG Version: 6.00 Build 0)  -->
<svg version="1.1" id="レイヤー_1" xmlns="http://www.w3.org/2000/svg" xmlns:xlink="http://www.w3.org/1999/xlink" x="0px"
	 y="0px" viewBox="0 0 110.2 78.8" style="enable-background:new 0 0 110.2 78.8;" xml:space="preserve">
<style type="text/css">
	.st0{fill:#FFFFFF;}
	.st1{fill:#674546;}
	.st2{fill:#91B746;}
	.st3{fill:#F1E932;}
	.st4{fill:none;}
	.st5{fill:#B69292;}
	.st6{enable-background:new    ;}
	.st7{fill:#949493;}
	.st8{fill:#8A8A8A;}
</style>
<g>
	<path class="st0" d="M101,61.3v-3.2h0.1c0-0.1,0-1.2-0.1-2.3c0-0.2,0-0.2,0-0.2h0c0-0.9,0-1.8,0-2.2c0-0.9-0.5-1.8-1.2-2.3
		c-0.8-0.7-1.9-0.9-2.9-0.7c-1.3,0.3-2.6,0.8-3.8,1.6c-0.4,0.2-0.7,0.4-1.1,0.6c-0.4,0.2-0.9,0.2-1.3,0.1l0,0
		c-2-0.2-4.9-1.1-8.2-2.2c0.9,0,1.8,0,2.5,0c0,0,0,0,0,0c2.4-0.1,4.1-1.6,4.3-3.7c0.1-0.7,0.1-1.3,0.1-2c0-0.5,0-1,0-1.5
		c0.6,0.2,1,0.3,1.3,0.3c1.5,0,2.8-1.2,2.8-2.6c0-1.1-0.7-2.1-1.8-2.4c-0.5-0.2-1-0.3-1.5-0.5l0.1,0c1.4,0,2.5-1.1,2.5-2.5
		c0-1.4-1.1-2.5-2.5-2.5H89c0.2-0.3,0.3-0.7,0.3-1.1c0.2,0.1,0.4,0.1,0.6,0.1h0.9c0.4,0,0.7-0.1,1-0.3c0.6,0.3,1.3,0.5,2,0.5
		c0.5,0,0.9-0.1,1.4-0.2c0.2,0,0.3,0.1,0.5,0.1h0.6c1.1,0,2-0.9,2-2v-4.3c0-1.1-0.9-2-2-2h-0.6c-0.2,0-0.4,0-0.6,0.1
		c-0.4-0.1-0.9-0.2-1.4-0.2c-0.7,0-1.4,0.2-2,0.5c-0.3-0.2-0.7-0.4-1.1-0.4h-0.9c-0.1,0-0.2,0-0.2,0c-0.2-1-1-1.7-2-1.7h-0.6
		c-0.4,0-0.8,0.1-1.1,0.3c-0.3-0.1-0.6-0.2-0.9-0.2h-3.1c-0.4,0-0.7,0.1-1,0.3c-0.3-0.1-0.6-0.2-0.9-0.2h-0.9
		c-0.5,0-0.9,0.2-1.3,0.5c-0.4-0.3-0.8-0.5-1.3-0.5h-0.7c-1.1,0-2,0.9-2,2V30c0,0,0,0,0,0c-1.1,0.3-1.9,1.2-1.9,2.4
		c0,0.2,0,0.4,0.1,0.6c-1.3,0.1-2.3,1.2-2.3,2.5c0,1.4,1.1,2.5,2.6,2.5l0.8,0c-0.7,0.3-1.4,0.6-2.2,0.9c-0.4,0.1-0.7,0.3-1,0.6
		l-3.6,0V25.1l4.2,0c1.6,0,2.9-1.2,2.9-2.7c0-1.5-1.3-2.7-2.9-2.7H56.8c-0.8,0-1.5,0.3-2,0.8c-0.6-0.4-1.5-0.5-2.3-0.3
		c0.1-0.3,0.2-0.6,0.2-0.8c0-1.5-1.3-2.7-3-2.7c-1.3,0-2.3,0.8-2.7,2c-0.3,1-1.1,2.6-1.9,3.9c-0.2,0-0.3,0-0.5,0
		c-1.5,0-2.9,1.3-2.9,2.7c0,0.9,0.5,1.7,1.4,2.3c0.6,0.3,1.7,1,2.6,1.7c-0.1,0.2-0.3,0.3-0.4,0.5l-1.4,0.1c-1.4,0-2.4,1.2-2.4,2.7
		c0,1.4,0.9,2.5,2.1,2.7c0,0.1,0,0.2-0.1,0.3c-0.2,1.4-1.1,3.8-1.9,4.9c-0.4,0.5-0.6,1.1-0.6,1.7c0,1.5,1.3,2.7,2.9,2.7
		c1.1,0,2-0.5,2.5-1.3c0.3-0.4,0.6-0.8,0.8-1.3l0,1.7c0,0.2,0,0.4,0.1,0.6c-5.6,0.4-10.7,1.2-13,1.7l7.6-25.6
		c0.8-2.7-0.7-5.5-3.4-6.3c-2.7-0.8-5.5,0.7-6.3,3.4l-9,30.3c-6.6,0.5-14,0.3-16.7-0.6c-1.8-0.6-3-0.7-3.9-0.2
		c-0.3,0.2-0.6,0.4-0.7,0.7c-1.3,1.2-2,2.9-1.8,4.7C0.1,53,0.2,53.5,0.4,54l0.1,0.2c0.1,0.2,13.7,24.1,43.7,24.7h2.5
		c27,0,41.7-8.4,43.4-9.3c0.4-0.1,0.9-0.1,1.4,0.1l0.9,0.4c1.5,0.9,3.1,1.5,4.8,1.7c1,0.1,2.1-0.3,2.9-1c0.6-0.6,1-1.5,1-2.3
		L101,61.3L101,61.3z M60.3,39.4l-1.9,0c0,0,0-0.1,0-0.1c0-0.7-0.7-2.6-1.6-4.2c0.9-0.5,1.5-1.4,1.5-2.5c0-1-1.8-4.8-4-6
		c0.5-0.7,0.9-1.3,1.2-1.9c0.4,0.2,0.9,0.3,1.4,0.3l3.4,0V39.4z M64.2,44.9h7.5c0.5,0,0.9-0.1,1.3-0.3c0,0.1,0,0.1,0,0.2
		c0,0.6,0,1.3,0,1.9c0,0.2,0.1,0.5,0.1,0.7C70.1,46.4,67.1,45.5,64.2,44.9z"/>
	<path class="st1" d="M39.2,19.4c0,0,0,0.1,0,0.1L28.5,55.7c-0.3,1-1.2,1.6-2.2,1.6c-0.2,0-0.4,0-0.6-0.1c-1.2-0.4-1.9-1.6-1.5-2.8
		l10.7-36.1c0.3-1.2,1.5-1.9,2.8-1.6C38.8,17,39.5,18.2,39.2,19.4z"/>
	<path class="st2" d="M27.4,66.2c-2.6-1-4.9-2.2-6.9-3.4c-0.1-0.5-0.2-1-0.2-1.6c0-1.5,0.6-2.8,1.6-3.7c0.6,1.1,1.7,2,3,2.4
		c0.5,0.1,1,0.2,1.4,0.2c1.5,0,2.8-0.6,3.8-1.7c0.3,0.5,0.5,1,0.7,1.6C31.4,62.6,29.9,65.3,27.4,66.2z"/>
	<path class="st2" d="M98.5,64.6v3.8c0,0.2-0.1,0.4-0.2,0.5c-0.3,0.2-0.7,0.3-1,0.3c-1.4-0.2-2.6-0.7-3.8-1.4
		c-0.3-0.2-0.7-0.4-1-0.5c-1.1-0.5-2.3-0.5-3.4-0.1l-0.2,0.1c-0.2,0.1-15.8,9.6-44.6,9C16.8,75.7,3.8,54.6,2.8,53
		c-0.1-0.3-0.2-0.6-0.2-0.8c-0.2-1,0.1-1.9,0.9-2.6l0.4-0.2v-0.2c0.6,0,1.2,0.2,1.8,0.4c2.9,0.9,10,1.2,16.7,0.8l-1,3.2
		c-0.1,0.4-0.2,0.8-0.2,1.1c-2.1,1.4-3.4,3.7-3.5,6.2c-1.4-1-2.7-2.1-3.7-3.1c-0.5-0.4-1.2-0.4-1.7,0c-0.5,0.5-0.5,1.3,0,1.8
		c5.5,5.4,15.6,11.9,31.9,12.2h2.5c27,0,41.7-8.4,43.3-9.2c0.4-0.1,0.9-0.1,1.3,0.1c0.3,0.1,0.6,0.3,0.9,0.5
		c1.5,0.9,3.2,1.5,4.9,1.7C97.6,64.8,98.1,64.7,98.5,64.6z"/>
	<path class="st2" d="M98.4,55.6c0,0,0.1,5,0.1,5.8c0,0.2-0.1,0.4-0.2,0.5c-0.3,0.2-0.6,0.3-1,0.3c-1.3-0.2-2.6-0.7-3.8-1.4
		c-0.4-0.2-0.7-0.4-1-0.5c-1.1-0.5-2.3-0.5-3.4-0.1l-0.2,0.1c-0.1,0.1-15.8,9.6-44.6,9c-5.2-0.1-9.8-0.9-13.7-2
		c2.4-2,3.5-5.4,2.4-8.6c-0.4-1-1-2-1.7-2.7l2.1-7.1c0.2-0.1,0.4-0.1,0.6-0.2c2.1-0.7,17.8-3.2,27.8-1.6c4.8,0.8,10.7,2.8,15.9,4.6
		c1.7,0.6,3.3,1.1,4.8,1.6c0.3,0.1,0.6,0.2,0.9,0.3c0.4,0.1,0.9,0.3,1.3,0.4c1,0.3,1.9,0.6,2.8,0.8c0.3,0.1,0.7,0.2,1,0.2
		c0.9,0.2,1.8,0.3,2.5,0.4c0,0,0.1,0,0.2,0h0c0.2,0,0.4,0,0.6,0h0.1v-0.1c0.1,0,0.2,0,0.2,0l0,0.1c0.2-0.1,0.3-0.1,0.5-0.2
		c0.1,0,0.3-0.1,0.4-0.2c0.5-0.2,0.9-0.4,1.3-0.7c0.9-0.6,1.8-1,2.8-1.2c0.3-0.1,0.7,0,1,0.2c0.2,0.1,0.3,0.3,0.3,0.6
		C98.4,53.9,98.5,54.7,98.4,55.6L98.4,55.6z"/>
	<path class="st3" d="M27.4,66.2c-2.6-1-4.9-2.2-6.9-3.4c-0.1-0.5-0.2-1-0.2-1.6c0-1.5,0.6-2.8,1.6-3.7c0.6,1.1,1.7,2,3,2.4
		c0.5,0.1,1,0.2,1.4,0.2c1.5,0,2.8-0.6,3.8-1.7c0.3,0.5,0.5,1,0.7,1.6C31.4,62.6,29.9,65.3,27.4,66.2z"/>
	<path class="st0" d="M59.1,61c-5.4,0-10.8-0.3-16.2-1.1c-0.7-0.1-1.2-0.7-1.1-1.4s0.7-1.2,1.4-1.1l0,0c7.5,1,15,1.3,22.5,0.9
		c3.5-0.2,7-0.5,10.4-1c0.7-0.1,1.3,0.4,1.4,1.1c0.1,0.7-0.4,1.3-1.1,1.4c0,0,0,0,0,0c-3.4,0.5-7,0.8-10.6,1
		C63.7,60.9,61.4,61,59.1,61z"/>
	<path class="st0" d="M47.6,14.6c-0.3,0-0.7,0-1-0.1c-0.3-0.1-0.7-0.2-1-0.3c-0.3-0.1-0.6-0.3-0.9-0.5c-0.3-0.2-0.5-0.4-0.8-0.6
		c-0.2-0.2-0.5-0.5-0.6-0.8c-0.2-0.3-0.3-0.6-0.5-0.9c-0.1-0.3-0.2-0.6-0.3-0.9c-0.1-0.7-0.1-1.3,0-2c0.1-0.3,0.2-0.6,0.4-0.9
		c0.1-0.3,0.3-0.6,0.5-0.9c0.2-0.3,0.4-0.5,0.6-0.8c0.2-0.2,0.5-0.4,0.8-0.6c0.3-0.2,0.6-0.3,0.9-0.5c0.3-0.1,0.7-0.2,1-0.3
		C48.3,4.3,50,4.8,51.2,6c0.2,0.2,0.4,0.5,0.6,0.8C52,7,52.2,7.3,52.3,7.6c0.1,0.3,0.2,0.6,0.3,0.9c0.1,0.7,0.1,1.3,0,2
		c-0.1,0.3-0.2,0.6-0.3,0.9c-0.1,0.3-0.3,0.6-0.5,0.9c-0.2,0.3-0.4,0.5-0.6,0.8c-0.2,0.2-0.5,0.4-0.8,0.6c-0.6,0.4-1.2,0.6-1.8,0.8
		C48.3,14.6,48,14.6,47.6,14.6z"/>
	<path class="st0" d="M90.7,19.1L90.7,19.1c-2.8-0.1-5-2.5-4.8-5.2l0,0c0.1-2.8,2.4-4.9,5.2-4.8l0,0c2.8,0.1,5,2.5,4.8,5.2l0,0
		c-0.1,2.7-2.3,4.8-5,4.8H90.7L90.7,19.1z M73.9,14.1c-2.4-1.3-3.3-4.3-2-6.8c0,0,0,0,0-0.1l0,0c1.3-2.4,4.3-3.3,6.8-2
		c0,0,0,0,0.1,0l0,0c2.4,1.3,3.3,4.3,2,6.8c0,0,0,0,0,0.1l0,0c-0.9,1.6-2.6,2.6-4.4,2.6l0,0C75.5,14.8,74.6,14.6,73.9,14.1z
		 M61.6,10.1L61.6,10.1c-2.8-0.1-4.9-2.5-4.7-5.2c0,0,0-0.1,0-0.1l0,0C57,2,59.3-0.1,62.1,0c0,0,0.1,0,0.1,0l0,0
		c2.8,0.1,4.9,2.5,4.7,5.3c0,0,0,0.1,0,0.1l0,0c-0.1,2.7-2.3,4.8-5,4.8H61.6L61.6,10.1z"/>
	<path class="st0" d="M105.2,14.6c-0.3,0-0.7,0-1-0.1c-0.6-0.1-1.3-0.4-1.8-0.8c-0.6-0.4-1-0.8-1.4-1.4c-0.2-0.3-0.3-0.6-0.5-0.9
		c-0.1-0.3-0.2-0.6-0.3-0.9c-0.1-0.3-0.1-0.7-0.1-1c0-0.3,0-0.7,0.1-1c0.1-0.3,0.2-0.6,0.3-0.9c0.1-0.3,0.3-0.6,0.5-0.9
		c0.2-0.3,0.4-0.5,0.6-0.8c0.2-0.2,0.5-0.4,0.8-0.6c0.3-0.2,0.6-0.3,0.9-0.5c0.3-0.1,0.6-0.2,0.9-0.3c1.7-0.3,3.4,0.2,4.6,1.4
		c0.2,0.2,0.4,0.5,0.6,0.8c0.2,0.3,0.3,0.6,0.5,0.9c0.1,0.3,0.2,0.6,0.3,0.9c0.1,0.3,0.1,0.7,0.1,1c0,0.3,0,0.7-0.1,1
		c-0.1,0.3-0.2,0.6-0.3,0.9c-0.1,0.3-0.3,0.6-0.5,0.9c-0.4,0.6-0.8,1-1.4,1.4c-0.3,0.2-0.6,0.3-0.9,0.5c-0.3,0.1-0.6,0.2-0.9,0.3
		C105.8,14.6,105.5,14.6,105.2,14.6z"/>
	<path class="st0" d="M53,44C53,44,53,44,53,44C53,44,53,44,53,44C53,44,53,44,53,44z"/>
	<path class="st4" d="M21.8,53.7"/>
	<path class="st5" d="M47.6,12.1c-0.2,0-0.3,0-0.5-0.1c-0.2,0-0.3-0.1-0.5-0.1c-0.2-0.1-0.3-0.1-0.4-0.2c-0.1-0.1-0.3-0.2-0.4-0.3
		c-0.1-0.1-0.2-0.2-0.3-0.4c-0.1-0.1-0.2-0.3-0.2-0.4c-0.1-0.2-0.1-0.3-0.1-0.5c0-0.2,0-0.3,0-0.5c0-0.7,0.3-1.3,0.7-1.8
		c1-0.9,2.6-0.9,3.6,0c0.5,0.5,0.7,1.1,0.7,1.8c0,0.2,0,0.3,0,0.5c0,0.2-0.1,0.3-0.2,0.5c-0.1,0.2-0.1,0.3-0.2,0.4
		c-0.1,0.1-0.2,0.3-0.3,0.4C49,11.8,48.3,12.1,47.6,12.1z"/>
	<path class="st5" d="M90.8,16.6c-1.4,0-2.5-1.2-2.4-2.6c0,0,0,0,0,0l0,0c0.1-1.4,1.2-2.5,2.6-2.4c0,0,0,0,0,0l0,0
		c1.4,0.1,2.5,1.2,2.4,2.6l0,0c-0.1,1.4-1.2,2.4-2.5,2.4L90.8,16.6L90.8,16.6z M75.1,11.9c-1.2-0.7-1.7-2.2-1-3.4l0,0
		c0.7-1.2,2.2-1.7,3.4-1l0,0c1.2,0.7,1.7,2.2,1,3.4l0,0c-0.4,0.8-1.3,1.3-2.2,1.3l0,0C75.9,12.2,75.5,12.1,75.1,11.9z M61.7,7.6
		L61.7,7.6c-1.4-0.1-2.4-1.3-2.4-2.6c0,0,0,0,0,0l0,0c0.1-1.4,1.3-2.5,2.7-2.4c0,0,0,0,0,0l0,0c1.4,0.1,2.4,1.3,2.4,2.7c0,0,0,0,0,0
		l0,0c-0.1,1.3-1.2,2.4-2.5,2.4C61.9,7.6,61.7,7.6,61.7,7.6z"/>
	<path class="st5" d="M105.2,12.1c-1.4,0-2.5-1.1-2.5-2.5c0,0,0,0,0,0c0-1.4,1.1-2.5,2.5-2.5c0.3,0,0.6,0.1,0.9,0.2
		c0.2,0.1,0.3,0.1,0.4,0.2c0.1,0.1,0.3,0.2,0.4,0.3c1,1,1,2.6,0,3.6c0,0,0,0,0,0c-0.1,0.1-0.2,0.2-0.4,0.3c-0.1,0.1-0.3,0.2-0.4,0.2
		c-0.2,0.1-0.3,0.1-0.5,0.1C105.5,12.1,105.3,12.1,105.2,12.1z"/>
	<g class="st6">
		<path class="st7" d="M75.8,24.1h0.7v2.2l2.6-2.2H80l-3.1,2.6l3.4,3.2h-0.9l-2.9-2.7V30h-0.7V24.1z"/>
		<path class="st7" d="M80.9,27.8c0-0.6,0.2-1.2,0.7-1.6c0.5-0.5,1.1-0.7,1.8-0.7s1.3,0.2,1.8,0.7c0.5,0.5,0.7,1,0.7,1.6
			c0,0.6-0.2,1.2-0.7,1.6c-0.5,0.4-1.1,0.7-1.8,0.7c-0.7,0-1.3-0.2-1.8-0.7C81.1,29,80.9,28.4,80.9,27.8z M85.2,27.8
			c0-0.5-0.2-0.9-0.6-1.2c-0.4-0.4-0.8-0.5-1.3-0.5s-1,0.2-1.3,0.5c-0.4,0.4-0.6,0.8-0.6,1.3c0,0.5,0.2,0.9,0.5,1.2
			c0.4,0.3,0.8,0.5,1.3,0.5c0.5,0,1-0.2,1.3-0.5C85.1,28.7,85.2,28.3,85.2,27.8z M81.8,24.1h3.1v0.5h-3.1V24.1z"/>
		<path class="st7" d="M86.9,23.9h0.6v3.4l2.2-1.7h0.9l-2.7,2.1l2.8,2.3H90l-2.4-2v2h-0.6V23.9z"/>
		<path class="st7" d="M96.4,25.6V30h-0.6v-0.7c-0.6,0.6-1.2,0.9-1.9,0.9s-1.3-0.2-1.8-0.7c-0.5-0.5-0.7-1-0.7-1.6s0.2-1.2,0.7-1.6
			c0.5-0.4,1.1-0.7,1.8-0.7c0.8,0,1.4,0.3,1.9,0.9v-0.8H96.4z M95.8,27.8c0-0.5-0.2-0.9-0.6-1.3c-0.4-0.3-0.8-0.5-1.4-0.5
			s-1,0.2-1.4,0.5c-0.4,0.4-0.6,0.8-0.6,1.2s0.2,0.9,0.6,1.2c0.4,0.4,0.8,0.5,1.3,0.5c0.5,0,1-0.2,1.3-0.5
			C95.6,28.7,95.8,28.3,95.8,27.8z"/>
	</g>
	<g class="st6">
		<path class="st8" d="M82.3,35.9c2.5,2,5.6,3.5,8.6,4.5c0.3,0.1,0.4,0.3,0.4,0.5c0,0.3-0.3,0.6-0.7,0.6c-0.4,0-5-1.7-8.9-5l0,3.4
			c0,0.3-0.3,0.5-0.6,0.5c-0.3,0-0.6-0.2-0.6-0.5l0-3.4c-3.7,3.4-8.5,5.3-8.9,5.3c-0.4,0-0.7-0.3-0.7-0.6c0-0.2,0.1-0.4,0.5-0.5
			c3.1-1,6-2.7,8.4-4.8l-7.6,0c-0.4,0-0.6-0.3-0.6-0.5c0-0.2,0.2-0.5,0.5-0.5h8.3l0-2.3c-2.3,0.1-4.5,0.2-6,0.2
			c-0.4,0-0.6-0.3-0.6-0.5c0-0.3,0.2-0.5,0.6-0.5h0.6c3.3,0,7.3-0.2,11.4-0.8h0.1c0.4,0,0.6,0.3,0.6,0.6c0,0.2-0.1,0.4-0.4,0.5
			c-1.5,0.2-3.4,0.4-5.2,0.5l0,2.3h8.5c0.4,0,0.5,0.2,0.5,0.5c0,0.3-0.2,0.5-0.5,0.5L82.3,35.9z M84.9,48.4c-1.1,0-2.3,0-3.6,0
			c-1.4,0-2.8,0-3.9-0.1c-1.6-0.1-2.3-0.8-2.4-1.8c0-0.5,0-1.1,0-1.8c0-0.6,0-1.2,0-1.7c0-0.9,0.8-1.8,2.3-1.8c0.9,0,1.8,0,2.8,0
			c1.6,0,3.3,0,4.8,0c1.3,0,2.2,0.8,2.2,1.7c0,0.6,0,1.2,0,1.8c0,0.6,0,1.2,0,1.8C87.2,47.6,86.4,48.4,84.9,48.4z M86.1,44.3
			c0-1.4,0-2.1-1.5-2.1c-1.1,0-2.6,0-3.9,0c-1.1,0-2.2,0-3,0c-1.4,0-1.5,0.7-1.5,2.2H86.1z M76.2,45.1c0,0.4,0,0.8,0,1.1
			c0.1,1.3,0.6,1.3,5.2,1.3c1.2,0,2.3,0,3.2,0c1.4-0.1,1.5-0.8,1.5-2.3L76.2,45.1z"/>
	</g>
	<g class="st6">
		<path class="st8" d="M43.9,42.5c-0.4,0-0.8-0.2-0.8-0.6c0-0.2,0-0.3,0.2-0.5c1-1.4,2-4.1,2.3-5.9c0-0.4,0.4-0.6,0.8-0.6
			c0.5,0,0.9,0.3,0.9,0.8c0,0.6-1,4.4-2.4,6.4C44.5,42.3,44.2,42.5,43.9,42.5z M49.3,32.4c-0.5,0.1-4.8,0.5-5.3,0.5
			s-0.6-0.4-0.6-0.8c0-0.3,0.2-0.6,0.5-0.6l2.2-0.1c0.8-0.7,1.6-1.7,2.4-2.7c-1.1-1.1-3.5-2.6-4.5-3.2c-0.2-0.1-0.3-0.3-0.3-0.5
			c0-0.3,0.4-0.7,0.8-0.7c0.4,0,0.8,0.2,1.3,0.5c1-1.4,2.6-4.1,3.1-5.8c0.1-0.3,0.4-0.5,0.8-0.5c0.5,0,1,0.3,1,0.7
			c0,0.5-2.2,4.6-3.6,6.4c0.9,0.6,1.8,1.3,2.4,1.8c1.3-1.8,2.5-3.6,3.1-5c0.1-0.3,0.4-0.4,0.7-0.4c0.5,0,1,0.3,1,0.8
			c0,0.7-3.3,5.4-6.1,8.4c2.1-0.2,4.2-0.4,5.5-0.5c-0.4-0.6-0.8-1.1-1.2-1.5c-0.1-0.2-0.2-0.3-0.2-0.4c0-0.3,0.4-0.5,0.8-0.5
			c1.2,0,3.3,3.8,3.3,4.3s-0.4,0.8-0.9,0.8c-0.3,0-0.6-0.2-0.7-0.5s-0.3-0.8-0.5-1.1c-0.7,0.1-1.9,0.3-3.3,0.4L51,43.6
			c0,0.5-0.4,0.8-0.9,0.8c-0.4,0-0.9-0.3-0.9-0.8L49.3,32.4z M54.7,39.5c-0.3-1.4-1.3-3.3-1.9-4.2c-0.1-0.1-0.1-0.2-0.1-0.3
			c0-0.3,0.4-0.5,0.8-0.5c0.2,0,0.4,0.1,0.6,0.2c1,1,2.3,4.4,2.3,4.7c0,0.5-0.5,0.9-0.9,0.9C55.1,40.2,54.8,40,54.7,39.5z
			 M55.2,42.9c-0.5,0-0.8-0.4-0.8-0.7s0.3-0.7,0.8-0.7l7.1,0V23l-5.4,0c-0.6,0-0.9-0.4-0.9-0.7c0-0.3,0.3-0.7,0.8-0.7h13.5
			c0.6,0,0.8,0.4,0.8,0.7c0,0.4-0.3,0.7-0.8,0.7l-6.3,0v18.4l7.6,0c0.6,0,0.8,0.4,0.8,0.7s-0.3,0.7-0.8,0.7H55.2z"/>
	</g>
</g>
</svg>
