<svg xmlns="http://www.w3.org/2000/svg" viewBox="0 0 194.69 85.04"><defs><style>.cls-1,.cls-3,.cls-7,.cls-8{fill:#fff;}.cls-1,.cls-4,.cls-7,.cls-8{stroke:#231815;stroke-miterlimit:10;}.cls-1,.cls-4{stroke-width:1.08px;}.cls-2,.cls-5,.cls-6{fill:#231815;}.cls-4{fill:none;}.cls-5{font-size:21.55px;}.cls-5,.cls-6{font-family:TimesNewRomanPSMT, Times New Roman;}.cls-6{font-size:19.76px;}.cls-7{stroke-width:0.49px;}.cls-8{stroke-width:1.48px;}</style></defs><g id="レイヤー_2" data-name="レイヤー 2"><g id="レイヤー_1-2" data-name="レイヤー 1"><rect class="cls-1" x="121.13" y="16.08" width="67.11" height="67.11"/><path class="cls-2" d="M194.69,59.07l-41-20.1a27.37,27.37,0,1,0-3.4,5.43l41.55,20.39Z"/><circle class="cls-3" cx="129.02" cy="27.79" r="23.23"/><path class="cls-2" d="M132.13,17.53V28H137a3.44,3.44,0,0,0,2.44-.74,4.84,4.84,0,0,0,1-2.91h.73v9h-.73a5.11,5.11,0,0,0-.4-2.27A2.48,2.48,0,0,0,139,30a4.4,4.4,0,0,0-2-.36h-4.84V38a8.86,8.86,0,0,0,.25,2.67,1.8,1.8,0,0,0,.82.85A3.79,3.79,0,0,0,135,42h1v.72H124.55V42h.94a2.83,2.83,0,0,0,2.4-1,6,6,0,0,0,.47-3V20.79a8.75,8.75,0,0,0-.26-2.67,1.74,1.74,0,0,0-.8-.84,3.58,3.58,0,0,0-1.81-.48h-.94v-.72h19.8l.25,5.85h-.68a8,8,0,0,0-1.19-2.74,4,4,0,0,0-1.67-1.27,8.94,8.94,0,0,0-3.07-.39Z"/><polyline class="cls-4" points="147.94 12.23 117.08 12.23 117.08 48.39"/><text class="cls-5" transform="translate(138.84 64.79)">ont</text><text class="cls-6" transform="translate(160.71 41.1)">ind</text><rect class="cls-2" y="3.06" width="81.98" height="81.98" rx="17.76"/><circle class="cls-7" cx="49.8" cy="55.67" r="22.81"/><circle class="cls-2" cx="62.65" cy="44.87" r="2.47"/><circle class="cls-8" cx="49.8" cy="55.67" r="12.5"/><circle class="cls-2" cx="49.8" cy="55.67" r="7.73"/><path class="cls-3" d="M14.66,10.53v6.58H18a2.5,2.5,0,0,0,1.67-.47,2.91,2.91,0,0,0,.7-1.83h.49v5.66h-.49A3,3,0,0,0,20,19a1.63,1.63,0,0,0-.72-.68A3.19,3.19,0,0,0,18,18.13H14.66v5.25a5.34,5.34,0,0,0,.17,1.68,1.16,1.16,0,0,0,.56.53,2.66,2.66,0,0,0,1.23.3h.65v.45H9.5v-.45h.65a2,2,0,0,0,1.62-.61,3.43,3.43,0,0,0,.32-1.9V12.58a5,5,0,0,0-.17-1.68,1.18,1.18,0,0,0-.55-.53,2.71,2.71,0,0,0-1.22-.29H9.5V9.62H23l.18,3.68h-.47a4.67,4.67,0,0,0-.81-1.72,2.52,2.52,0,0,0-1.13-.8,6.66,6.66,0,0,0-2.09-.25Z"/><path class="cls-3" d="M34,17.28v7.07a3.23,3.23,0,0,0,.12,1.1.85.85,0,0,0,.36.41,1.88,1.88,0,0,0,.86.13v.35H31.06V26a2.1,2.1,0,0,0,.87-.12.87.87,0,0,0,.35-.42,3,3,0,0,0,.13-1.1V21a11.48,11.48,0,0,0-.09-1.85.7.7,0,0,0-.21-.43.59.59,0,0,0-.39-.12,2.11,2.11,0,0,0-.66.14l-.13-.34,2.65-1.08Zm-.79-4.6a.94.94,0,0,1,.68.29.92.92,0,0,1,.29.68.94.94,0,0,1-.29.69.9.9,0,0,1-.68.29,1,1,0,0,1-1-1,.91.91,0,0,1,.28-.68A1,1,0,0,1,33.21,12.68Z"/><path class="cls-3" d="M45.92,18.53c1.11-1.34,2.16-2,3.17-2a2.34,2.34,0,0,1,1.33.38,2.64,2.64,0,0,1,.89,1.28,5.91,5.91,0,0,1,.22,1.89v4a3.25,3.25,0,0,0,.15,1.21.8.8,0,0,0,.36.41,2.21,2.21,0,0,0,.94.14v.37H48.31v-.37h.19a1.58,1.58,0,0,0,.92-.2,1,1,0,0,0,.37-.59,5.88,5.88,0,0,0,0-1V20.25a4,4,0,0,0-.33-1.87,1.21,1.21,0,0,0-1.13-.59,3.4,3.4,0,0,0-2.45,1.35v5A3.33,3.33,0,0,0,46,25.3a.89.89,0,0,0,.39.44,2.52,2.52,0,0,0,1,.14v.37H42.79v-.37H43a1.11,1.11,0,0,0,1-.37,2.64,2.64,0,0,0,.25-1.39V20.61a13.62,13.62,0,0,0-.08-2.07.93.93,0,0,0-.23-.51.65.65,0,0,0-.43-.13,2.05,2.05,0,0,0-.69.15l-.16-.37,2.85-1.15h.44Z"/><path class="cls-3" d="M66.61,25a4.25,4.25,0,0,1-1.18,1,2.71,2.71,0,0,1-1.25.3A3,3,0,0,1,61.81,25a4.86,4.86,0,0,1-1-3.19,6.13,6.13,0,0,1,1.13-3.57,3.37,3.37,0,0,1,2.88-1.62,2.39,2.39,0,0,1,1.81.76V15.72a14,14,0,0,0-.07-1.91.77.77,0,0,0-.21-.48A.5.5,0,0,0,66,13.2a1.61,1.61,0,0,0-.62.16L65.23,13,67.7,11.9h.41V22.38a17.55,17.55,0,0,0,.06,1.95,1,1,0,0,0,.22.49.52.52,0,0,0,.35.14,1.89,1.89,0,0,0,.65-.17l.1.34L67,26.25h-.42Zm0-.7V19.59a3.29,3.29,0,0,0-.32-1.23,2,2,0,0,0-.72-.83,1.63,1.63,0,0,0-.88-.28,1.81,1.81,0,0,0-1.42.78,4.72,4.72,0,0,0-.82,3,5,5,0,0,0,.8,3.06A2.22,2.22,0,0,0,65,25.16,2.13,2.13,0,0,0,66.61,24.26Z"/><path class="cls-3" d="M14.68,31.82a4.48,4.48,0,0,1,3.7,1.75A5.35,5.35,0,0,1,19.56,37a6.5,6.5,0,0,1-.65,2.75,4.73,4.73,0,0,1-1.8,2.1,4.67,4.67,0,0,1-2.55.71,4.32,4.32,0,0,1-3.64-1.82,5.67,5.67,0,0,1-1.14-3.45,6,6,0,0,1,.7-2.77,4.68,4.68,0,0,1,1.82-2A4.62,4.62,0,0,1,14.68,31.82Zm-.34.72a2.36,2.36,0,0,0-1.18.35,2.43,2.43,0,0,0-.95,1.22,5.75,5.75,0,0,0-.37,2.25,7.77,7.77,0,0,0,.88,3.81A2.63,2.63,0,0,0,15,41.78a2.18,2.18,0,0,0,1.77-.89,5,5,0,0,0,.7-3,6.92,6.92,0,0,0-1.17-4.25A2.38,2.38,0,0,0,14.34,32.54Z"/><path class="cls-3" d="M13.3,50c1.18-1.43,2.31-2.14,3.39-2.14a2.43,2.43,0,0,1,1.43.41,2.79,2.79,0,0,1,.95,1.37,6.37,6.37,0,0,1,.24,2V56a3.44,3.44,0,0,0,.16,1.3.86.86,0,0,0,.39.43,2.1,2.1,0,0,0,1,.16v.4h-5v-.4h.21a1.64,1.64,0,0,0,1-.22,1.07,1.07,0,0,0,.39-.63,6.11,6.11,0,0,0,0-1V51.88a4.23,4.23,0,0,0-.36-2,1.3,1.3,0,0,0-1.21-.62,3.66,3.66,0,0,0-2.62,1.43V56a3.87,3.87,0,0,0,.12,1.27,1,1,0,0,0,.42.47,2.63,2.63,0,0,0,1.1.15v.4h-5v-.4h.22a1.2,1.2,0,0,0,1-.39,2.92,2.92,0,0,0,.27-1.5V52.27A17.77,17.77,0,0,0,11.39,50a1,1,0,0,0-.26-.54.7.7,0,0,0-.46-.14,2.15,2.15,0,0,0-.74.16l-.16-.4,3.05-1.23h.48Z"/><path class="cls-3" d="M15.53,63.4v3.33H17.9v.77H15.53v6.57a2.2,2.2,0,0,0,.28,1.33.9.9,0,0,0,.73.34,1.23,1.23,0,0,0,.7-.22,1.52,1.52,0,0,0,.54-.67h.43a3.49,3.49,0,0,1-1.1,1.63,2.34,2.34,0,0,1-1.46.55,2,2,0,0,1-1-.28,1.67,1.67,0,0,1-.72-.81,4.11,4.11,0,0,1-.24-1.62V67.5H12.1v-.36a4.17,4.17,0,0,0,1.25-.83,6.4,6.4,0,0,0,1.13-1.37,13.14,13.14,0,0,0,.71-1.54Z"/><circle class="cls-3" cx="54.19" cy="52.14" r="2.47"/></g></g></svg>