<svg xmlns="http://www.w3.org/2000/svg" viewBox="0 0 168.54 37.8"><defs><style>.cls-1{fill:#7b3737;}</style></defs><g id="レイヤー_2" data-name="レイヤー 2"><g id="レイヤー_1-2" data-name="レイヤー 1"><path class="cls-1" d="M143.3,0h-.65l-1,3.45.81,2.36a5.39,5.39,0,0,1,1.11.31l1.35-3.92A1.67,1.67,0,0,0,143.3,0Z"/><path class="cls-1" d="M138.94,7.09V8.42a1,1,0,0,0,1,1h2.45a1,1,0,0,0,1-1V7.09L143.19,7a4.55,4.55,0,0,0-1.79-.37h-.2a5.28,5.28,0,0,0-2.07.42Z"/><path class="cls-1" d="M148.43,7.58h-4v.88a1.79,1.79,0,0,1-.95,1.64h0a2.13,2.13,0,0,1-1.13,2,2.35,2.35,0,0,1-3.52-2h0a1.78,1.78,0,0,1-.94-1.64V7.58h-3.81V29.52h5.52V37.8h3.25V29.52h5.53Z"/><path class="cls-1" d="M141.2,5.73h.13l-1.58-4.61A1.67,1.67,0,0,0,138.17,0h-1.43s1.59,4.5,2.16,6.14A6.72,6.72,0,0,1,141.2,5.73Z"/><path class="cls-1" d="M0,12.35H15.44V9.07H4.72V5.21H15.44V1.1l4.27.16c.87,0,1.44.21,1.44.62,0,.25-.08.37-.45.61a1,1,0,0,0-.58.95V5.21h11.3V9.07H20.12v3.28H35.61v3.86H27.85V19.7h5.33v4H27.85V32.6c0,3.41-1.85,4.31-4.77,4.31H19.47l-1.24-4.48c.66.09,3.17.25,3.74.25.74,0,1.32-.16,1.32-1.23V23.73H2.63v-4H23.29V16.21H0Z"/><path class="cls-1" d="M8.91,24.51a34.27,34.27,0,0,1,6.24,6.69l-3.36,3a37.76,37.76,0,0,0-6.2-6.82Z"/><path class="cls-1" d="M50.6,24.63a46.68,46.68,0,0,1-4.23,3.45l-3-3.33C49.28,21,52,17.53,55,12.89H45.17V8.66H50.6V1.18l4.14.16c.13,0,1.19,0,1.19.54,0,.25-.08.29-.82.74a.67.67,0,0,0-.33.65V8.66h4.56l1.89,1.23a34.16,34.16,0,0,1-4.76,8.38,38.25,38.25,0,0,0,5.46,4.88l-2.46,3.33a23.44,23.44,0,0,1-4.69-4.15V36.66H50.6Z"/><path class="cls-1" d="M67.11,1.18l4.27.25c.9,0,1.52.08,1.52.61,0,.17-.7.62-.91.78a.86.86,0,0,0-.37.82v9.53h7.77v4.11H71.62V31.61h8.67v4.11H56.92V31.61H67.11V17.28H60.37V13.17h6.74Z"/><path class="cls-1" d="M104.44,7.79a100.29,100.29,0,0,1-11.5.62l-1.52-4C102,4.71,110.8,3.15,117.13.85l2.46,2.88c.33.41.62.74.62,1s-.29.41-.5.41a7.61,7.61,0,0,1-.94-.08c-.41.08-2.51.62-3.33.82A65.19,65.19,0,0,1,109,7.14v5.21h13v4H109v4h16v4.11H109v8.13C109,37,106.53,37,101.15,37l-2-4.43a26.08,26.08,0,0,0,3.12.2c2.14,0,2.14-1,2.14-2.26V24.43H88.25V20.32h16.19v-4H91.62v-4h12.82Z"/><path class="cls-1" d="M168.54,11.49v-4H160V3c.08-.29,1-1.19,1-1.44s-.41-.41-.82-.45L155.77.81V19.29h-6.24V37h4.23V35.27h9.73V37h4.23V19.29H160v-7.8Zm-5,11.29v9h-9.73v-9Z"/></g></g></svg>