<svg xmlns="http://www.w3.org/2000/svg" viewBox="0 0 165.17 54.09"><defs><style>.cls-1{fill:#6d6d6d;}.cls-2{fill:#7aa4a4;}.cls-3{fill:#b7b6b6;}.cls-4{fill:#a9c4a7;}</style></defs><g id="レイヤー_2" data-name="レイヤー 2"><g id="レイヤー_1-2" data-name="レイヤー 1"><path class="cls-1" d="M36.6,33.48c1.91,0,3.21-.86,3.21-3.31a2.72,2.72,0,0,0-3.06-3h-4.9c-2.71,0-5.05-1.44-5.05-5.12s2.13-5.08,5.3-5.08h7.42c.58,0,1.41.26,1.41,1s-.65,1-1.37,1H32c-2.23,0-3.24,1.05-3.24,3.14a2.93,2.93,0,0,0,3.1,3.13h4.93c3.43,0,5,2.24,5,5,0,2.38-1.12,5.19-5.27,5.19h-8c-.72,0-1.41-.39-1.41-1,0-.36.29-.94,1.37-.94Z"/><path class="cls-1" d="M49.8,24.4H59.93c1.73,0,2.38-.57,2.38-2.34,0-2.13-1.48-3.21-4.25-3.21H55.35c-3.28,0-5.26,1.44-5.26,7.1s1.69,7.57,5,7.57h7.53c.47,0,1.19.22,1.19.9a1.07,1.07,0,0,1-1.19,1H55c-5.91,0-6.81-5.08-6.81-9.29,0-8.22,4-9.16,7-9.16h3.17c3.71,0,5.84,2.17,5.84,5.37,0,2.31-1,4-3.93,4H49.85"/><path class="cls-1" d="M94.59,24.4h10.13c1.73,0,2.38-.57,2.38-2.34,0-2.13-1.48-3.21-4.26-3.21h-2.7c-3.28,0-5.26,1.44-5.26,7.1s1.69,7.57,5,7.57h7.53c.47,0,1.19.22,1.19.9a1.07,1.07,0,0,1-1.19,1H99.78c-5.91,0-6.81-5.08-6.81-9.29,0-8.22,4-9.16,7-9.16h3.17c3.71,0,5.84,2.17,5.84,5.37,0,2.31-1.05,4-3.93,4H94.64"/><path class="cls-1" d="M78,23.93l2.27-3.56c1.3-1.95,2.31-3.43,5.22-3.43h1.16c.5,0,1.44.15,1.44.94s-.51,1-2.06,1c-2,0-2.59.25-3.49,1.62L78,27.41V31.5c0,1.62.25,2,1.44,2h3.86c.82,0,1.26.47,1.26.94s-.4,1-1.26,1H72c-.54,0-1.34-.28-1.34-1s.76-.94,1.34-.94h2.34c1.69,0,1.73-.5,1.73-2.27V21.09c0-1.7-.43-2.24-1.88-2.24h-2c-.68,0-1.47-.25-1.47-1s1.08-.94,1.47-.94h2.35A3.12,3.12,0,0,1,78,20.29Z"/><path class="cls-1" d="M163.22,25.63h-7.74a3.6,3.6,0,0,0-3.82,3.71,4.2,4.2,0,0,0,4.25,4.18h3.49a3.49,3.49,0,0,0,3.82-3.86V22.75c0-2.6-1.29-3.9-3.82-3.9h-7.06c-.58,0-1.22-.29-1.22-1s.68-.94,1.22-.94h7.6a5,5,0,0,1,5.23,5.19V30.2c0,3.14-1.73,5.19-5.15,5.19h-4.29a5.9,5.9,0,0,1-6-6,5.46,5.46,0,0,1,5.69-5.66h7.78Z"/><path class="cls-2" d="M142.93,11.17a.85.85,0,0,0-1,.27s-.5.61-2,.61a3.15,3.15,0,0,1-1.9-.47V7.93a3.28,3.28,0,0,0-6.41,0,.84.84,0,0,0,.77.9.85.85,0,0,0,.9-.77c0-.11.12-1.05,1.53-1.05s1.51.81,1.53,1v3.59a3.15,3.15,0,0,1-1.9.47c-1.55,0-2-.58-2-.58a.84.84,0,0,0-1-.33.83.83,0,0,0-.52.94l4.11,21a2.45,2.45,0,0,0,1.35,2v2.06a.84.84,0,1,0,1.68,0V35a2.41,2.41,0,0,0,1.34-1.93l4.12-21A.84.84,0,0,0,142.93,11.17Z"/><path class="cls-1" d="M18.71,35c-.3,0-.4,0-.77,0-1.45-.07-2.36-.44-2.73-2a.11.11,0,0,0-.1-.1c-.07,0-.1,0-.17.1a6.49,6.49,0,0,1-5.15,2.32,5.23,5.23,0,0,1-5.56-5.45V27.32c0-.24,0-.91,0-7C4.2,18.9,3.49,18.8,3,18.8c-.17,0-.2,0-.54,0H.94A.87.87,0,0,1,0,17.92a1,1,0,0,1,1-1H3.36a2.47,2.47,0,0,1,2.79,2.6c0,1.11,0,2.42,0,3.63,0,1.72,0,3.27.07,3.91V29.7c.16,2.76,2,3.94,3.83,3.94a4.9,4.9,0,0,0,5-4.51V20.31c0-.87-.24-1.48-1.08-1.51-.3,0-.23,0-.67,0H11.75a.9.9,0,0,1-.94-.94.91.91,0,0,1,1-.95h2.34c1.52,0,2.83.78,2.83,2.56,0,2.46-.07,4.45-.07,6.37v2.62c0,3.3,0,4.51,1.25,4.61.24,0,.4,0,.57,0h1.54a.9.9,0,0,1,.88,1,.94.94,0,0,1-.91,1Z"/><path class="cls-3" d="M118.15,54.09C102.75,54.09,88.1,50,78,43a.76.76,0,1,1,.87-1.25c9.87,6.87,24.19,10.82,39.29,10.82s29.43-4,39.3-10.82a.76.76,0,0,1,.87,1.25C148.2,50,133.56,54.09,118.15,54.09Z"/><path class="cls-3" d="M56.9,10.88a.74.74,0,0,1-.55-.23A33.14,33.14,0,0,0,33.13,1.58,33.14,33.14,0,0,0,9.9,10.65a.78.78,0,0,1-1.11,0,.79.79,0,0,1,0-1.12A34.69,34.69,0,0,1,33.13,0,34.68,34.68,0,0,1,57.46,9.53a.8.8,0,0,1,0,1.12A.83.83,0,0,1,56.9,10.88Z"/><path class="cls-1" d="M34,45.7a.27.27,0,0,1,.28.29.28.28,0,0,1-.28.3H30a.3.3,0,0,1,0-.59h2.62l.09-1.82v-.05c0-.15-.06-.21-.26-.21H30.58a.27.27,0,0,1-.28-.29.28.28,0,0,1,.28-.3h1.93c.58,0,.81.21.81.71v.08l-.08,1.88Z"/><path class="cls-1" d="M42.44,44.32a.3.3,0,0,1,0,.6H38.56a.3.3,0,0,1,0-.6Z"/><path class="cls-1" d="M49.72,42.82h0c.39,0,.6.18.6.46a1.25,1.25,0,0,1-.06.29,5.09,5.09,0,0,1-.73,1.27A7.83,7.83,0,0,1,51,46.1a.44.44,0,0,1,.1.24.34.34,0,0,1-.34.32.33.33,0,0,1-.26-.13,8.28,8.28,0,0,0-1.31-1.25,6.12,6.12,0,0,1-1.74,1.32.28.28,0,0,1-.15,0,.32.32,0,0,1-.31-.31.28.28,0,0,1,.18-.27,5.14,5.14,0,0,0,2.46-2.5.13.13,0,0,0,0-.08s0-.07-.13-.07l-1.91,0a.26.26,0,0,1-.26-.28.27.27,0,0,1,.26-.3Z"/><path class="cls-1" d="M56.66,45.65c0,.15,0,.2.12.2a.32.32,0,0,0,.13,0,5.48,5.48,0,0,0,2.27-1.54.35.35,0,0,1,.26-.13.32.32,0,0,1,.32.32.3.3,0,0,1-.09.22A6.09,6.09,0,0,1,57,46.47a1,1,0,0,1-.36.06c-.38,0-.62-.24-.62-.71V43a.32.32,0,0,1,.64,0Z"/><path class="cls-1" d="M67.17,43.8c.49,0,.72.2.72.52a1.32,1.32,0,0,1,0,.31,3.76,3.76,0,0,1-2.25,2.18.31.31,0,0,1-.13,0,.31.31,0,0,1-.09-.6,3.06,3.06,0,0,0,1.84-1.68.26.26,0,0,0,0-.1c0-.07,0-.1-.17-.1l-2.7,0a.29.29,0,0,1,0-.58Zm0-1.17a.27.27,0,0,1,.27.29.27.27,0,0,1-.27.29H64.89a.27.27,0,0,1-.26-.29.27.27,0,0,1,.26-.29Z"/><path class="cls-4" d="M127.84,11.17a.87.87,0,0,0-1,.27s-.49.61-2,.61a3.15,3.15,0,0,1-1.9-.47V7.93a3.28,3.28,0,0,0-6.42,0,.84.84,0,0,0,1.68.14c0-.25.22-1.06,1.53-1.06s1.5.81,1.53,1v3.59a3.13,3.13,0,0,1-1.9.47,2.68,2.68,0,0,1-2-.58.84.84,0,0,0-1.53.61l4.11,21a2.43,2.43,0,0,0,1.35,2v2.06a.84.84,0,1,0,1.68,0V35a2.41,2.41,0,0,0,1.34-1.93l4.12-21A.84.84,0,0,0,127.84,11.17Z"/></g></g></svg>