<svg xmlns="http://www.w3.org/2000/svg" viewBox="0 0 123.3 54.23"><defs><style>.cls-1{fill:#cb4042;}.cls-2{fill:#ddb223;}</style></defs><g id="レイヤー_2" data-name="レイヤー 2"><g id="レイヤー_1-2" data-name="レイヤー 1"><path class="cls-1" d="M1.73,0C14.6,2.86,21,4.16,33.7,3.9c1.17,3.85.82,12.58.08,17.88a54,54,0,0,1-22.58-.25c-.26,2.27-.36,6.32-.36,6.32s6.32,2.33,12.36,1.2a33.57,33.57,0,0,1-.36,7.26c-4.31,1.87-10.22,1.12-12.52-.17-.52,3.27-1,7-.3,17.35a10.77,10.77,0,0,1-7.42.18S-2.62,26.35,1.73,0Z"/><path class="cls-1" d="M27,30s-2.38,13.5,0,23.5a14.25,14.25,0,0,1,6.67.5c.49-3,.87-13,.87-13a10.66,10.66,0,0,1,9.55.63c.68-2.11,2-7.35,2-7.35s-6.68-3.18-11.17-.71c.14-.9.45-3.13.45-3.13S30.52,28.06,27,30Z"/><circle class="cls-2" cx="52.3" cy="27.25" r="5.48"/><path class="cls-1" d="M68.78,30.05c0-7,1-19.46,3.62-24.13-5-2.45-12.41-.86-13.69,1.5,0,0,2,25.66,6.33,46.41C80,53,86.77,48,87,35.1,87,22.78,73.57,17.54,68.78,30.05ZM82.1,38.94c-1.5.18-3-2-3.37-4.92s.56-5.41,2-5.59,3,2,3.37,4.91S83.59,38.75,82.1,38.94Z"/><path class="cls-2" d="M52.19,54c-3.95.07-7.88.12-9,.1.36-.79,4.78-18.19,5.69-20.24a11.41,11.41,0,0,0,3.3.34,11.38,11.38,0,0,0,3.29-.34c.92,2.05,5.33,19.45,5.69,20.24C60.06,54.13,56.13,54.08,52.19,54Z"/><path class="cls-1" d="M120.57,34.7c.2-1.93,2.91-3.93,2.72-6s-3.22-3.54-3.77-5.4c-.6-2,1.09-4.92.15-6.6-1-1.84-4.38-1.84-5.73-3.19-1.5-1.5-1.67-4.86-3.43-5.62s-4.27,1.43-6.3,1.61-4.79-1.57-6.49-.44-1.15,4.41-2.34,6.15c-1.09,1.58-4.38,2.2-5.06,4.19-.62,1.83,1.57,4.38,1.35,6.46s-2.91,3.93-2.72,6,3.22,3.54,3.77,5.4-1.09,4.91-.15,6.59c1,1.84,4.38,1.85,5.74,3.2s1.66,4.86,3.42,5.62,4.27-1.43,6.3-1.62,4.79,1.58,6.49.44,1.15-4.41,2.34-6.15c1.09-1.58,4.38-2.19,5.06-4.18C122.54,39.33,120.35,36.77,120.57,34.7Zm-27-3.92,12.08-9S111.11,36.07,93.53,30.78Z"/></g></g></svg>