<svg xmlns="http://www.w3.org/2000/svg" viewBox="0 0 513.07 246.26"><defs><style>.cls-1{isolation:isolate;}.cls-2{fill:#842f33;}.cls-3{fill:#fff;}.cls-4{fill:#ddb223;}.cls-5{fill:#cb4042;}.cls-6,.cls-7{fill:#faecec;}.cls-7{mix-blend-mode:multiply;}.cls-8{fill:#3f3d56;}.cls-9{fill:#ffdcdc;}.cls-10{fill:#2f2e41;}</style></defs><g class="cls-1"><g id="レイヤー_2" data-name="レイヤー 2"><g id="レイヤー_1-2" data-name="レイヤー 1"><path class="cls-2" d="M270.52,92.08h4.55a12.68,12.68,0,0,1-2.13-2.86A15,15,0,0,1,270.52,92.08Z"/><rect class="cls-2" x="133.71" y="137" width="35.54" height="14.71"/><path class="cls-2" d="M91.75,200.38c-1.46.13-2.92.29-4.39.48,0,.42.09.82.13,1.22l4.15,0C91.65,201.55,91.68,201,91.75,200.38Z"/><path class="cls-2" d="M392,83.52c-.21,0-.43.06-.64.09A14.58,14.58,0,0,1,377,95.93H364.72a14.49,14.49,0,0,1-8.46-2.74A12.26,12.26,0,0,1,346.52,98h-4.73a12.1,12.1,0,0,1-6.78-2.1H306.48a14.5,14.5,0,0,1-9.55-3.59,12.21,12.21,0,0,1-7.12,3.33,14.53,14.53,0,0,1,5,11v12.28a14.44,14.44,0,0,1-2.6,8.29,12.31,12.31,0,0,1,2.2,5.45,14.23,14.23,0,0,1,3.83-.53h6.64v-.92a12.3,12.3,0,0,1,12.28-12.28h21.12a12.21,12.21,0,0,1,7.43,2.53,12,12,0,0,1,3.86-1.42,14.55,14.55,0,0,1,13-8.11h12.29a14.57,14.57,0,0,1,12.95,7.91h.89V106.63a14.57,14.57,0,0,1,8.43-13.19A12.25,12.25,0,0,1,392,83.52Z"/><rect class="cls-2" x="418.03" y="130.46" width="5.02" height="13.31"/><path class="cls-2" d="M112.29,95a13.22,13.22,0,0,1-1.5,3.81,12.36,12.36,0,0,1-2.94,3.37,18.71,18.71,0,0,1,2.73,4.16,21.16,21.16,0,0,1,7.81-4.73l4.07-1.34,1-4.28.06-.22h-6.64A14.23,14.23,0,0,1,112.29,95Z"/><path class="cls-2" d="M218.28,95.92H189.73a14.65,14.65,0,0,1-4.84-.84c.11.33.21.66.29,1l.82,3.55c1.12.14,2.23.25,3.26.34a13.81,13.81,0,0,1,9.4-3.68h12a13.85,13.85,0,0,1,11.12,5.59,18.92,18.92,0,0,1,4.44,2.91A14.45,14.45,0,0,1,229,98H225A12.09,12.09,0,0,1,218.28,95.92Z"/><path class="cls-2" d="M147.18,68a12,12,0,0,1-3.6-.54v13.7a15.47,15.47,0,0,1-.1,1.68H154.7V65.44A12.15,12.15,0,0,1,147.18,68Z"/><path class="cls-2" d="M348.07,148.66a12.32,12.32,0,0,1-6.79-5.26v1a10.07,10.07,0,0,1-.31,2.41,10.07,10.07,0,0,1,.31,2.41v2.08c0,.06,0,.12,0,.19a10,10,0,0,1-1.75,5.65,9.94,9.94,0,0,1,1.75,5.64c0,.07,0,.13,0,.19v2.08a10.26,10.26,0,0,1-.33,2.5,10.4,10.4,0,0,1,.33,2.51v1.83a.66.66,0,0,0,0,.14c0,.1,0,.2,0,.3s0,.22,0,.33,0,.22,0,.34,0,.43-.07.65l0,.26c0,.23-.09.47-.14.7,0,.06,0,.12,0,.17-.07.26-.14.51-.22.76l0,.09a7.61,7.61,0,0,1-.31.79l0,.05c-.13.27-.26.53-.4.79l0,0c-.15.26-.31.52-.48.76l0,0c-.17.25-.36.49-.55.72h0l0,0a9.47,9.47,0,0,1-.69.73l-.14.12c-.21.2-.42.38-.65.56l-.18.13c-.22.17-.45.32-.69.47l-.18.11a8,8,0,0,1-.77.4l-.16.08a7.76,7.76,0,0,1-.84.34l-.13,0c-.3.09-.6.18-.91.25l-.11,0c-.32.07-.65.12-1,.16h-.08a9.59,9.59,0,0,1-1.07.06H329a10,10,0,0,1-8.79-14.78,10,10,0,0,1,.53-10.42,10,10,0,0,1-.58-10.33A10,10,0,0,1,329,132.12h2.28a10,10,0,0,1,8.15,4.22v-4.23a12.42,12.42,0,0,1,6.29-10.66,12.21,12.21,0,0,0-7.43-2.53H317.17a12.3,12.3,0,0,0-12.28,12.28v.92h-6.64a14.23,14.23,0,0,0-3.83.53,12.25,12.25,0,0,1,.13,1.73V167.6A14.54,14.54,0,0,1,289,179a14.53,14.53,0,0,0,9.25,3.32h28.52a12.11,12.11,0,0,0,6.79,2.1h4.73a12.28,12.28,0,0,0,11.94-9.52,14.41,14.41,0,0,1-2.16-7.58Z"/><path class="cls-2" d="M341.28,151.3v-2.08a10.07,10.07,0,0,0-.31-2.41,8.56,8.56,0,0,1-.35,1.12A10.15,10.15,0,0,1,341.28,151.3Z"/><path class="cls-2" d="M322.13,155.52a9.84,9.84,0,0,1-.86-4,10.29,10.29,0,0,1,.36-2.62,9.82,9.82,0,0,1-1.47-2.07,10,10,0,0,0,.58,10.33A10.64,10.64,0,0,1,322.13,155.52Z"/><path class="cls-2" d="M335.22,153.59a10,10,0,0,1,4.32,3.55,10,10,0,0,0,1.75-5.65c0-.07,0-.13,0-.19a10.15,10.15,0,0,0-.66-3.37A10,10,0,0,1,335.22,153.59Z"/><path class="cls-2" d="M322.13,155.52a10,10,0,0,1,4.28-2.39,10,10,0,0,1-3.25-2.89,10.48,10.48,0,0,1-1.53-1.37,10.29,10.29,0,0,0-.36,2.62A9.84,9.84,0,0,0,322.13,155.52Z"/><path class="cls-2" d="M331.29,152.12h0a10,10,0,1,1,0-20H329a10,10,0,0,0-8.84,14.68,9.82,9.82,0,0,0,1.47,2.07,10.48,10.48,0,0,0,1.53,1.37,10,10,0,0,0,3.25,2.89,10.05,10.05,0,0,1,2.59-.35h2.28a10,10,0,0,1,3.94.81,10,10,0,0,0,5.4-5.66,8.56,8.56,0,0,0,.35-1.12,10.07,10.07,0,0,0,.31-2.41v-1a.75.75,0,0,1-.07-.12A10,10,0,0,1,331.29,152.12Z"/><path class="cls-2" d="M331.28,132.12a10,10,0,1,0,0,20h0a10,10,0,0,0,9.92-8.84,12.13,12.13,0,0,1-1.78-6.35v-.59A10,10,0,0,0,331.28,132.12Z"/><path class="cls-2" d="M321.27,162.78a10,10,0,0,1,10-10H329a10.1,10.1,0,0,0-6.87,2.74,10.64,10.64,0,0,0-1.39,1.61,10,10,0,0,0-.53,10.42,10.32,10.32,0,0,1,1.46-2A10.06,10.06,0,0,1,321.27,162.78Z"/><path class="cls-2" d="M341,167.55a10.26,10.26,0,0,0,.33-2.5V163a10.15,10.15,0,0,1-.69,3.46A11.22,11.22,0,0,1,341,167.55Z"/><path class="cls-2" d="M335.22,153.59a10,10,0,0,0-14,9.19,10.06,10.06,0,0,0,.4,2.76,10,10,0,0,1,1.5-1.34,10,10,0,0,1,17.42,2.23,10.15,10.15,0,0,0,.69-3.46c0-.06,0-.12,0-.19a10,10,0,0,0-6.07-9.19Z"/><path class="cls-2" d="M340,177.26l0,0Z"/><path class="cls-2" d="M340.41,176.42l0,.05Z"/><path class="cls-2" d="M340.76,175.54l0,.09Z"/><path class="cls-2" d="M339.49,178.05l0,0Z"/><path class="cls-2" d="M341,174.61c0,.06,0,.12,0,.17S341,174.67,341,174.61Z"/><path class="cls-2" d="M341.27,172.66c0,.11,0,.22,0,.34C341.27,172.88,341.27,172.77,341.27,172.66Z"/><path class="cls-2" d="M338.9,178.81h0l0,0Z"/><path class="cls-2" d="M341.19,173.65l0,.26Z"/><path class="cls-2" d="M332.45,182.26h0Z"/><path class="cls-2" d="M338.19,179.56l-.14.12Z"/><path class="cls-2" d="M334.58,181.77l-.13,0Z"/><path class="cls-2" d="M333.54,182.07l-.11,0Z"/><path class="cls-2" d="M335.58,181.35l-.16.08Z"/><path class="cls-2" d="M337.4,180.24l-.18.13Z"/><path class="cls-2" d="M336.53,180.84l-.18.11Z"/><path class="cls-2" d="M331.28,160.06a10,10,0,0,0-8.11,4.14,10,10,0,0,0-1.5,1.34,10.32,10.32,0,0,0-1.46,2A10,10,0,0,0,329,182.33h2.29a10,10,0,1,1,10-10.3.66.66,0,0,1,0-.14v-1.83a10.4,10.4,0,0,0-.33-2.51,11.22,11.22,0,0,0-.36-1.12A10,10,0,0,0,331.28,160.06Z"/><path class="cls-2" d="M331.29,162.33a10,10,0,1,0,0,20h0a9.59,9.59,0,0,0,1.07-.06h.08c.33,0,.66-.09,1-.16l.11,0c.31-.07.61-.16.91-.25l.13,0a7.76,7.76,0,0,0,.84-.34l.16-.08a8,8,0,0,0,.77-.4l.18-.11c.24-.15.47-.3.69-.47l.18-.13c.23-.18.44-.36.65-.56l.14-.12a9.47,9.47,0,0,0,.69-.73l0,0c.19-.23.38-.47.55-.72l0,0c.17-.24.33-.5.48-.76l0,0c.14-.26.27-.52.4-.79l0-.05a7.61,7.61,0,0,0,.31-.79l0-.09c.08-.25.15-.5.22-.76,0-.05,0-.11,0-.17.05-.23.1-.47.14-.7l0-.26c0-.22.05-.43.07-.65s0-.23,0-.34,0-.22,0-.33,0-.2,0-.3A10,10,0,0,0,331.29,162.33Z"/><path class="cls-2" d="M296.93,92.33a14.5,14.5,0,0,0,9.55,3.59H335a12.1,12.1,0,0,0,6.78,2.1h4.73a12.26,12.26,0,0,0,9.74-4.83,14.54,14.54,0,0,1-6.09-11.82v-34a14.54,14.54,0,0,1,5.15-11.09,12.23,12.23,0,0,0-8.8-3.74H325.4a12.29,12.29,0,0,0-12.27,12.28v.92h-6.65a14.53,14.53,0,0,0-5.75,1.19V83.47A12.23,12.23,0,0,1,296.93,92.33Zm30.3-16A9.94,9.94,0,0,1,329,70.73a10,10,0,0,1-1.75-5.65,9.84,9.84,0,0,1,1.17-4.68,10,10,0,0,1,8.83-14.69h2.28a10,10,0,0,1,10,10V58a10.07,10.07,0,0,1-.3,2.41,10.07,10.07,0,0,1,.3,2.41v2.27a10,10,0,0,1-1.74,5.65,9.93,9.93,0,0,1,1.74,5.64v2.27a9.93,9.93,0,0,1-.33,2.51,9.79,9.79,0,0,1,.33,2.5v1.83a10,10,0,0,1-10,10.44h-2.29a10,10,0,0,1-8.78-14.77A10,10,0,0,1,327.23,76.37Z"/><path class="cls-2" d="M343.46,67.18a10,10,0,0,1,4.31,3.55,10,10,0,0,0,1.74-5.65V62.81a10.07,10.07,0,0,0-.3-2.41A10,10,0,0,1,343.46,67.18Z"/><path class="cls-2" d="M334.65,66.72a10.16,10.16,0,0,1-3.26-2.89,10.07,10.07,0,0,1-3-3.43,9.84,9.84,0,0,0-1.17,4.68A10,10,0,0,0,329,70.73,9.94,9.94,0,0,1,334.65,66.72Z"/><path class="cls-2" d="M331.39,63.83a10.16,10.16,0,0,0,3.26,2.89,10,10,0,0,1,2.58-.35h2.28a10,10,0,0,1,3.95.81A10,10,0,0,0,349.51,58V55.71a10,10,0,0,0-10-10h-2.28a10,10,0,0,0-5.84,18.12Z"/><path class="cls-2" d="M331.41,77.79a10,10,0,0,1,17.77,3.36,9.93,9.93,0,0,0,.33-2.51V76.37a10,10,0,0,0-10-10h-2.28a10,10,0,0,0-8.78,14.78A10.17,10.17,0,0,1,331.41,77.79Z"/><path class="cls-2" d="M337.23,95.92h2.29a10,10,0,0,0,10-10.44V83.65a9.79,9.79,0,0,0-.33-2.5,10,10,0,0,0-17.77-3.36,10.17,10.17,0,0,0-3,3.36,10,10,0,0,0,8.78,14.77Z"/><path class="cls-2" d="M111.63,85.3a18.37,18.37,0,0,1,.66,9.67,14.23,14.23,0,0,0,4.63.77h6.64a17.56,17.56,0,0,1,16.6-12.87h3.32a15.47,15.47,0,0,0,.1-1.68V67.49a12,12,0,0,0,3.6.54,12.15,12.15,0,0,0,7.52-2.59V82.87h13.85a16.58,16.58,0,0,1,7,1.56,14.64,14.64,0,0,1-.33-3.06V60.26a14.56,14.56,0,0,1,8.89-13.4V18A12.14,12.14,0,0,0,171.8,5.67H167A12.14,12.14,0,0,0,154.7,18v6.14l-7.47,7.47-3.65-3.65V20.49A14.4,14.4,0,0,0,129,5.94H116.92a14.57,14.57,0,0,0-14.55,14.55V74.7C105.63,75.88,109.56,78.68,111.63,85.3Z"/><path class="cls-2" d="M350.17,47.34v34a14.61,14.61,0,0,0,14.55,14.56H377a14.58,14.58,0,0,0,14.38-12.32c.21,0,.43,0,.64-.09a12.25,12.25,0,0,0,5.15,9.92,14.55,14.55,0,0,1,6.12-1.36h12.29a14.52,14.52,0,0,1-4.72-10.71V46.88a14.52,14.52,0,0,1,5.68-11.5A12.15,12.15,0,0,0,409,32.79h-4.73A12.15,12.15,0,0,0,392,45.06v.34l-.54.55A14.56,14.56,0,0,0,377,32.79H364.72a14.58,14.58,0,0,0-14.55,14.55Z"/><path class="cls-2" d="M410.87,46.88V81.37a14.52,14.52,0,0,0,4.72,10.71h22.2a72.56,72.56,0,0,0-8.21-9.47,10,10,0,0,1,9.91-16.74A86.79,86.79,0,0,1,452.25,71V46.88a14.54,14.54,0,0,0-5.91-11.7V27.05a12.3,12.3,0,0,0-12.28-12.28h-4.82A12.45,12.45,0,0,0,417,27.05v8c-.14.1-.27.22-.41.33A14.52,14.52,0,0,0,410.87,46.88Z"/><path class="cls-2" d="M294.55,167.6V134.38a12.42,12.42,0,0,0-2.33-7.18,14.44,14.44,0,0,0,2.6-8.29V106.63a14.53,14.53,0,0,0-5-11,11.94,11.94,0,0,1-1.35.08h-4.73a12.25,12.25,0,0,1-8.66-3.66h-4.55a14.46,14.46,0,0,1-9.82,3.84H248.42a14.5,14.5,0,0,1-8.75-3,12.25,12.25,0,0,1-9.9,5H229a14.45,14.45,0,0,0-2.72,6.77,18.69,18.69,0,0,1,6.38,14v44.66a18.58,18.58,0,0,1-4.42,12,14.54,14.54,0,0,0,12.19,6.64H280a14.59,14.59,0,0,0,14.55-14.55Z"/><path class="cls-2" d="M389,170.36a10.12,10.12,0,0,1-.23-2.12v-48.4h-.89a14.57,14.57,0,0,0-12.95-7.91H362.62a14.55,14.55,0,0,0-13,8.11,12,12,0,0,0-3.86,1.42,12.42,12.42,0,0,0-6.29,10.66v4.82a12.13,12.13,0,0,0,1.78,6.35.75.75,0,0,0,.07.12,12.32,12.32,0,0,0,6.79,5.26v18.67a14.62,14.62,0,0,0,14.55,14.55h25.94a12.35,12.35,0,0,0,6.93-2.09A15.09,15.09,0,0,1,389,170.36Z"/><path class="cls-2" d="M444.43,177.41a10,10,0,0,1-.44-9.73c.24-.48.48-1,.71-1.47a72.85,72.85,0,0,0-6.91-74.13H403.3a14.58,14.58,0,0,0-14.55,14.55v61.61a10.12,10.12,0,0,0,.23,2.12,15.09,15.09,0,0,0,6.51,9.43,14.32,14.32,0,0,0,7.81,2.36h34.58a14.35,14.35,0,0,0,8.27-2.66A10.19,10.19,0,0,1,444.43,177.41Zm-21.37-33.64h-5V130.46h5Z"/><path class="cls-2" d="M200.94,147.25a1.25,1.25,0,1,0,1.24,1.24A1.26,1.26,0,0,0,200.94,147.25Z"/><path class="cls-2" d="M232.64,118.82a18.69,18.69,0,0,0-6.38-14,18.92,18.92,0,0,0-4.44-2.91,13.85,13.85,0,0,0-11.12-5.59h-12a13.81,13.81,0,0,0-9.4,3.68c-1-.09-2.14-.2-3.26-.34l-.82-3.55c-.08-.34-.18-.67-.29-1a14.6,14.6,0,0,1-9.38-10.65,16.58,16.58,0,0,0-7-1.56H140.16a17.56,17.56,0,0,0-16.6,12.87l-.06.22-1,4.28-4.07,1.34a21.16,21.16,0,0,0-7.81,4.73,14.93,14.93,0,0,1,1.45,6.38,27.35,27.35,0,0,0,2.52,6.67,10.24,10.24,0,0,1,.75,1.88c.66,2.31,2.49,10.35-1.69,16.59a13.67,13.67,0,0,1-1.25,1.57,20.24,20.24,0,0,1,8.8,3.14l.1.07a15.57,15.57,0,0,1,6,7,17.51,17.51,0,0,1,2,10.19l-.11,1.85c-.51,9.13-1,15.71-1.51,20.53H214a18.72,18.72,0,0,0,18.68-18.67Zm-31.7,30.92a1.25,1.25,0,1,1,1.24-1.25A1.26,1.26,0,0,1,200.94,149.74Zm-31.69,2H133.71V137h35.54Z"/><path class="cls-2" d="M222.76,45.71a10,10,0,0,1,10,10v9.37A9.9,9.9,0,0,1,231,70.73a9.87,9.87,0,0,1,1.75,5.64v9.11a10,10,0,0,1-10,10.44h-4.49A12.09,12.09,0,0,0,225,98h4.73a12.25,12.25,0,0,0,9.9-5,14.54,14.54,0,0,1-5.8-11.6v-34a14.49,14.49,0,0,1,4.91-10.86,12.26,12.26,0,0,0-9-4H208.65a12.29,12.29,0,0,0-12.27,12.28v.92h26.38Z"/><path class="cls-2" d="M175.18,60.26V81.37a14.59,14.59,0,0,0,14.55,14.55h30.75a10,10,0,0,1-8.78-14.77,10,10,0,0,1,.53-10.42,10,10,0,0,1-1.75-5.65,9.84,9.84,0,0,1,1.17-4.68,10,10,0,0,1,8.83-14.69H189.73a14.56,14.56,0,0,0-14.55,14.55Z"/><path class="cls-2" d="M232.76,83.65v-5a9.93,9.93,0,0,1-.33,2.51A9.79,9.79,0,0,1,232.76,83.65Z"/><path class="cls-2" d="M232.76,62.81V58a10.07,10.07,0,0,1-.3,2.41A10.07,10.07,0,0,1,232.76,62.81Z"/><path class="cls-2" d="M217.9,66.72a10.16,10.16,0,0,1-3.26-2.89,10.07,10.07,0,0,1-3-3.43,9.84,9.84,0,0,0-1.17,4.68,10,10,0,0,0,1.75,5.65A9.94,9.94,0,0,1,217.9,66.72Z"/><path class="cls-2" d="M226.71,67.18a9.94,9.94,0,0,1,4.3,3.55,9.9,9.9,0,0,0,1.75-5.65V62.81a10.07,10.07,0,0,0-.3-2.41A10,10,0,0,1,226.71,67.18Z"/><path class="cls-2" d="M214.64,63.83a10.16,10.16,0,0,0,3.26,2.89,10,10,0,0,1,2.58-.35h2.28a10,10,0,0,1,4,.81,10,10,0,0,0,6-9.19V55.71a10,10,0,0,0-10-10h-2.28a10,10,0,0,0-5.84,18.12Z"/><path class="cls-2" d="M214.66,77.79a10,10,0,0,1,17.77,3.36,9.93,9.93,0,0,0,.33-2.51V76.37a10,10,0,0,0-6-9.19,10,10,0,0,0-4-.81h-2.28a10,10,0,0,0-8.78,14.78A10.17,10.17,0,0,1,214.66,77.79Z"/><path class="cls-2" d="M230.39,92.4a10,10,0,0,0,2.37-6.92V83.65a9.79,9.79,0,0,0-.33-2.5,10,10,0,0,0-17.77-3.36,10.17,10.17,0,0,0-3,3.36,10,10,0,0,0,8.78,14.77h2.29A10,10,0,0,0,230.39,92.4Z"/><path class="cls-2" d="M233.87,47.34v34a14.6,14.6,0,0,0,14.55,14.55H260.7a14.46,14.46,0,0,0,9.82-3.84,15,15,0,0,0,2.42-2.86,11.92,11.92,0,0,1-1.49-5.75V62.07h-6.2a10,10,0,0,1-10-10v-.91a10,10,0,0,1,5.45-18.37H248.42a14.62,14.62,0,0,0-14.55,14.55Z"/><path class="cls-2" d="M277.53,42.79a10,10,0,0,1-1.14,4.63,10,10,0,0,1-8.86,14.65h3.92v21.4a11.92,11.92,0,0,0,1.49,5.75,12.68,12.68,0,0,0,2.13,2.86,12.25,12.25,0,0,0,8.66,3.66h4.73a11.94,11.94,0,0,0,1.35-.08,12.3,12.3,0,0,0,10.92-12.19V45.06a12.14,12.14,0,0,0-12.27-12.27H267.53A10,10,0,0,1,277.53,42.79Z"/><path class="cls-2" d="M250.7,42.79a10,10,0,0,0,4.55,8.37V49.8a10,10,0,0,1,18.11-5.86,10.15,10.15,0,0,1,3,3.48,10,10,0,0,0-8.86-14.63H260.7A10,10,0,0,0,250.7,42.79Z"/><path class="cls-2" d="M277.53,52.07a10,10,0,0,0-1.14-4.65,10.15,10.15,0,0,0-3-3.48,10,10,0,0,0-18.11,5.86v2.27a10,10,0,0,0,10,10h2.28A10,10,0,0,0,277.53,52.07Z"/><path class="cls-2" d="M466.82,177.53a10,10,0,0,1-.45-9.72l.36-.76a37.68,37.68,0,0,0-7.8-43.26,10,10,0,0,1,6.95-17.19,10.13,10.13,0,0,1,3,.45,54,54,0,0,1,11.65,5.16,10,10,0,0,1,14-1.38A51,51,0,0,1,511,134.31a66.21,66.21,0,0,0-1.57-20.41c-3.81-16.13-13.68-31.32-27.77-42.79a10,10,0,0,0-16.32,7.81,82.15,82.15,0,0,0-13.06-8,86.79,86.79,0,0,0-12.76-5.09,10,10,0,0,0-9.91,16.74,73,73,0,0,1,15.12,83.6c-.23.49-.47,1-.71,1.47a10,10,0,0,0,.44,9.73,10.19,10.19,0,0,0,1.72,2.08,10,10,0,0,0,6.79,2.66h21A10,10,0,0,1,466.82,177.53Z"/><path class="cls-2" d="M511.94,137.77c-.27-1.17-.6-2.32-1-3.46a60.46,60.46,0,0,1-11.28,31.07,53.81,53.81,0,0,1-14.5,13.48c-1.19.76-2.43,1.48-3.66,2.13a10,10,0,0,1-4.68,1.16h-3a9.6,9.6,0,0,0,1.42.11h13.76a10.11,10.11,0,0,0,4.69-1.16c.8-.43,1.6-.9,2.39-1.39a35.39,35.39,0,0,0,9.48-8.82C512.35,161.8,514.7,149.42,511.94,137.77Z"/><path class="cls-2" d="M481.53,181c1.23-.65,2.47-1.37,3.66-2.13a53.81,53.81,0,0,0,14.5-13.48A60.46,60.46,0,0,0,511,134.31a51,51,0,0,0-16.46-23.48,10,10,0,0,0-14,1.38,54,54,0,0,0-11.65-5.16,10.13,10.13,0,0,0-3-.45,10,10,0,0,0-6.95,17.19,37.68,37.68,0,0,1,7.8,43.26l-.36.76a10,10,0,0,0,7.53,14.34h3A10,10,0,0,0,481.53,181Z"/><path class="cls-2" d="M481.53,181c1.23-.65,2.47-1.37,3.66-2.13a53.81,53.81,0,0,0,14.5-13.48A60.46,60.46,0,0,0,511,134.31a51,51,0,0,0-16.46-23.48,10,10,0,0,0-14,1.38,54,54,0,0,0-11.65-5.16,10.13,10.13,0,0,0-3-.45,10,10,0,0,0-6.95,17.19,37.68,37.68,0,0,1,7.8,43.26l-.36.76a10,10,0,0,0,7.53,14.34h3A10,10,0,0,0,481.53,181Z"/><path class="cls-2" d="M95.21,81.36a10.55,10.55,0,0,1,1.07.39,12.74,12.74,0,0,1,10.5,6.72c1.17,2.21,2.59,6.61.86,13.44l.21.24a12.36,12.36,0,0,0,2.94-3.37,13.22,13.22,0,0,0,1.5-3.81,18.37,18.37,0,0,0-.66-9.67c-2.07-6.62-6-9.42-9.26-10.6a13.91,13.91,0,0,0-4.57-.82,13.23,13.23,0,0,0-4.07.64,9.49,9.49,0,0,0-.94-.85L90.63,72a9.94,9.94,0,0,0-2.83-1.56c.07.3.13.6.19.9A11,11,0,0,1,95.21,81.36Z"/><path class="cls-2" d="M36.53,223.71H33.89a9.93,9.93,0,0,1-4.38,1H25a10,10,0,0,1-4.68-1.16c-.42-.22-.83-.46-1.24-.72a18.27,18.27,0,0,1-4.89-4.55,19.56,19.56,0,0,1-3.7-10.48,9.72,9.72,0,0,0-4.85,8.77c0,9.44,10.26,11,13.63,11.55,3.6.55,8.64,1,15,1.45,2.25.15,4.64.28,7.14.41a61.85,61.85,0,0,1-1.64-6.88A9.57,9.57,0,0,1,36.53,223.71Z"/><path class="cls-2" d="M121.16,221.72a43.63,43.63,0,0,0-6.39,3.74,10,10,0,0,1-2.21,1.18,25.41,25.41,0,0,1-8.31,1.66c-6.73,0-11.88-4.39-12.51-10.68a66.92,66.92,0,0,1,.58-11.31,11.72,11.72,0,0,1-.68-4.21l-4.15,0c.81,7.95-.89,11.09-1.59,12.37a19.29,19.29,0,0,1-1.05,1.68,20.05,20.05,0,0,1-10.3,9.39,52.7,52.7,0,0,1-.94,5.32q3.94,0,8,0h1.72c18.27,0,35.48-.52,48.45-1.39,6.5-.43,11.67-.94,15.36-1.51s13.79-2.14,13.78-11.62-10.27-11-13.63-11.54c-3.6-.56-8.64-1.05-15-1.46l-2.16-.14h0C131.3,209.86,129,218.12,121.16,221.72Z"/><path class="cls-2" d="M91.78,80.81a11.31,11.31,0,0,1,2.77.35c.23,0,.44.13.66.2a11,11,0,0,0-7.22-10,19,19,0,0,1,.27,2.81,23,23,0,0,1,2.19,6.78A11.72,11.72,0,0,1,91.78,80.81Z"/><path class="cls-2" d="M91.78,80.81a11.72,11.72,0,0,0-1.33.09c.09.56.16,1.13.2,1.7a12.84,12.84,0,0,1,4.76-.89c.29,0,.58,0,.87,0a10.55,10.55,0,0,0-1.07-.39c-.22-.07-.43-.15-.66-.2A11.31,11.31,0,0,0,91.78,80.81Z"/><path class="cls-2" d="M106.78,88.47a12.74,12.74,0,0,0-10.5-6.72c-.29,0-.58,0-.87,0a12.84,12.84,0,0,0-4.76.89c.06.64.09,1.29.09,1.94a23.09,23.09,0,0,1-1.66,8.62l9,2.18a9.7,9.7,0,0,1,2.32.87,27.06,27.06,0,0,1,7.26,5.7C109.37,95.08,108,90.68,106.78,88.47Z"/><path class="cls-2" d="M90.74,84.54c0-.65,0-1.3-.09-1.94s-.11-1.14-.2-1.7a23,23,0,0,0-2.19-6.78,17.72,17.72,0,0,1-3.77,11.22l-.16.2c0,.22-.07.44-.11.66A13.81,13.81,0,0,1,82,91.42l7.11,1.74A23.09,23.09,0,0,0,90.74,84.54Z"/><path class="cls-2" d="M124.47,208.32a11.41,11.41,0,0,1-8.41,5.59,17.53,17.53,0,0,1-2.42.15c-3.58,0-12.6-1.05-15.11-1.89a10,10,0,0,1-6.21-5.86,66.92,66.92,0,0,0-.58,11.31c.63,6.29,5.78,10.68,12.51,10.68a25.41,25.41,0,0,0,8.31-1.66,10,10,0,0,0,2.21-1.18,43.63,43.63,0,0,1,6.39-3.74c7.82-3.6,10.14-11.86,9-18.5h0a12.44,12.44,0,0,0-5.24-8.13,10.12,10.12,0,0,0-.22,1.56C125.63,199.05,127.12,203.66,124.47,208.32Z"/><path class="cls-2" d="M41.46,192a10,10,0,0,1,3.3,1.71,21.06,21.06,0,0,1,1.48-3.09A17.58,17.58,0,0,1,50,186.14a25.71,25.71,0,0,1-2.71-.52c-5.8-1.43-8.16-5-9.11-7.92.09,3.71,1.09,8.07,2.62,13.28.12.18.26.35.37.54S41.37,191.86,41.46,192Z"/><path class="cls-2" d="M129.28,159.77a17.51,17.51,0,0,0-2-10.19,15.57,15.57,0,0,0-6-7l-.1-.07a20.24,20.24,0,0,0-8.8-3.14,13.92,13.92,0,0,1-8.9,4.49,14.88,14.88,0,0,1-1.64.09h0a13,13,0,0,1-1.4-.07,33.43,33.43,0,0,0,2.51,8.29l.93.69c2.22,1.62,6.35,4.64,7,10.41.67,6.12-3.32,10.64-4.63,12.13C98.79,183.84,88,188.1,74.05,188.1l-1.21,0a17.48,17.48,0,0,1,4.55,14.7c-.83,5.85-1.85,12-2.19,14.08a83.09,83.09,0,0,1-.65,8.67,20.05,20.05,0,0,0,10.3-9.39,19.29,19.29,0,0,0,1.05-1.68c.7-1.28,2.4-4.42,1.59-12.37,0-.4-.08-.8-.13-1.22,1.47-.19,2.93-.35,4.39-.48-.07.6-.1,1.17-.11,1.72a11.72,11.72,0,0,0,.68,4.21,10,10,0,0,0,6.21,5.86c2.51.84,11.53,1.89,15.11,1.89a17.53,17.53,0,0,0,2.42-.15,11.41,11.41,0,0,0,8.41-5.59c2.65-4.66,1.16-9.27.2-11.68a10.12,10.12,0,0,1,.22-1.56,11.84,11.84,0,0,1,.65-2.17c.86-2.07,1.52-5.27,2.12-10.76.52-4.82,1-11.4,1.51-20.53Z"/><path class="cls-2" d="M75.2,216.85c.34-2.06,1.36-8.23,2.19-14.08a17.48,17.48,0,0,0-4.55-14.7c-2,0-4.12-.13-6.29-.34L59,187.05c-4.11-.36-6.84-.61-8.95-.91a17.58,17.58,0,0,0-3.78,4.51,21.06,21.06,0,0,0-1.48,3.09,10.1,10.1,0,0,1,2.43,2.76,10,10,0,0,1-1.65,12.27.38.38,0,0,0-.08.44,10,10,0,0,1-5.69,13.92A61.85,61.85,0,0,0,41.41,230c.71,2.4,1.63,5.11,2.81,8.17.12.29.24.57.38.85a14,14,0,0,0,12.69,7.23,20,20,0,0,0,5.14-.71c2.32-.62,8.28-2.21,11.18-14.71a52.7,52.7,0,0,0,.94-5.32A83.09,83.09,0,0,0,75.2,216.85Z"/><path class="cls-2" d="M47.31,185.62a25.71,25.71,0,0,0,2.71.52c2.11.3,4.84.55,8.95.91l7.58.68c2.17.21,4.26.31,6.29.34l1.21,0c13.92,0,24.74-4.26,32.16-12.67,1.31-1.49,5.3-6,4.63-12.13-.63-5.77-4.76-8.79-7-10.41l-.93-.69a33.43,33.43,0,0,1-2.51-8.29,13,13,0,0,0,1.4.07h0a14.88,14.88,0,0,0,1.64-.09,13.92,13.92,0,0,0,8.9-4.49,13.67,13.67,0,0,0,1.25-1.57c4.18-6.24,2.35-14.28,1.69-16.59a10.24,10.24,0,0,0-.75-1.88,27.35,27.35,0,0,1-2.52-6.67,14.93,14.93,0,0,0-1.45-6.38,18.71,18.71,0,0,0-2.73-4.16l-.21-.24a27.06,27.06,0,0,0-7.26-5.7,9.7,9.7,0,0,0-2.32-.87l-9-2.18L82,91.42a12.35,12.35,0,0,1-3.26,3.19,15.69,15.69,0,0,1-.86,3.61A9.84,9.84,0,0,1,77,100a14.22,14.22,0,0,1-7.09,5.86,27.26,27.26,0,0,1-10.56,1.81c-.82,0-1.63,0-2.44,0a11.39,11.39,0,0,1-3.79-.64,11.84,11.84,0,0,1-1.22-.53,11.37,11.37,0,0,1-3.33-2.56A31,31,0,0,1,45.45,100c-.86-1.3-1.54-2.54-2.14-3.63-.19-.36-.38-.71-.57-1l-.27.28a15.1,15.1,0,0,0-4.89,5.66A23.82,23.82,0,0,0,35.77,119c2.29,8.13,3,10.82,3.15,11.62a16.56,16.56,0,0,0,3.28,7.77c-.33,5.62-2.33,18.77-3.25,24.83-1.15,7.59-1.38,9.2-1.38,10.61a13.14,13.14,0,0,0,.63,3.91C39.15,180.64,41.51,184.19,47.31,185.62Z"/><path class="cls-2" d="M45.45,100a31,31,0,0,0,3.09,3.94,11.37,11.37,0,0,0,3.33,2.56,11.84,11.84,0,0,0,1.22.53,11.39,11.39,0,0,0,3.79.64c.81,0,1.62,0,2.44,0a27.26,27.26,0,0,0,10.56-1.81A14.22,14.22,0,0,0,77,100a9.84,9.84,0,0,0,.88-1.82,15.69,15.69,0,0,0,.86-3.61A12.35,12.35,0,0,0,82,91.42a13.81,13.81,0,0,0,2.25-5.22c0-.22.08-.44.11-.66l.16-.2a17.72,17.72,0,0,0,3.77-11.22A19,19,0,0,0,88,71.31c-.06-.3-.12-.6-.19-.9s-.11-.48-.18-.72-.07-.24-.1-.36C85.8,64,80.72,57.87,73.65,57.16a12.39,12.39,0,0,0-1.36-.07,15.82,15.82,0,0,0-5.07.91l-1-.16a26.73,26.73,0,0,0-4.9-.52l-.53,0a24.31,24.31,0,0,0-10.32,3A25.2,25.2,0,0,0,43.92,65,16.76,16.76,0,0,0,39,76.37a2.71,2.71,0,0,0,0,.29,14.11,14.11,0,0,0-1,10.9,10.7,10.7,0,0,0,.41,1.07A21.65,21.65,0,0,0,41.9,94a15.64,15.64,0,0,1,.84,1.37c.19.33.38.68.57,1C43.91,97.45,44.59,98.69,45.45,100Z"/><path class="cls-2" d="M19.11,222.86c.41.26.82.5,1.24.72A10,10,0,0,0,25,224.74h4.48a9.93,9.93,0,0,0,4.38-1h-.36a10.06,10.06,0,0,1-4.71-1.18q-.53-.28-1-.6a15.26,15.26,0,0,1-4.15-3.86,16.51,16.51,0,0,1-2.71-13.67,18.82,18.82,0,0,1,6.47-10.14A10,10,0,0,1,33.72,192a10.28,10.28,0,0,1,1.57.12l.34-.11a9.87,9.87,0,0,1,5.83,0c-.09-.17-.17-.34-.27-.51s-.25-.36-.37-.54a9.94,9.94,0,0,0-11.19-3.92c-.55.17-1.09.36-1.63.56a10.18,10.18,0,0,0-2.68-.36A10,10,0,0,0,19,189.5,23.06,23.06,0,0,0,11,202a20.14,20.14,0,0,0-.5,5.88,19.56,19.56,0,0,0,3.7,10.48A18.27,18.27,0,0,0,19.11,222.86Z"/><path class="cls-2" d="M38.58,191.59a10,10,0,0,0-2.95.44l-.34.11a10.28,10.28,0,0,0-1.57-.12,10,10,0,0,0-6.31,2.24,18.82,18.82,0,0,0-6.47,10.14,16.51,16.51,0,0,0,2.71,13.67,15.26,15.26,0,0,0,4.15,3.86q.49.31,1,.6a10.06,10.06,0,0,0,4.71,1.18h3a9.57,9.57,0,0,0,3.24-.58,10,10,0,0,0,5.69-13.92.38.38,0,0,1,.08-.44,10,10,0,0,0,1.65-12.27,10.1,10.1,0,0,0-2.43-2.76,10.2,10.2,0,0,0-6.18-2.15Z"/><path class="cls-3" d="M386.36,77.85c-.21,0-.43.07-.64.09a14.58,14.58,0,0,1-14.38,12.32H359.05a14.49,14.49,0,0,1-8.46-2.74,12.26,12.26,0,0,1-9.74,4.83h-4.73a12.1,12.1,0,0,1-6.78-2.1H300.81a14.46,14.46,0,0,1-9.54-3.59A12.27,12.27,0,0,1,284.14,90a14.53,14.53,0,0,1,5,11v12.28a14.51,14.51,0,0,1-2.59,8.29,12.29,12.29,0,0,1,2.19,5.45,14.23,14.23,0,0,1,3.83-.53h6.64v-.92a12.3,12.3,0,0,1,12.28-12.28h21.12a12.21,12.21,0,0,1,7.43,2.53,12.11,12.11,0,0,1,3.86-1.42,14.57,14.57,0,0,1,13-8.11h12.28a14.57,14.57,0,0,1,12.95,7.91h.89V101a14.57,14.57,0,0,1,8.43-13.19A12.28,12.28,0,0,1,386.36,77.85Z"/><path class="cls-3" d="M264.85,86.41h4.55a12.68,12.68,0,0,1-2.13-2.86A15,15,0,0,1,264.85,86.41Z"/><rect class="cls-3" x="412.36" y="124.79" width="5.02" height="13.31"/><rect class="cls-3" x="128.04" y="131.33" width="35.54" height="14.71"/><path class="cls-3" d="M86.08,194.71c-1.45.13-2.92.29-4.39.48,0,.42.09.82.13,1.22l4.15,0C86,195.88,86,195.31,86.08,194.71Z"/><path class="cls-3" d="M212.61,90.25H184.06a14.29,14.29,0,0,1-4.83-.84c.1.33.2.66.28,1l.82,3.54c1.13.14,2.23.25,3.26.34a13.81,13.81,0,0,1,9.4-3.68h12a13.83,13.83,0,0,1,11.12,5.6,18.57,18.57,0,0,1,4.44,2.9,14.45,14.45,0,0,1,2.72-6.77h-3.94A12.09,12.09,0,0,1,212.61,90.25Z"/><path class="cls-3" d="M141.51,62.36a12,12,0,0,1-3.6-.54v13.7a15.47,15.47,0,0,1-.1,1.68H149V59.77A12.15,12.15,0,0,1,141.51,62.36Z"/><path class="cls-3" d="M106.62,89.31a13.45,13.45,0,0,1-1.5,3.81,12.47,12.47,0,0,1-2.94,3.36,18.71,18.71,0,0,1,2.73,4.16,21.16,21.16,0,0,1,7.81-4.73l4.07-1.34,1-4.28.06-.22h-6.64A14.5,14.5,0,0,1,106.62,89.31Z"/><path class="cls-3" d="M342.4,143a12.32,12.32,0,0,1-6.79-5.26v1a10.07,10.07,0,0,1-.31,2.41,10.07,10.07,0,0,1,.31,2.41v2.08c0,.06,0,.13,0,.19a10,10,0,0,1-1.75,5.65,10,10,0,0,1,1.75,5.64c0,.07,0,.13,0,.19v2.08a9.93,9.93,0,0,1-.33,2.51,9.79,9.79,0,0,1,.33,2.5v2c0,.1,0,.2,0,.3s0,.22,0,.33,0,.23,0,.34l-.06.65a2.34,2.34,0,0,0,0,.26c0,.24-.09.47-.14.7,0,.06,0,.12,0,.17-.07.26-.14.51-.22.76l0,.09a7.61,7.61,0,0,1-.31.79s0,0,0,.05c-.12.27-.26.53-.4.79l0,0c-.15.26-.31.52-.48.76l0,0a7.61,7.61,0,0,1-.55.72h0l0,0a6.78,6.78,0,0,1-.69.73l-.13.12c-.22.2-.43.38-.66.56l-.18.13c-.22.17-.45.32-.69.47l-.18.11a7,7,0,0,1-.77.4.8.8,0,0,1-.16.08,7.76,7.76,0,0,1-.84.34l-.13.05a9.41,9.41,0,0,1-.91.25l-.11,0c-.32.07-.65.12-1,.16h-.09a9.46,9.46,0,0,1-1.07.06h-2.3a10,10,0,0,1-10-10,9.86,9.86,0,0,1,1.22-4.77,10,10,0,0,1,.52-10.42,10.05,10.05,0,0,1-.58-10.34,10,10,0,0,1,8.84-14.68h2.28a10,10,0,0,1,8.15,4.22v-4.23a12.42,12.42,0,0,1,6.29-10.66,12.21,12.21,0,0,0-7.43-2.53H311.5a12.3,12.3,0,0,0-12.28,12.28v.92h-6.64a14.23,14.23,0,0,0-3.83.53,12.36,12.36,0,0,1,.13,1.73v33.22a14.51,14.51,0,0,1-5.55,11.41,14.53,14.53,0,0,0,9.25,3.32h28.53a12.06,12.06,0,0,0,6.78,2.1h4.73a12.28,12.28,0,0,0,11.94-9.52,14.41,14.41,0,0,1-2.16-7.58Z"/><path class="cls-3" d="M335.61,145.63v-2.08a10.07,10.07,0,0,0-.31-2.41,8.56,8.56,0,0,1-.35,1.12A10.15,10.15,0,0,1,335.61,145.63Z"/><path class="cls-3" d="M316.46,149.85a9.83,9.83,0,0,1-.85-4,10.29,10.29,0,0,1,.35-2.62,9.82,9.82,0,0,1-1.47-2.07,10.05,10.05,0,0,0,.58,10.34A10.25,10.25,0,0,1,316.46,149.85Z"/><path class="cls-3" d="M316.46,149.85a9.94,9.94,0,0,1,4.29-2.39,10,10,0,0,1-3.26-2.89A9.93,9.93,0,0,1,316,143.2a10.29,10.29,0,0,0-.35,2.62A9.83,9.83,0,0,0,316.46,149.85Z"/><path class="cls-3" d="M329.55,147.92a10,10,0,0,1,4.32,3.55,10,10,0,0,0,1.75-5.65c0-.06,0-.13,0-.19a10.15,10.15,0,0,0-.66-3.37A10,10,0,0,1,329.55,147.92Z"/><path class="cls-3" d="M325.62,146.45h0a10,10,0,0,1,0-20h-2.28a10,10,0,0,0-8.84,14.68A9.82,9.82,0,0,0,316,143.2a9.93,9.93,0,0,0,1.53,1.37,10,10,0,0,0,3.26,2.89,9.92,9.92,0,0,1,2.58-.35h2.28a10,10,0,0,1,3.94.81,10,10,0,0,0,5.4-5.66,8.56,8.56,0,0,0,.35-1.12,10.07,10.07,0,0,0,.31-2.41v-1a.75.75,0,0,1-.07-.12A10,10,0,0,1,325.62,146.45Z"/><path class="cls-3" d="M325.61,126.45a10,10,0,0,0,0,20h0a10,10,0,0,0,9.92-8.84,12.13,12.13,0,0,1-1.78-6.35v-.59A10,10,0,0,0,325.61,126.45Z"/><path class="cls-3" d="M335.28,161.89a9.93,9.93,0,0,0,.33-2.51V157.3a10.26,10.26,0,0,1-.69,3.47A9.77,9.77,0,0,1,335.28,161.89Z"/><path class="cls-3" d="M315.61,157.11a10,10,0,0,1,10-10h-2.28a10.14,10.14,0,0,0-6.87,2.74,10.25,10.25,0,0,0-1.39,1.62,10,10,0,0,0-.52,10.42,10.05,10.05,0,0,1,1.45-2A10.06,10.06,0,0,1,315.61,157.11Z"/><path class="cls-3" d="M329.55,147.92a10,10,0,0,0-13.94,9.19,10.06,10.06,0,0,0,.39,2.76,10,10,0,0,1,1.5-1.34,10,10,0,0,1,17.42,2.24,10.26,10.26,0,0,0,.69-3.47c0-.06,0-.12,0-.19a10,10,0,0,0-6.07-9.19Z"/><path class="cls-3" d="M334.32,171.59l0,0Z"/><path class="cls-3" d="M333.82,172.38l0,0Z"/><path class="cls-3" d="M335.09,169.87l0,.09Z"/><path class="cls-3" d="M334.74,170.75s0,0,0,.05S334.74,170.77,334.74,170.75Z"/><path class="cls-3" d="M335.35,168.94c0,.06,0,.12,0,.17S335.34,169,335.35,168.94Z"/><path class="cls-3" d="M335.61,167c0,.11,0,.23,0,.34C335.6,167.22,335.6,167.1,335.61,167Z"/><path class="cls-3" d="M333.23,173.14h0l0,0Z"/><path class="cls-3" d="M335.53,168a2.34,2.34,0,0,0,0,.26A2.34,2.34,0,0,1,335.53,168Z"/><path class="cls-3" d="M331.73,174.57l-.18.13Z"/><path class="cls-3" d="M328.91,176.1l-.13.05Z"/><path class="cls-3" d="M332.52,173.89l-.13.12Z"/><path class="cls-3" d="M326.79,176.59h0Z"/><path class="cls-3" d="M327.87,176.4l-.11,0Z"/><path class="cls-3" d="M330.86,175.17l-.18.11Z"/><path class="cls-3" d="M329.91,175.68a.8.8,0,0,1-.16.08A.8.8,0,0,0,329.91,175.68Z"/><path class="cls-3" d="M325.61,154.39a10,10,0,0,0-8.11,4.14,10.29,10.29,0,0,0-2.95,3.36,9.86,9.86,0,0,0-1.22,4.77,10,10,0,0,0,10,10h2.29a10,10,0,1,1,10-10.3v-2a10.31,10.31,0,0,0-.69-3.62A10,10,0,0,0,325.61,154.39Z"/><path class="cls-3" d="M325.62,156.66a10,10,0,0,0,0,20h0a9.46,9.46,0,0,0,1.07-.06h.09c.32,0,.65-.09,1-.16l.11,0a9.41,9.41,0,0,0,.91-.25l.13-.05a7.76,7.76,0,0,0,.84-.34.8.8,0,0,0,.16-.08,7,7,0,0,0,.77-.4l.18-.11c.24-.15.47-.3.69-.47l.18-.13c.23-.18.44-.36.66-.56l.13-.12a6.78,6.78,0,0,0,.69-.73l0,0a7.61,7.61,0,0,0,.55-.72l0,0c.17-.24.33-.5.48-.76l0,0c.14-.26.28-.52.4-.79,0,0,0,0,0-.05a7.61,7.61,0,0,0,.31-.79l0-.09c.08-.25.15-.5.22-.76,0-.05,0-.11,0-.17,0-.23.1-.46.14-.7a2.34,2.34,0,0,1,0-.26l.06-.65c0-.11,0-.23,0-.34s0-.22,0-.33,0-.2,0-.3A10,10,0,0,0,325.62,156.66Z"/><path class="cls-3" d="M291.27,86.66a14.46,14.46,0,0,0,9.54,3.59h28.53a12.1,12.1,0,0,0,6.78,2.1h4.73a12.26,12.26,0,0,0,9.74-4.83,14.54,14.54,0,0,1-6.09-11.81v-34a14.54,14.54,0,0,1,5.15-11.09,12.23,12.23,0,0,0-8.8-3.74H319.73a12.29,12.29,0,0,0-12.27,12.28V40h-6.65a14.53,14.53,0,0,0-5.75,1.19V77.8A12.26,12.26,0,0,1,291.27,86.66Zm30.29-16a9.94,9.94,0,0,1,1.75-5.64,10,10,0,0,1-.58-10.33A10,10,0,0,1,331.56,40h2.28a10,10,0,0,1,10,10v2.28a10.07,10.07,0,0,1-.3,2.41,10.13,10.13,0,0,1,.3,2.41v2.27a10,10,0,0,1-1.74,5.65,9.93,9.93,0,0,1,1.74,5.64V73a9.87,9.87,0,0,1-.33,2.51,9.85,9.85,0,0,1,.33,2.5v1.83a10,10,0,0,1-10,10.44h-2.29a10,10,0,0,1-8.78-14.77A10,10,0,0,1,321.56,70.7Z"/><path class="cls-3" d="M337.79,61.51a10,10,0,0,1,4.31,3.55,10,10,0,0,0,1.74-5.65V57.14a10.13,10.13,0,0,0-.3-2.41A10,10,0,0,1,337.79,61.51Z"/><path class="cls-3" d="M329,61.05a10.16,10.16,0,0,1-3.26-2.89,10,10,0,0,1-3-3.43,10,10,0,0,0,.58,10.33A9.94,9.94,0,0,1,329,61.05Z"/><path class="cls-3" d="M325.72,58.16A10.16,10.16,0,0,0,329,61.05a10,10,0,0,1,2.58-.35h2.28a10,10,0,0,1,4,.81,10,10,0,0,0,6-9.19V50a10,10,0,0,0-10-10h-2.28a10,10,0,0,0-5.84,18.12Z"/><path class="cls-3" d="M325.74,72.12a10,10,0,0,1,17.77,3.36,9.87,9.87,0,0,0,.33-2.51V70.7a10,10,0,0,0-10-10h-2.28a10,10,0,0,0-8.78,14.78A10.17,10.17,0,0,1,325.74,72.12Z"/><path class="cls-3" d="M331.56,90.25h2.29a10,10,0,0,0,10-10.44V78a9.85,9.85,0,0,0-.33-2.5,10,10,0,0,0-17.77-3.36,10.17,10.17,0,0,0-3,3.36,10,10,0,0,0,8.78,14.77Z"/><path class="cls-3" d="M106,79.63a18.41,18.41,0,0,1,.66,9.68,14.5,14.5,0,0,0,4.63.76h6.64a17.56,17.56,0,0,1,16.6-12.87h3.32a15.47,15.47,0,0,0,.1-1.68V61.82a12,12,0,0,0,3.6.54A12.15,12.15,0,0,0,149,59.77V77.2h13.85a16.58,16.58,0,0,1,7,1.56,14.64,14.64,0,0,1-.33-3.06V54.59a14.57,14.57,0,0,1,8.89-13.4V12.28A12.14,12.14,0,0,0,166.13,0H161.3A12.14,12.14,0,0,0,149,12.28v6.14l-7.47,7.47-3.65-3.65V14.82A14.39,14.39,0,0,0,123.36.27H111.25A14.57,14.57,0,0,0,96.7,14.82V69C100,70.21,103.9,73,106,79.63Z"/><path class="cls-3" d="M344.5,41.67v34a14.61,14.61,0,0,0,14.55,14.55h12.29a14.58,14.58,0,0,0,14.38-12.32c.21,0,.43,0,.64-.09a12.28,12.28,0,0,0,5.15,9.92,14.58,14.58,0,0,1,6.12-1.36h12.29a14.52,14.52,0,0,1-4.72-10.7V41.22a14.53,14.53,0,0,1,5.68-11.51,12.15,12.15,0,0,0-7.51-2.59h-4.73A12.15,12.15,0,0,0,386.36,39.4v.33l-.54.55a14.57,14.57,0,0,0-14.48-13.16H359.05A14.58,14.58,0,0,0,344.5,41.67Z"/><path class="cls-3" d="M405.2,41.22V75.71a14.52,14.52,0,0,0,4.72,10.7h22.2a71.82,71.82,0,0,0-8.21-9.47,10,10,0,0,1,9.91-16.74,86.79,86.79,0,0,1,12.76,5.09V41.22a14.55,14.55,0,0,0-5.91-11.71V21.38A12.3,12.3,0,0,0,428.39,9.1h-4.82a12.45,12.45,0,0,0-12.28,12.28v8c-.14.1-.27.22-.41.33A14.53,14.53,0,0,0,405.2,41.22Z"/><path class="cls-3" d="M288.88,161.93V128.71a12.48,12.48,0,0,0-2.32-7.18,14.51,14.51,0,0,0,2.59-8.29V101a14.53,14.53,0,0,0-5-11,11.94,11.94,0,0,1-1.35.08h-4.73a12.25,12.25,0,0,1-8.66-3.66h-4.55A14.46,14.46,0,0,1,255,90.25H242.75a14.5,14.5,0,0,1-8.75-3,12.22,12.22,0,0,1-9.9,5h-.79a14.45,14.45,0,0,0-2.72,6.77,18.69,18.69,0,0,1,6.38,14v44.66a18.58,18.58,0,0,1-4.42,12,14.54,14.54,0,0,0,12.19,6.64h39.59a14.59,14.59,0,0,0,14.55-14.55Z"/><path class="cls-3" d="M383.31,164.69a10.12,10.12,0,0,1-.23-2.12v-48.4h-.89a14.57,14.57,0,0,0-12.95-7.91H357a14.57,14.57,0,0,0-13,8.11,12.11,12.11,0,0,0-3.86,1.42,12.42,12.42,0,0,0-6.29,10.66v4.82a12.13,12.13,0,0,0,1.78,6.35.75.75,0,0,0,.07.12A12.32,12.32,0,0,0,342.4,143v18.67A14.62,14.62,0,0,0,357,176.21h25.93a12.35,12.35,0,0,0,6.93-2.09A15.06,15.06,0,0,1,383.31,164.69Z"/><path class="cls-3" d="M438.76,171.74a10,10,0,0,1-.44-9.73c.24-.48.48-1,.71-1.47a72.85,72.85,0,0,0-6.91-74.13H397.63A14.58,14.58,0,0,0,383.08,101v61.61a10.12,10.12,0,0,0,.23,2.12,15.06,15.06,0,0,0,6.51,9.43,14.23,14.23,0,0,0,7.81,2.36h34.58a14.35,14.35,0,0,0,8.27-2.66A10.19,10.19,0,0,1,438.76,171.74ZM417.39,138.1h-5V124.79h5Z"/><path class="cls-3" d="M195.27,141.58a1.25,1.25,0,1,0,1.25,1.24A1.26,1.26,0,0,0,195.27,141.58Z"/><path class="cls-3" d="M227,113.15a18.75,18.75,0,0,0-10.82-16.93A13.83,13.83,0,0,0,205,90.62H193a13.81,13.81,0,0,0-9.4,3.68c-1-.09-2.13-.2-3.26-.34l-.82-3.54c-.08-.35-.18-.68-.28-1a14.62,14.62,0,0,1-9.39-10.65,16.58,16.58,0,0,0-7-1.56H134.49a17.56,17.56,0,0,0-16.6,12.87l-.06.22-1,4.28-4.07,1.34a21.16,21.16,0,0,0-7.81,4.73,14.94,14.94,0,0,1,1.45,6.39,27.47,27.47,0,0,0,2.52,6.66,10.24,10.24,0,0,1,.75,1.88c.66,2.31,2.49,10.36-1.69,16.59a13.67,13.67,0,0,1-1.25,1.57,20.24,20.24,0,0,1,8.8,3.14l.1.07a15.57,15.57,0,0,1,6,7,17.53,17.53,0,0,1,2,10.19L123.5,156c-.51,9.12-1,15.7-1.51,20.52h86.3A18.72,18.72,0,0,0,227,157.81Zm-31.7,30.92a1.25,1.25,0,1,1,1.25-1.25A1.26,1.26,0,0,1,195.27,144.07Zm-31.69,2H128V131.33h35.54Z"/><path class="cls-3" d="M217.09,40a10,10,0,0,1,10,10v9.37a10,10,0,0,1-1.74,5.65,9.93,9.93,0,0,1,1.74,5.64v9.11a10,10,0,0,1-10,10.44h-4.49a12.09,12.09,0,0,0,6.76,2.1h4.73a12.22,12.22,0,0,0,9.9-5,14.54,14.54,0,0,1-5.8-11.6v-34a14.51,14.51,0,0,1,4.91-10.86,12.26,12.26,0,0,0-9-4H203a12.29,12.29,0,0,0-12.27,12.28V40h26.38Z"/><path class="cls-3" d="M169.51,54.59V75.7a14.56,14.56,0,0,0,9.72,13.71,14.29,14.29,0,0,0,4.83.84h30.75A10,10,0,0,1,206,75.48a10,10,0,0,1,.53-10.42A10,10,0,0,1,206,54.73,10,10,0,0,1,214.81,40H184.06a14.56,14.56,0,0,0-14.55,14.55Z"/><path class="cls-3" d="M227.09,78V73a9.87,9.87,0,0,1-.33,2.51A9.85,9.85,0,0,1,227.09,78Z"/><path class="cls-3" d="M227.09,57.14V52.32a10.07,10.07,0,0,1-.3,2.41A10.13,10.13,0,0,1,227.09,57.14Z"/><path class="cls-3" d="M221,61.51a10,10,0,0,1,4.31,3.55,10,10,0,0,0,1.74-5.65V57.14a10.13,10.13,0,0,0-.3-2.41A10,10,0,0,1,221,61.51Z"/><path class="cls-3" d="M212.23,61.05A10.16,10.16,0,0,1,209,58.16a10,10,0,0,1-3-3.43,10,10,0,0,0,.58,10.33A9.94,9.94,0,0,1,212.23,61.05Z"/><path class="cls-3" d="M209,58.16a10.16,10.16,0,0,0,3.26,2.89,10,10,0,0,1,2.58-.35h2.28a10,10,0,0,1,3.95.81,10,10,0,0,0,6.05-9.19V50a10,10,0,0,0-10-10h-2.28A10,10,0,0,0,209,58.16Z"/><path class="cls-3" d="M209,72.12a10,10,0,0,1,17.77,3.36,9.87,9.87,0,0,0,.33-2.51V70.7a10,10,0,0,0-10-10h-2.28A10,10,0,0,0,206,75.48,10.17,10.17,0,0,1,209,72.12Z"/><path class="cls-3" d="M224.72,86.73a9.92,9.92,0,0,0,2.37-6.92V78a9.85,9.85,0,0,0-.33-2.5A10,10,0,0,0,209,72.12a10.17,10.17,0,0,0-3,3.36,10,10,0,0,0,8.78,14.77h2.29A10,10,0,0,0,224.72,86.73Z"/><path class="cls-3" d="M228.2,41.67v34a14.6,14.6,0,0,0,14.55,14.55H255a14.46,14.46,0,0,0,9.82-3.84,15,15,0,0,0,2.42-2.86,11.92,11.92,0,0,1-1.49-5.75V56.4h-6.2a10,10,0,0,1-10-10v-.91A10,10,0,0,1,255,27.12H242.75A14.62,14.62,0,0,0,228.2,41.67Z"/><path class="cls-3" d="M271.86,37.12a9.88,9.88,0,0,1-1.14,4.63,10,10,0,0,1-8.86,14.65h3.92V77.8a11.92,11.92,0,0,0,1.49,5.75,12.68,12.68,0,0,0,2.13,2.86,12.25,12.25,0,0,0,8.66,3.66h4.73a11.94,11.94,0,0,0,1.35-.08A12.28,12.28,0,0,0,295.06,77.8V39.39a12.14,12.14,0,0,0-12.27-12.27H261.86A10,10,0,0,1,271.86,37.12Z"/><path class="cls-3" d="M245,37.12a10,10,0,0,0,4.55,8.37V44.13a10,10,0,0,1,18.11-5.86,10.15,10.15,0,0,1,3,3.48,9.88,9.88,0,0,0,1.14-4.63,10,10,0,0,0-10-10H255A10,10,0,0,0,245,37.12Z"/><path class="cls-3" d="M271.86,46.4a10,10,0,0,0-1.14-4.65,10.15,10.15,0,0,0-3-3.48,10,10,0,0,0-18.11,5.86V46.4a10,10,0,0,0,10,10h2.28A10,10,0,0,0,271.86,46.4Z"/><path class="cls-3" d="M461.15,171.86a10,10,0,0,1-.45-9.72l.36-.75a37.69,37.69,0,0,0-7.8-43.27,10,10,0,0,1,9.91-16.74,54,54,0,0,1,11.65,5.16,10,10,0,0,1,7.71-3.62,10,10,0,0,1,6.31,2.24,51,51,0,0,1,16.46,23.48,66.51,66.51,0,0,0-1.56-20.41C499.92,92.1,490.05,76.91,476,65.44a10,10,0,0,0-16.32,7.82,81.47,81.47,0,0,0-13.06-8,86.79,86.79,0,0,0-12.76-5.09,10,10,0,0,0-9.91,16.74,71.82,71.82,0,0,1,8.21,9.47A72.85,72.85,0,0,1,439,160.54c-.23.49-.47,1-.71,1.47a10,10,0,0,0,.44,9.73,10.19,10.19,0,0,0,1.72,2.08,10,10,0,0,0,6.79,2.66h21A10,10,0,0,1,461.15,171.86Z"/><path class="cls-3" d="M506.27,132.1c-.27-1.17-.6-2.32-1-3.46A60.46,60.46,0,0,1,494,159.71a53.92,53.92,0,0,1-14.49,13.48c-1.2.76-2.44,1.48-3.67,2.13a10,10,0,0,1-4.68,1.16h-2.95a9.6,9.6,0,0,0,1.42.11h13.76a10.11,10.11,0,0,0,4.69-1.16c.8-.43,1.6-.9,2.39-1.39a35.39,35.39,0,0,0,9.48-8.82C506.68,156.13,509,143.75,506.27,132.1Z"/><path class="cls-3" d="M475.86,175.32c1.23-.65,2.47-1.37,3.67-2.13A53.92,53.92,0,0,0,494,159.71a60.46,60.46,0,0,0,11.28-31.07,51,51,0,0,0-16.46-23.48,10,10,0,0,0-12.37-.2,9.9,9.9,0,0,0-1.65,1.58,54,54,0,0,0-11.65-5.16,10,10,0,0,0-9.91,16.74,37.69,37.69,0,0,1,7.8,43.27l-.36.75a10,10,0,0,0,7.53,14.34h2.95A10,10,0,0,0,475.86,175.32Z"/><path class="cls-3" d="M475.86,175.32c1.23-.65,2.47-1.37,3.67-2.13A53.92,53.92,0,0,0,494,159.71a60.46,60.46,0,0,0,11.28-31.07,51,51,0,0,0-16.46-23.48,10,10,0,0,0-12.37-.2,9.9,9.9,0,0,0-1.65,1.58,54,54,0,0,0-11.65-5.16,10,10,0,0,0-9.91,16.74,37.69,37.69,0,0,1,7.8,43.27l-.36.75a10,10,0,0,0,7.53,14.34h2.95A10,10,0,0,0,475.86,175.32Z"/><path class="cls-3" d="M89.54,75.69a10.55,10.55,0,0,1,1.07.39,12.59,12.59,0,0,1,1.73.22,12.72,12.72,0,0,1,8.77,6.5c1.17,2.21,2.59,6.61.86,13.44l.21.24a12.47,12.47,0,0,0,2.94-3.36,13.45,13.45,0,0,0,1.5-3.81,18.41,18.41,0,0,0-.66-9.68C103.9,73,100,70.21,96.7,69a13.87,13.87,0,0,0-4.57-.82,13.11,13.11,0,0,0-4.06.64,10.88,10.88,0,0,0-.95-.85L85,66.3a9.67,9.67,0,0,0-2.83-1.55c.07.29.13.59.19.89A11,11,0,0,1,89.54,75.69Z"/><path class="cls-3" d="M115.49,216.06a42.69,42.69,0,0,0-6.39,3.73,9.78,9.78,0,0,1-2.21,1.18,25.41,25.41,0,0,1-8.31,1.66c-6.73,0-11.88-4.39-12.51-10.67a67,67,0,0,1,.58-11.32,11.72,11.72,0,0,1-.68-4.21l-4.15,0c.81,8-.89,11.09-1.59,12.37a17.9,17.9,0,0,1-1,1.68,20,20,0,0,1-10.29,9.39c-.26,2-.58,3.73-1,5.32q3.94,0,8,0h1.72c18.27,0,35.48-.52,48.45-1.38,6.5-.44,11.67-.95,15.36-1.52s13.79-2.14,13.78-11.62-10.27-11-13.63-11.54c-3.6-.56-8.64-1-15-1.46l-2.16-.14h0C125.63,204.19,123.31,212.45,115.49,216.06Z"/><path class="cls-3" d="M30.86,218H28.22a9.9,9.9,0,0,1-4.38,1H19.36a10,10,0,0,1-4.68-1.16c-.42-.22-.83-.46-1.24-.72a18.4,18.4,0,0,1-4.89-4.54,19.62,19.62,0,0,1-3.7-10.49A9.72,9.72,0,0,0,0,210.93c0,9.44,10.26,11,13.63,11.55,3.6.55,8.64,1,15,1.45,2.25.15,4.64.28,7.14.41a61.74,61.74,0,0,1-1.64-6.87A9.82,9.82,0,0,1,30.86,218Z"/><path class="cls-3" d="M86.11,75.15a11.3,11.3,0,0,1,2.77.34c.23.05.44.13.66.2a11,11,0,0,0-7.22-10,19,19,0,0,1,.27,2.81,23,23,0,0,1,2.19,6.78A11.73,11.73,0,0,1,86.11,75.15Z"/><path class="cls-3" d="M86.11,75.15a11.73,11.73,0,0,0-1.33.08c.09.56.16,1.13.2,1.7A12.84,12.84,0,0,1,89.74,76c.29,0,.58,0,.87,0a10.55,10.55,0,0,0-1.07-.39c-.22-.07-.43-.15-.66-.2A11.3,11.3,0,0,0,86.11,75.15Z"/><path class="cls-3" d="M101.11,82.8a12.72,12.72,0,0,0-8.77-6.5,12.59,12.59,0,0,0-1.73-.22c-.29,0-.58,0-.87,0a12.84,12.84,0,0,0-4.76.89c.06.64.09,1.29.09,1.94a23.09,23.09,0,0,1-1.66,8.62l9,2.18a9.63,9.63,0,0,1,2.31.87,27.06,27.06,0,0,1,7.26,5.7C103.7,89.41,102.28,85,101.11,82.8Z"/><path class="cls-3" d="M85.07,78.87c0-.65,0-1.3-.09-1.94s-.11-1.14-.2-1.7a23,23,0,0,0-2.19-6.78,17.72,17.72,0,0,1-3.77,11.22l-.16.2c0,.22-.07.44-.11.66a13.81,13.81,0,0,1-2.25,5.22l7.11,1.74A23.09,23.09,0,0,0,85.07,78.87Z"/><path class="cls-3" d="M118.8,202.65a11.41,11.41,0,0,1-8.41,5.59,17.42,17.42,0,0,1-2.42.16c-3.58,0-12.6-1.06-15.11-1.9a10,10,0,0,1-6.21-5.86A67,67,0,0,0,86.07,212c.63,6.28,5.78,10.67,12.51,10.67a25.41,25.41,0,0,0,8.31-1.66,9.78,9.78,0,0,0,2.21-1.18,42.69,42.69,0,0,1,6.39-3.73c7.82-3.61,10.14-11.87,9-18.51h0a12.44,12.44,0,0,0-5.24-8.13A11.75,11.75,0,0,0,119,191C120,193.39,121.45,198,118.8,202.65Z"/><path class="cls-3" d="M35.79,186.36a10,10,0,0,1,3.3,1.71A21.06,21.06,0,0,1,40.57,185a18,18,0,0,1,3.78-4.51,25.71,25.71,0,0,1-2.71-.52c-5.8-1.43-8.16-5-9.11-7.92.1,3.72,1.09,8.08,2.62,13.28.12.18.26.35.37.54S35.71,186.19,35.79,186.36Z"/><path class="cls-3" d="M123.61,154.1a17.53,17.53,0,0,0-2-10.19,15.57,15.57,0,0,0-6-7l-.1-.07a20.24,20.24,0,0,0-8.8-3.14,13.9,13.9,0,0,1-8.89,4.49,15.2,15.2,0,0,1-1.65.09h0a13.13,13.13,0,0,1-1.4-.07,33.29,33.29,0,0,0,2.51,8.29l.93.69c2.22,1.62,6.35,4.64,7,10.41.67,6.12-3.32,10.64-4.63,12.13-7.42,8.41-18.24,12.67-32.16,12.67l-1.21,0a17.49,17.49,0,0,1,4.55,14.7c-.83,5.85-1.84,12-2.19,14.08a86.14,86.14,0,0,1-.64,8.67,20,20,0,0,0,10.29-9.39,17.9,17.9,0,0,0,1-1.68c.7-1.28,2.4-4.42,1.59-12.37,0-.4-.08-.8-.13-1.22,1.47-.19,2.94-.35,4.39-.48-.07.6-.1,1.17-.11,1.72a11.72,11.72,0,0,0,.68,4.21,10,10,0,0,0,6.21,5.86c2.51.84,11.53,1.89,15.11,1.9a17.42,17.42,0,0,0,2.42-.16,11.41,11.41,0,0,0,8.41-5.59c2.65-4.66,1.16-9.26.2-11.68a11.75,11.75,0,0,1,.22-1.56,11.52,11.52,0,0,1,.65-2.16c.86-2.07,1.52-5.28,2.12-10.77.53-4.82,1-11.4,1.51-20.52Z"/><path class="cls-3" d="M69.53,211.18c.35-2.06,1.36-8.23,2.19-14.08a17.49,17.49,0,0,0-4.55-14.7c-2,0-4.12-.13-6.28-.33-2.94-.28-5.45-.5-7.59-.69-4.11-.36-6.84-.61-8.95-.91A18,18,0,0,0,40.57,185a21.06,21.06,0,0,0-1.48,3.09,10.1,10.1,0,0,1,2.43,2.76,10,10,0,0,1-1.65,12.27.38.38,0,0,0-.08.44,10,10,0,0,1-5.69,13.93,61.74,61.74,0,0,0,1.64,6.87c.71,2.4,1.63,5.11,2.82,8.17a9.1,9.1,0,0,0,.37.85,14,14,0,0,0,12.69,7.23,20,20,0,0,0,5.14-.71c2.33-.62,8.28-2.21,11.18-14.71.37-1.59.69-3.35,1-5.32A86.14,86.14,0,0,0,69.53,211.18Z"/><path class="cls-3" d="M41.64,180a25.71,25.71,0,0,0,2.71.52c2.11.3,4.84.55,8.95.91,2.14.19,4.65.41,7.59.69,2.16.2,4.25.3,6.28.33l1.21,0c13.92,0,24.74-4.26,32.16-12.67,1.31-1.49,5.3-6,4.63-12.13-.63-5.77-4.76-8.79-7-10.41l-.93-.69a33.29,33.29,0,0,1-2.51-8.29,13.13,13.13,0,0,0,1.4.07h0a15.2,15.2,0,0,0,1.65-.09,13.9,13.9,0,0,0,8.89-4.49,13.67,13.67,0,0,0,1.25-1.57c4.18-6.23,2.35-14.28,1.69-16.59a10.24,10.24,0,0,0-.75-1.88,27.47,27.47,0,0,1-2.52-6.66,14.94,14.94,0,0,0-1.45-6.39,18.71,18.71,0,0,0-2.73-4.16l-.21-.24a27.06,27.06,0,0,0-7.26-5.7,9.63,9.63,0,0,0-2.31-.87l-9-2.18L76.3,85.75a12.47,12.47,0,0,1-3.25,3.19,16.11,16.11,0,0,1-.87,3.61,9.54,9.54,0,0,1-.88,1.82,14.22,14.22,0,0,1-7.09,5.86A27.26,27.26,0,0,1,53.65,102c-.82,0-1.63,0-2.44,0a11.66,11.66,0,0,1-3.79-.65,10,10,0,0,1-1.22-.53,11.5,11.5,0,0,1-3.33-2.55,31.81,31.81,0,0,1-3.09-4c-.86-1.3-1.54-2.54-2.13-3.63-.2-.36-.39-.71-.58-1l-.27.28a15.1,15.1,0,0,0-4.89,5.66,23.82,23.82,0,0,0-1.81,17.7c2.29,8.13,3,10.82,3.15,11.62a16.56,16.56,0,0,0,3.28,7.77c-.33,5.62-2.33,18.77-3.25,24.83-1.15,7.59-1.38,9.2-1.38,10.61a13.14,13.14,0,0,0,.63,3.91C33.48,175,35.84,178.52,41.64,180Z"/><path class="cls-3" d="M39.78,94.32a31.81,31.81,0,0,0,3.09,4,11.5,11.5,0,0,0,3.33,2.55,10,10,0,0,0,1.22.53,11.66,11.66,0,0,0,3.79.65c.81,0,1.62,0,2.44,0a27.26,27.26,0,0,0,10.56-1.81,14.22,14.22,0,0,0,7.09-5.86,9.54,9.54,0,0,0,.88-1.82,16.11,16.11,0,0,0,.87-3.61,12.47,12.47,0,0,0,3.25-3.19,13.81,13.81,0,0,0,2.25-5.22c0-.22.08-.44.11-.66l.16-.2a17.72,17.72,0,0,0,3.77-11.22,19,19,0,0,0-.27-2.81c-.06-.3-.12-.6-.19-.89S82,64.26,82,64s-.07-.24-.11-.36C80.13,58.29,75.05,52.2,68,51.49a12.44,12.44,0,0,0-1.37-.07,15.82,15.82,0,0,0-5.07.91c-.29,0-.65-.1-.94-.16a27,27,0,0,0-4.91-.52l-.53,0a24.46,24.46,0,0,0-10.32,3,25,25,0,0,0-6.6,4.72A16.71,16.71,0,0,0,33.34,70.7a2.71,2.71,0,0,0,0,.29,14.11,14.11,0,0,0-.95,10.9c.12.37.26.72.41,1.07a21.65,21.65,0,0,0,3.44,5.32,15.64,15.64,0,0,1,.84,1.37c.19.33.38.68.58,1C38.24,91.78,38.92,93,39.78,94.32Z"/><path class="cls-3" d="M13.44,217.19c.41.26.82.5,1.24.72a10,10,0,0,0,4.68,1.16h4.48a9.9,9.9,0,0,0,4.38-1h-.36a10.06,10.06,0,0,1-4.71-1.18q-.52-.29-1-.6A15.26,15.26,0,0,1,18,212.4a16.5,16.5,0,0,1-2.71-13.67,18.82,18.82,0,0,1,6.47-10.14,10,10,0,0,1,6.32-2.24,10.25,10.25,0,0,1,1.56.12l.34-.11a9.87,9.87,0,0,1,5.83,0q-.12-.26-.27-.51c-.11-.19-.25-.36-.37-.54A9.94,9.94,0,0,0,24,181.39c-.55.17-1.09.36-1.63.56a10.07,10.07,0,0,0-9,1.88,23.1,23.1,0,0,0-8,12.45,20.14,20.14,0,0,0-.5,5.88,19.62,19.62,0,0,0,3.7,10.49A18.4,18.4,0,0,0,13.44,217.19Z"/><path class="cls-3" d="M32.91,185.92a10,10,0,0,0-2.95.44l-.34.11a10.25,10.25,0,0,0-1.56-.12,10,10,0,0,0-6.32,2.24,18.82,18.82,0,0,0-6.47,10.14A16.5,16.5,0,0,0,18,212.4a15.26,15.26,0,0,0,4.15,3.86q.5.31,1,.6A10.06,10.06,0,0,0,27.86,218h3a9.82,9.82,0,0,0,3.24-.57,10,10,0,0,0,5.69-13.93.38.38,0,0,1,.08-.44,10,10,0,0,0,1.65-12.27,10.1,10.1,0,0,0-2.43-2.76,10.2,10.2,0,0,0-6.18-2.15Z"/><path class="cls-4" d="M332.62,123.25H311.5a2.31,2.31,0,0,0-2.27,2.28v4.82a2.15,2.15,0,0,0,2.27,2.28h14.11v33.85a1.09,1.09,0,0,0,0,.18,2.47,2.47,0,0,0,2.27,2.1h4.73a2.31,2.31,0,0,0,2.27-2.28V125.53A2.31,2.31,0,0,0,332.62,123.25Zm-9.29,22.57a2.15,2.15,0,0,0,2.28-2.27v-4.82a2.31,2.31,0,0,0-2.28-2.28H292.58A4.62,4.62,0,0,0,288,141v21.11a4.56,4.56,0,0,0,4.55,4.55h30.75a2.25,2.25,0,0,0,2.28-2.27v-5a2.31,2.31,0,0,0-2.28-2.27H309.41V145.82Z"/><path class="cls-4" d="M325.61,143.55v2.27h-2.28A2.15,2.15,0,0,0,325.61,143.55Z"/><line class="cls-4" x1="325.63" y1="145.82" x2="325.61" y2="145.82"/><path class="cls-4" d="M325.61,136.45v2.28a2.31,2.31,0,0,0-2.28-2.28Z"/><line class="cls-4" x1="325.62" y1="136.45" x2="325.61" y2="136.45"/><path class="cls-4" d="M325.61,157.11v2.27a2.31,2.31,0,0,0-2.28-2.27Z"/><line class="cls-4" x1="325.63" y1="157.11" x2="325.61" y2="157.11"/><path class="cls-4" d="M325.62,166.66h-2.29a2.25,2.25,0,0,0,2.28-2.27v2.09A1.09,1.09,0,0,0,325.62,166.66Z"/><line class="cls-4" x1="325.63" y1="166.66" x2="325.62" y2="166.66"/><path class="cls-5" d="M340.85,36.84H319.73a2.31,2.31,0,0,0-2.27,2.28v4.82a2.15,2.15,0,0,0,2.27,2.28h14.11V80.07a1.09,1.09,0,0,0,0,.18,2.47,2.47,0,0,0,2.27,2.1h4.73a2.31,2.31,0,0,0,2.27-2.28V39.12A2.31,2.31,0,0,0,340.85,36.84Zm-9.29,22.57a2.15,2.15,0,0,0,2.28-2.27V52.32A2.31,2.31,0,0,0,331.56,50H300.81a4.62,4.62,0,0,0-4.55,4.55V75.7a4.56,4.56,0,0,0,4.55,4.55h30.75A2.25,2.25,0,0,0,333.84,78V73a2.31,2.31,0,0,0-2.28-2.27H317.64V59.41Z"/><path class="cls-5" d="M333.84,57.14v2.27h-2.28A2.15,2.15,0,0,0,333.84,57.14Z"/><path class="cls-5" d="M333.84,50v2.28A2.31,2.31,0,0,0,331.56,50Z"/><path class="cls-5" d="M333.84,70.7V73a2.31,2.31,0,0,0-2.28-2.27Z"/><path class="cls-5" d="M333.85,80.25h-2.29A2.25,2.25,0,0,0,333.84,78v2.09A1.09,1.09,0,0,0,333.85,80.25Z"/><path class="cls-5" d="M168.4,12.28V77.8a2.3,2.3,0,0,1-2.27,2.27H161.3A2.3,2.3,0,0,1,159,77.8V35.94L143.1,51.68a2.19,2.19,0,0,1-3.18,0l-12-11.83V75.52a4.45,4.45,0,0,1-4.55,4.55H111.25a4.63,4.63,0,0,1-4.55-4.55V14.82a4.57,4.57,0,0,1,4.55-4.55h12.11a4.4,4.4,0,0,1,4.55,4.55V26.38L141.56,40,159,22.56V12.28A2.15,2.15,0,0,1,161.3,10h4.83A2.15,2.15,0,0,1,168.4,12.28Z"/><path class="cls-4" d="M405.65,39.39V77.8a2.44,2.44,0,0,1-2.28,2.27h-4.73a2.31,2.31,0,0,1-2.28-2.27V57.14L386.08,67.33a2.49,2.49,0,0,1-2.73.46.59.59,0,0,1-.45-.46l-7-7V75.71a4.57,4.57,0,0,1-4.55,4.55H359.05a4.52,4.52,0,0,1-4.55-4.55v-34a4.51,4.51,0,0,1,4.55-4.55h12.29a4.56,4.56,0,0,1,4.55,4.55v5.46l8.64,8.65,11.56-11.65.27-.19V39.39a2.15,2.15,0,0,1,2.28-2.27h4.73A2.25,2.25,0,0,1,405.65,39.39Z"/><path class="cls-5" d="M436.58,41.22V75.71A4.57,4.57,0,0,1,432,80.26H419.75a4.51,4.51,0,0,1-4.55-4.55V41.22a4.51,4.51,0,0,1,4.55-4.56H432A4.57,4.57,0,0,1,436.58,41.22Zm-15.29-9.56V21.38a2.53,2.53,0,0,1,2.28-2.28h4.82a2.31,2.31,0,0,1,2.28,2.28V31.66a2.15,2.15,0,0,1-2.28,2.27h-4.82A2.31,2.31,0,0,1,421.29,31.66Z"/><path class="cls-5" d="M239.75,117.79v8.65H276.6a2.31,2.31,0,0,1,2.28,2.27v33.22a4.56,4.56,0,0,1-4.55,4.55H234.74a4.63,4.63,0,0,1-4.55-4.55V149.65a4.63,4.63,0,0,1,4.55-4.55H269.6v-9.29H232.74a2.15,2.15,0,0,1-2.27-2.27V101A4.56,4.56,0,0,1,235,96.41H274.6a4.62,4.62,0,0,1,4.55,4.55v12.28a4.56,4.56,0,0,1-4.55,4.55Z"/><path class="cls-5" d="M373.79,133.54v23.39h9.1a2.15,2.15,0,0,1,2.28,2.27v4.73a2.15,2.15,0,0,1-2.28,2.28H357a4.51,4.51,0,0,1-4.55-4.55V133.54H346a2.25,2.25,0,0,1-2.27-2.28v-4.82a2.45,2.45,0,0,1,2.27-2.28h6.37V120.8a4.51,4.51,0,0,1,4.55-4.55h12.29a4.56,4.56,0,0,1,4.55,4.55v3.36h9.1a2.32,2.32,0,0,1,2.28,2.28v4.82a2.15,2.15,0,0,1-2.28,2.28Z"/><path class="cls-5" d="M436.76,101v61.61a4.84,4.84,0,0,1-4.55,3.91H397.63a4.85,4.85,0,0,1-4.55-3.91V101a4.5,4.5,0,0,1,4.55-4.55h34.58A4.56,4.56,0,0,1,436.76,101Zm-34.4,47.14h25V114.79h-25Z"/><path class="cls-4" d="M195.27,135.21a7.62,7.62,0,1,0,7.62,7.61A7.62,7.62,0,0,0,195.27,135.21Z"/><path class="cls-4" d="M208.89,104.5v0a3.87,3.87,0,0,0-3.86-3.86H193a3.87,3.87,0,0,0-3.86,3.85h-1.87a71,71,0,0,1-8.44-.62,9.63,9.63,0,0,1-8.17-7.38l-.88-3.8a7.42,7.42,0,0,0-6.89-5.47H134.49a7.5,7.5,0,0,0-6.94,5.46l-1.09,4.47A9.64,9.64,0,0,1,120.1,104l-4.26,1.4a12.79,12.79,0,0,0-8.24,11.38v41a8.68,8.68,0,0,0,8.68,8.67h92a8.68,8.68,0,0,0,8.68-8.67V113.15A8.68,8.68,0,0,0,208.89,104.5ZM138.11,97A1.92,1.92,0,0,1,140,95.05h16.89A1.92,1.92,0,0,1,158.82,97v8.62a1.92,1.92,0,0,1-1.91,1.91H140a1.92,1.92,0,0,1-1.91-1.91Zm35.47,57.17a1.92,1.92,0,0,1-1.91,1.91H120a1.92,1.92,0,0,1-1.91-1.91V123.24a1.92,1.92,0,0,1,1.91-1.91h51.72a1.92,1.92,0,0,1,1.91,1.91Zm21.69-.06a11.25,11.25,0,1,1,11.25-11.25A11.26,11.26,0,0,1,195.27,154.07Z"/><path class="cls-5" d="M224.1,36.84H203a2.31,2.31,0,0,0-2.27,2.28v4.82A2.15,2.15,0,0,0,203,46.22h14.11V80.07a1.09,1.09,0,0,0,0,.18,2.47,2.47,0,0,0,2.27,2.1h4.73a2.31,2.31,0,0,0,2.27-2.28V39.12A2.31,2.31,0,0,0,224.1,36.84Z"/><path class="cls-5" d="M214.81,59.41a2.15,2.15,0,0,0,2.28-2.27V52.32A2.31,2.31,0,0,0,214.81,50H184.06a4.62,4.62,0,0,0-4.55,4.55V75.7a4.56,4.56,0,0,0,4.55,4.55h30.75A2.25,2.25,0,0,0,217.09,78V73a2.31,2.31,0,0,0-2.28-2.27H200.89V59.41Z"/><path class="cls-5" d="M217.09,57.14v2.27h-2.28A2.15,2.15,0,0,0,217.09,57.14Z"/><path class="cls-5" d="M217.09,50v2.28A2.31,2.31,0,0,0,214.81,50Z"/><path class="cls-5" d="M217.09,70.7V73a2.31,2.31,0,0,0-2.28-2.27Z"/><path class="cls-5" d="M217.1,80.25h-2.29A2.25,2.25,0,0,0,217.09,78v2.09A1.09,1.09,0,0,0,217.1,80.25Z"/><path class="cls-5" d="M255,37.12H242.75a4.5,4.5,0,0,0-4.55,4.55v34a4.5,4.5,0,0,0,4.55,4.55H255a4.56,4.56,0,0,0,4.55-4.55v-34A4.56,4.56,0,0,0,255,37.12Z"/><path class="cls-5" d="M282.79,37.12H261.86a2.15,2.15,0,0,0-2.28,2.27v4.74a2.25,2.25,0,0,0,2.28,2.27h13.92V77.8a2.44,2.44,0,0,0,2.28,2.27h4.73a2.3,2.3,0,0,0,2.27-2.27V39.39A2.15,2.15,0,0,0,282.79,37.12Z"/><path class="cls-5" d="M261.86,37.12a2.15,2.15,0,0,0-2.28,2.27v2.28A4.56,4.56,0,0,0,255,37.12Z"/><path class="cls-5" d="M261.86,46.4h-2.28V44.13A2.25,2.25,0,0,0,261.86,46.4Z"/><path class="cls-6" d="M486,153.77a44.09,44.09,0,0,1-11.81,11c-1,.62-2,1.2-3,1.74H447.27c.28-.57.56-1.15.83-1.74a82.83,82.83,0,0,0-17.23-95c14.45,4.46,27.81,13.17,36.55,25.51a55.92,55.92,0,0,1,8.89,20,83.68,83.68,0,0,0-6.66-42c11.73,9.55,20.87,22.62,24.35,37.34S495,141.6,486,153.77Z"/><path class="cls-7" d="M491.92,159.28a25.36,25.36,0,0,1-6.79,6.31c-.56.36-1.13.69-1.72,1H469.65c.17-.33.33-.66.48-1a47.65,47.65,0,0,0-9.92-54.65c8.32,2.57,16,7.57,21,14.68a32.22,32.22,0,0,1,5.11,11.49,48.15,48.15,0,0,0-3.83-24.19c6.75,5.49,12,13,14,21.48S497.09,152.27,491.92,159.28Z"/><path class="cls-8" d="M96.42,82.62C94.6,76.79,91,78.42,91,78.42L85.62,80l-1.68-1.63-2.75.58-1.62-1.61,1.11-.45.25-1-2.16-1.7-6.16,1.26-.46,1.81.34.33-1.94,7.75L82.79,97.17l1,.26,2.81-.79,1.4-5.6,7.21-2S98.24,88.44,96.42,82.62Z"/><ellipse class="cls-6" cx="77.61" cy="210.81" rx="67.61" ry="4.39" transform="translate(-0.34 0.12) rotate(-0.09)"/><polygon class="cls-5" points="80.56 85.48 78.98 91.8 71.69 84.9 73.52 78.5 80.56 85.48"/><ellipse class="cls-5" cx="78.56" cy="75.65" rx="0.69" ry="1.01" transform="translate(-13.9 133.48) rotate(-75.94)"/><ellipse class="cls-5" cx="86.29" cy="85.86" rx="0.69" ry="1.01" transform="translate(-17.95 148.71) rotate(-75.94)"/><path class="cls-9" d="M92.71,103,91.05,97.4s4.31-10.3-.67-11.29-5.31,9.63-5.31,9.63l2,6.3Z"/><circle class="cls-9" cx="61.88" cy="78.87" r="13.19"/><path class="cls-9" d="M66.15,88.19s.77,9.69,2.71,10.47-17.34,6.21-17.34,6.21l5.82-6.6S54.9,88.19,52.18,85.86Z"/><path class="cls-10" d="M108.31,197.35s5.65-1.66,6.31,2c0,0,1,5.64-3.32,7.64a53.76,53.76,0,0,0-8,4.64s-7,2.66-7.3-.66,1.32-15.27,1.32-15.27Z"/><path class="cls-10" d="M112.57,148.56a5.26,5.26,0,0,0-2.52-3.3,10.39,10.39,0,0,0-11.61.21l-10.72,7.38s-39.84,14.61-43.5,15.27-1,10,3,22.25a52.48,52.48,0,0,0,11.08,18.49h0a21,21,0,0,0,2.87,2.75.75.75,0,0,0,.44-.05l.08.07s7-1.13,8.81-6.29a7.92,7.92,0,0,0,1-1.36c2-3.66-1.66-16.94-1.66-16.94a137.28,137.28,0,0,1,15.61-2.32c4.81-.4,9.73-7.21,12.89-12.54.25,4.58.65,10.47,1.06,10.88C100,183.73,95,196.68,96,197s10.62,1.66,13,1.33,1-3,.33-4.65-.33-6.31,1.33-10.29,2.65-24.24,3-29.89C113.81,150.37,113.17,149.08,112.57,148.56Z"/><path class="cls-10" d="M55.85,186.72s7,2,6,9-2.27,14.54-2.27,14.54-.38,18.66-5.36,20-6.31-1.33-6.31-1.33-5.66-14.58-4-18.93c2-5.26,5-11.17,4-13S48.54,185.72,55.85,186.72Z"/><path class="cls-5" d="M100,118.32s-3.65-7-3.65-11.29-6.31-7.64-6.31-7.64-19.26-4.65-21.58-5.31-5.32,2.65-9.63,2-7-1-7-1l-3,1c-1,.33-2,0-3.65,0s0,1.66-2.37,2c-.75.11-1.46,1-2.08,2.17a13.94,13.94,0,0,0-1,10.35c1.38,4.89,3.45,12.38,3.45,13,0,1,1,3,3,5s-4.27,36.86-4.27,39.51,2.32,2.33,19.92,4,26.24-3.32,31.22-9,.45-6.43-3-9.63c-4-3.67-8.11-23.1-5.31-29.31.61-1.35,1.17-2.71,1.67-4.1,1.81,3,5.86,8.67,10.28,8.18C102.67,127.61,100,118.32,100,118.32Z"/><path id="e7c770ea-313c-4db5-898e-f0c92c7afc68-1034" class="cls-10" d="M66.94,61.44c-1.23-.13-2.39.52-3.6.79-2.49.55-5-.59-7.6-.58a14.2,14.2,0,0,0-6.25,1.87,15,15,0,0,0-4.17,2.92,6.82,6.82,0,0,0-2,4.58,7.48,7.48,0,0,1-.09,3,7.92,7.92,0,0,1-.91,1.39,4.13,4.13,0,0,0-.43,3.44A11.38,11.38,0,0,0,44,81.91c1.64,2.11,2.68,4.64,4.15,6.89a22,22,0,0,0,2.17,2.75,1.6,1.6,0,0,0,.46.36,1.29,1.29,0,0,0,.55.08c3.14.09,6.38.16,9.27-1.07a4.22,4.22,0,0,0,2.22-1.79A6.29,6.29,0,0,0,63,85.56a16.49,16.49,0,0,1,.09-4,1.72,1.72,0,0,1,.51-1.18,1.59,1.59,0,0,1,1.59,0,4.34,4.34,0,0,0,1.57.48c1.09,0,1.77-1.23,2-2.31a5.39,5.39,0,0,1,2.21-5,7.64,7.64,0,0,0,1.36-6.78C71.61,64.47,69.42,61.68,66.94,61.44Z"/><path class="cls-6" d="M16.58,206.69a8.55,8.55,0,0,0,2.22,2.06l.56.32h4.48l-.16-.32a15.54,15.54,0,0,1,3.23-17.81,13.13,13.13,0,0,0-6.85,4.78,10.54,10.54,0,0,0-1.66,3.75,15.66,15.66,0,0,1,1.25-7.88,13.08,13.08,0,0,0-4.57,7A10,10,0,0,0,16.58,206.69Z"/><path class="cls-6" d="M26,206.44a5.26,5.26,0,0,0,1.48,1.38l.37.22h3c0-.07-.07-.15-.11-.22a10.39,10.39,0,0,1,2.16-11.9,8.77,8.77,0,0,0-4.58,3.2,7,7,0,0,0-1.11,2.5,10.48,10.48,0,0,1,.84-5.27A8.73,8.73,0,0,0,25,201,6.64,6.64,0,0,0,26,206.44Z"/></g></g></g></svg>