<svg xmlns="http://www.w3.org/2000/svg" viewBox="0 0 205.84 47.94"><defs><style>.cls-1{fill:#707070;}.cls-2{fill:#ff8b8b;}.cls-3{fill:#a5a5a5;}</style></defs><g id="レイヤー_2" data-name="レイヤー 2"><g id="レイヤー_1-2" data-name="レイヤー 1"><path class="cls-1" d="M74.69,47.94h5.1V11.79h-5.1ZM58.61,5.09H79.79v-5H58.61Z"/><path class="cls-1" d="M93.52,20.42V47.94h-5V9.86c0-6,3.23-9.74,10.51-9.74h15.14v5.1H99c-4.05,0-5.52,2.52-5.52,5.69v4.46h15.61v5.05Z"/><path class="cls-1" d="M135.08,47.94h-3.93c-10.85,0-15.66-4.93-15.66-14.38V26.29c0-9,5.28-14.56,15.66-14.56h8.1v5.11h-8c-6.86,0-10.68,3.46-10.68,9.74v6.63c0,6.16,3.52,9.74,10.68,9.74h3.81c7.34,0,10.16-3.05,10.45-8.1h5.22c-.41,9-4.87,13.09-15.67,13.09"/><rect class="cls-1" x="157.61" y="0.12" width="5.1" height="47.82"/><path class="cls-1" d="M176.05,31.86h0l29.79-.12V26.58c0-10.15-5.4-14.85-16-14.85h-4c-9.51,0-16,5.17-16,14.56v6.92c0,9,4.81,14.73,16,14.73h8.8V43.18h-8.8c-6.75,0-10.86-2.69-10.86-9.85V31.86Zm9.79-15.26h4c7,0,11,2.53,11,10v1.17l-24.81.11H175V26.29c0-7.1,4.58-9.69,10.86-9.69"/><path class="cls-2" d="M41,5.1H51.79V0H41C31.17,0,25.1,4.18,22.88,12a17.28,17.28,0,0,1,4.92,1.34C29.5,8,33.77,5.1,41,5.1"/><path class="cls-3" d="M30.16,26.58v6.63a11.2,11.2,0,0,1-1,4.89,9.51,9.51,0,0,0,4.34,3.54,16.69,16.69,0,0,0,1.75-8.08V26.29c0-9-5.28-14.56-15.66-14.56H11.5v5.11h8c6.86,0,10.68,3.46,10.68,9.74"/><path class="cls-3" d="M23,42.6a16.43,16.43,0,0,1-3.51.35H15.67C8.33,43,5.52,39.9,5.22,34.85H0c.41,9,4.87,13.09,15.67,13.09H19.6a23,23,0,0,0,7.57-1.12A15.27,15.27,0,0,1,23,42.6"/><path class="cls-2" d="M41.67,23.12V28h17.6V30.2c-.47,7.25-4.12,11.72-11.45,12.55l-2.42.14H41c-9.86,0-14.08-4.34-14.08-14.26V22.56a6.56,6.56,0,0,0-5-3.15h0v9.21c0,12.68,5.28,19.31,19.07,19.31h4.4a21.19,21.19,0,0,0,11.27-2.75l.38-.25.5-.35C62,41.39,64.32,36,64.32,28.52v-5.4Z"/></g></g></svg>